M48
; DRILL file {KiCad (6.0.11)} date Sat Apr 26 17:57:17 2025
; FORMAT={-:-/ absolute / inch / decimal}
; #@! TF.CreationDate,2025-04-26T17:57:17-05:00
; #@! TF.GenerationSoftware,Kicad,Pcbnew,(6.0.11)
; #@! TF.FileFunction,Plated,1,2,PTH
FMAT,2
INCH
; #@! TA.AperFunction,Plated,PTH,ComponentDrill
T1C0.0118
; #@! TA.AperFunction,Plated,PTH,ViaDrill
T2C0.0157
; #@! TA.AperFunction,Plated,PTH,ComponentDrill
T3C0.0295
; #@! TA.AperFunction,Plated,PTH,ComponentDrill
T4C0.0315
; #@! TA.AperFunction,Plated,PTH,ComponentDrill
T5C0.0354
; #@! TA.AperFunction,Plated,PTH,ComponentDrill
T6C0.0390
; #@! TA.AperFunction,Plated,PTH,ComponentDrill
T7C0.0394
; #@! TA.AperFunction,Plated,PTH,ComponentDrill
T8C0.0512
; #@! TA.AperFunction,Plated,PTH,ComponentDrill
T9C0.1260
%
G90
G05
T1
X3.628Y-4.2579
X3.628Y-4.3051
X7.8937Y-7.3484
X7.8937Y-7.3957
T2
X2.0194Y-5.269
X2.3382Y-7.947
X2.4024Y-7.3933
X2.4543Y-7.2376
X2.4764Y-7.278
X2.5129Y-9.0059
X2.5334Y-7.5421
X2.5516Y-4.3547
X2.6634Y-8.2638
X2.8846Y-7.7459
X2.9786Y-8.9739
X3.0608Y-8.4538
X3.1154Y-8.5785
X3.1683Y-4.3508
X3.209Y-5.6853
X3.2143Y-6.6539
X3.2244Y-4.9406
X3.4401Y-6.1835
X3.4604Y-6.3401
X3.5887Y-7.0776
X3.6239Y-4.1439
X3.6305Y-8.5527
X3.6948Y-7.1447
X3.724Y-5.9316
X3.7479Y-7.3958
X3.7877Y-5.8669
X3.857Y-5.6229
X3.8721Y-8.2491
X3.8872Y-7.3842
X3.922Y-5.6472
X3.9264Y-8.5894
X3.9998Y-8.5669
X4.0286Y-7.2783
X4.0294Y-5.6822
X4.0744Y-7.6149
X4.1193Y-6.6311
X4.1294Y-6.0495
X4.147Y-7.8775
X4.1888Y-5.514
X4.1923Y-5.4505
X4.3176Y-5.3484
X4.4319Y-6.1893
X4.4739Y-6.883
X4.5081Y-7.8898
X4.5336Y-6.0241
X4.6043Y-6.8558
X4.6347Y-5.2917
X4.7329Y-7.2366
X4.7457Y-7.1916
X4.7825Y-7.7405
X4.7852Y-7.1615
X4.7866Y-6.8149
X4.7888Y-7.6014
X4.8162Y-5.8784
X4.843Y-7.132
X4.8772Y-4.0964
X4.8821Y-7.397
X4.8996Y-5.859
X4.904Y-6.0147
X4.9106Y-7.426
X4.9142Y-6.2773
X4.9346Y-5.2289
X4.9692Y-5.8224
X5.0347Y-5.8089
X5.0695Y-7.3209
X5.0775Y-5.9847
X5.086Y-5.0477
X5.1131Y-5.8089
X5.1623Y-5.7898
X5.1659Y-8.5213
X5.2437Y-6.3081
X5.2653Y-6.3714
X5.3194Y-7.7683
X5.3491Y-5.6516
X5.3563Y-5.7002
X5.3916Y-8.3218
X5.4041Y-7.3776
X5.4195Y-5.9486
X5.4414Y-6.2252
X5.5525Y-5.7735
X5.5855Y-7.8982
X5.7348Y-5.0538
X5.7834Y-8.7121
X5.8095Y-7.8977
X5.946Y-5.5089
X5.9466Y-7.5946
X5.9532Y-7.1853
X5.9865Y-6.8945
X5.9951Y-8.1402
X6.0033Y-6.5686
X6.0046Y-7.0326
X6.0077Y-7.0969
X6.0083Y-7.1885
X6.0186Y-5.6901
X6.0532Y-6.3794
X6.0767Y-6.1989
X6.0806Y-6.9938
X6.0929Y-7.1354
X6.103Y-6.1246
X6.1254Y-4.5695
X6.1465Y-5.4417
X6.161Y-5.908
X6.1839Y-4.0883
X6.2581Y-4.2217
X6.286Y-4.0381
X6.312Y-6.8755
X6.3549Y-4.8832
X6.3657Y-6.1778
X6.4296Y-4.8732
X6.4442Y-7.6425
X6.4817Y-3.9326
X6.5651Y-6.3673
X6.5936Y-6.0572
X6.6103Y-3.5553
X6.6251Y-5.5743
X6.6811Y-5.998
X6.6841Y-7.5935
X6.7239Y-6.9077
X6.7433Y-5.3822
X6.7478Y-6.4368
X6.7618Y-5.7697
X6.7834Y-7.185
X6.7931Y-7.099
X6.8306Y-4.8148
X6.8793Y-4.971
X6.9045Y-6.6646
X6.9097Y-4.7762
X6.9348Y-4.9371
X7.0033Y-4.2093
X7.0045Y-5.101
X7.0158Y-8.0443
X7.0162Y-4.5274
X7.0399Y-3.4511
X7.0413Y-4.0914
X7.0633Y-3.9779
X7.2817Y-5.6456
X7.3093Y-8.2523
X7.361Y-6.7703
X7.3704Y-3.6265
X7.3773Y-5.7721
X7.381Y-7.4137
X7.4073Y-7.6882
X7.4303Y-5.6161
X7.5021Y-3.1185
X7.5022Y-5.6924
X7.565Y-3.6023
X7.6343Y-6.4203
X7.6352Y-5.6914
X7.7292Y-6.5165
X7.7304Y-6.7234
X7.7388Y-6.7634
X7.7692Y-6.5209
X7.7842Y-3.8346
X7.8164Y-6.6857
X7.9523Y-7.2565
X8.1Y-3.6158
X8.279Y-7.7685
X8.3663Y-3.8974
X8.4013Y-3.5969
X8.406Y-6.1483
X8.4271Y-7.1873
X8.4588Y-6.4777
X8.5092Y-6.1653
X8.5102Y-5.7569
X8.5829Y-5.6687
X8.6069Y-4.7764
X8.6666Y-7.9695
X8.733Y-3.4238
X8.7385Y-4.7127
X8.8097Y-6.0986
X8.8348Y-7.7955
X8.838Y-6.0415
X9.0077Y-6.0701
X9.0386Y-4.7767
X9.0721Y-6.237
X9.1595Y-6.2418
X9.1667Y-6.9288
X9.2537Y-7.0538
X9.3136Y-7.2691
X9.3543Y-4.7736
X9.6502Y-7.1013
X9.7215Y-5.182
X9.7557Y-5.2831
T3
X1.8398Y-7.5563
X1.8898Y-7.5063
X1.8898Y-7.6063
T4
X1.678Y-6.8301
X1.6901Y-8.6122
X1.6929Y-6.1772
X1.6929Y-6.374
X1.6929Y-7.4094
X1.6929Y-7.6063
X1.6978Y-5.6595
X1.6978Y-5.8564
X1.703Y-4.1067
X1.703Y-4.3035
X1.703Y-4.6243
X1.703Y-4.8212
X1.703Y-5.1419
X1.703Y-5.3388
X1.753Y-8.2801
X1.7774Y-7.8801
X1.778Y-6.8301
X1.7886Y-8.6122
X1.8774Y-7.8801
X1.878Y-6.8301
X1.8898Y-4.0547
X1.8898Y-4.3547
X1.8898Y-4.5723
X1.8898Y-4.8723
X1.8898Y-5.09
X1.8898Y-5.39
X1.8898Y-5.6076
X1.8898Y-5.9076
X1.8898Y-6.1252
X1.8898Y-6.4252
X1.9774Y-7.8801
X1.978Y-3.4551
X1.978Y-3.7551
X1.978Y-6.8301
X1.9898Y-4.0547
X1.9898Y-4.3547
X1.9898Y-4.5723
X1.9898Y-4.8723
X1.9898Y-5.09
X1.9898Y-5.39
X1.9898Y-5.6076
X1.9898Y-5.9076
X1.9898Y-6.1252
X1.9898Y-6.4252
X2.053Y-8.2801
X2.0774Y-7.8801
X2.078Y-6.8301
X2.0898Y-4.0547
X2.0898Y-4.3547
X2.0898Y-4.5723
X2.0898Y-4.8723
X2.0898Y-5.09
X2.0898Y-5.39
X2.0898Y-5.6076
X2.0898Y-5.9076
X2.0898Y-6.1252
X2.0898Y-6.4252
X2.1774Y-7.8801
X2.178Y-6.8301
X2.1898Y-4.0547
X2.1898Y-4.3547
X2.1898Y-4.5723
X2.1898Y-4.8723
X2.1898Y-5.09
X2.1898Y-5.39
X2.1898Y-5.6076
X2.1898Y-5.9076
X2.1898Y-6.1252
X2.1898Y-6.4252
X2.2774Y-7.8801
X2.278Y-6.8301
X2.2898Y-4.0547
X2.2898Y-4.3547
X2.2898Y-4.5723
X2.2898Y-4.8723
X2.2898Y-5.09
X2.2898Y-5.39
X2.2898Y-5.6076
X2.2898Y-5.9076
X2.2898Y-6.1252
X2.2898Y-6.4252
X2.3Y-3.4551
X2.3Y-3.7551
X2.353Y-8.2051
X2.353Y-8.5051
X2.3774Y-7.8801
X2.378Y-6.8301
X2.3898Y-4.0547
X2.3898Y-4.3547
X2.3898Y-4.5723
X2.3898Y-4.8723
X2.3898Y-5.09
X2.3898Y-5.39
X2.3898Y-5.6076
X2.3898Y-5.9076
X2.3898Y-6.1252
X2.3898Y-6.4252
X2.4774Y-7.8801
X2.478Y-6.8301
X2.4898Y-4.0547
X2.4898Y-4.3547
X2.4898Y-4.5723
X2.4898Y-4.8723
X2.4898Y-5.09
X2.4898Y-5.39
X2.4898Y-5.6076
X2.4898Y-5.9076
X2.4898Y-6.1252
X2.4898Y-6.4252
X2.5774Y-7.8801
X2.622Y-3.4551
X2.622Y-3.7551
X2.6779Y-6.4921
X2.7764Y-6.4921
X2.778Y-4.5817
X2.778Y-4.7785
X2.803Y-4.0801
X2.803Y-4.277
X2.9441Y-3.4551
X2.9441Y-3.7551
X2.9785Y-4.5547
X2.9785Y-4.8547
X3.003Y-6.3083
X3.003Y-6.5051
X3.028Y-6.9551
X3.028Y-7.152
X3.028Y-7.5567
X3.028Y-7.7535
X3.028Y-8.1602
X3.028Y-8.3571
X3.0785Y-4.5547
X3.0785Y-4.8547
X3.128Y-3.8801
X3.128Y-4.1801
X3.178Y-5.3303
X3.178Y-5.5272
X3.1785Y-4.5547
X3.1785Y-4.8547
X3.2531Y-6.9047
X3.2531Y-7.2047
X3.2531Y-7.5047
X3.2531Y-7.8047
X3.2531Y-8.1047
X3.2531Y-8.4047
X3.2661Y-3.4551
X3.2661Y-3.7551
X3.2785Y-4.5547
X3.2785Y-4.8547
X3.3465Y-6.2992
X3.3465Y-6.4961
X3.3531Y-6.9047
X3.3531Y-7.2047
X3.3531Y-7.5047
X3.3531Y-7.8047
X3.3531Y-8.1047
X3.3531Y-8.4047
X3.3785Y-4.5547
X3.3785Y-4.8547
X3.4531Y-6.9047
X3.4531Y-7.2047
X3.4531Y-7.5047
X3.4531Y-7.8047
X3.4531Y-8.1047
X3.4531Y-8.4047
X3.4785Y-4.5547
X3.4785Y-4.8547
X3.5433Y-3.4551
X3.5433Y-3.7551
X3.5531Y-6.9047
X3.5531Y-7.2047
X3.5531Y-7.5047
X3.5531Y-7.8047
X3.5531Y-8.1047
X3.5531Y-8.4047
X3.5785Y-4.5547
X3.5785Y-4.8547
X3.653Y-5.1451
X3.653Y-5.7451
X3.6531Y-6.9047
X3.6531Y-7.2047
X3.6531Y-7.5047
X3.6531Y-7.8047
X3.6531Y-8.1047
X3.6531Y-8.4047
X3.6762Y-6.0978
X3.6762Y-6.6978
X3.6785Y-4.5547
X3.6785Y-4.8547
X3.753Y-5.1451
X3.753Y-5.7451
X3.7531Y-6.9047
X3.7531Y-7.2047
X3.7531Y-7.5047
X3.7531Y-7.8047
X3.7531Y-8.1047
X3.7531Y-8.4047
X3.7762Y-6.0978
X3.7762Y-6.6978
X3.853Y-5.1451
X3.853Y-5.7451
X3.8531Y-6.9047
X3.8531Y-7.2047
X3.8531Y-7.5047
X3.8531Y-7.8047
X3.8531Y-8.1047
X3.8531Y-8.4047
X3.8762Y-6.0978
X3.8762Y-6.6978
X3.928Y-4.0801
X3.928Y-4.277
X3.928Y-4.5817
X3.928Y-4.7785
X3.953Y-5.1451
X3.953Y-5.7451
X3.9531Y-6.9047
X3.9531Y-7.2047
X3.9531Y-7.5047
X3.9531Y-7.8047
X3.9531Y-8.1047
X3.9531Y-8.4047
X3.9762Y-6.0978
X3.9762Y-6.6978
X4.053Y-5.1451
X4.053Y-5.7451
X4.0531Y-6.9047
X4.0531Y-7.2047
X4.0531Y-7.5047
X4.0531Y-7.8047
X4.0531Y-8.1047
X4.0531Y-8.4047
X4.0762Y-6.0978
X4.0762Y-6.6978
X4.1285Y-4.5547
X4.1285Y-4.8547
X4.1305Y-4.0301
X4.1305Y-4.3301
X4.153Y-5.1451
X4.153Y-5.7451
X4.1531Y-6.9047
X4.1531Y-7.2047
X4.1531Y-7.5047
X4.1531Y-7.8047
X4.1531Y-8.1047
X4.1531Y-8.4047
X4.1762Y-6.0978
X4.1762Y-6.6978
X4.2285Y-4.5547
X4.2285Y-4.8547
X4.2305Y-4.0301
X4.2305Y-4.3301
X4.253Y-5.1451
X4.253Y-5.7451
X4.2762Y-6.0978
X4.2762Y-6.6978
X4.3285Y-4.5547
X4.3285Y-4.8547
X4.3305Y-4.0301
X4.3305Y-4.3301
X4.353Y-5.1451
X4.353Y-5.7451
X4.3762Y-6.0978
X4.3762Y-6.6978
X4.4285Y-4.5547
X4.4285Y-4.8547
X4.4305Y-4.0301
X4.4305Y-4.3301
X4.453Y-5.1451
X4.453Y-5.7451
X4.4762Y-6.0978
X4.4762Y-6.6978
X4.5285Y-4.5547
X4.5285Y-4.8547
X4.5305Y-4.0301
X4.5305Y-4.3301
X4.553Y-5.1451
X4.553Y-5.7451
X4.5762Y-6.0978
X4.5762Y-6.6978
X4.6063Y-8.6122
X4.6285Y-4.5547
X4.6285Y-4.8547
X4.6305Y-4.0301
X4.6305Y-4.3301
X4.653Y-5.1451
X4.653Y-5.7451
X4.6762Y-6.0978
X4.6762Y-6.6978
X4.678Y-7.5567
X4.678Y-7.7535
X4.7047Y-8.6122
X4.728Y-8.0833
X4.728Y-8.2801
X4.7285Y-4.5547
X4.7285Y-4.8547
X4.7305Y-4.0301
X4.7305Y-4.3301
X4.753Y-5.1451
X4.753Y-5.7451
X4.7762Y-6.0978
X4.7762Y-6.6978
X4.8055Y-3.6801
X4.8285Y-4.5547
X4.8285Y-4.8547
X4.8305Y-4.0301
X4.8305Y-4.3301
X4.853Y-5.1451
X4.853Y-5.7451
X4.8762Y-6.0978
X4.8762Y-6.6978
X4.9039Y-3.6801
X4.9305Y-4.0301
X4.9305Y-4.3301
X4.953Y-5.1451
X4.953Y-5.7451
X4.9531Y-7.5297
X4.9531Y-7.8297
X4.9531Y-8.1297
X4.9531Y-8.4297
X4.9762Y-6.0978
X4.9762Y-6.6978
X5.003Y-7.0817
X5.003Y-7.2785
X5.0305Y-4.0301
X5.0305Y-4.3301
X5.0531Y-7.5297
X5.0531Y-7.8297
X5.0531Y-8.1297
X5.0531Y-8.4297
X5.0762Y-6.0978
X5.0762Y-6.6978
X5.1305Y-4.0301
X5.1305Y-4.3301
X5.1531Y-7.5297
X5.1531Y-7.8297
X5.1531Y-8.1297
X5.1531Y-8.4297
X5.1762Y-6.0978
X5.1762Y-6.6978
X5.2305Y-4.0301
X5.2305Y-4.3301
X5.2524Y-7.0297
X5.2524Y-7.3297
X5.2531Y-7.5297
X5.2531Y-7.8297
X5.2531Y-8.1297
X5.2531Y-8.4297
X5.2762Y-6.0978
X5.2762Y-6.6978
X5.3524Y-7.0297
X5.3524Y-7.3297
X5.3531Y-7.5297
X5.3531Y-7.8297
X5.3531Y-8.1297
X5.3531Y-8.4297
X5.374Y-3.5039
X5.3762Y-6.0978
X5.3762Y-6.6978
X5.4524Y-7.0297
X5.4524Y-7.3297
X5.4531Y-7.5297
X5.4531Y-7.8297
X5.4531Y-8.1297
X5.4531Y-8.4297
X5.4762Y-6.0978
X5.4762Y-6.6978
X5.5524Y-7.0297
X5.5524Y-7.3297
X5.5531Y-7.5297
X5.5531Y-7.8297
X5.5531Y-8.1297
X5.5531Y-8.4297
X5.5709Y-3.5039
X5.5762Y-6.0978
X5.5762Y-6.6978
X5.6524Y-7.0297
X5.6524Y-7.3297
X5.6531Y-7.5297
X5.6531Y-7.8297
X5.6531Y-8.1297
X5.6531Y-8.4297
X5.6535Y-3.8567
X5.6535Y-4.0535
X5.6535Y-4.7817
X5.6535Y-4.9785
X5.6535Y-5.2913
X5.6535Y-5.4882
X5.7524Y-7.0297
X5.7524Y-7.3297
X5.7531Y-7.5297
X5.7531Y-7.8297
X5.7531Y-8.1297
X5.7531Y-8.4297
X5.8276Y-5.2797
X5.8276Y-5.5797
X5.8281Y-3.8547
X5.8281Y-4.1547
X5.8281Y-4.7547
X5.8281Y-5.0547
X5.8524Y-7.0297
X5.8524Y-7.3297
X5.8531Y-7.5297
X5.8531Y-7.8297
X5.8531Y-8.1297
X5.8531Y-8.4297
X5.9276Y-5.2797
X5.9276Y-5.5797
X5.9281Y-3.8547
X5.9281Y-4.1547
X5.9281Y-4.7547
X5.9281Y-5.0547
X6.0276Y-5.2797
X6.0276Y-5.5797
X6.0281Y-3.8547
X6.0281Y-4.1547
X6.0281Y-4.7547
X6.0281Y-5.0547
X6.1276Y-5.2797
X6.1276Y-5.5797
X6.1281Y-3.8547
X6.1281Y-4.1547
X6.1281Y-4.7547
X6.1281Y-5.0547
X6.2276Y-5.2797
X6.2276Y-5.5797
X6.2281Y-3.8547
X6.2281Y-4.1547
X6.2281Y-4.7547
X6.2281Y-5.0547
X6.278Y-8.1567
X6.278Y-8.3535
X6.3276Y-5.2797
X6.3276Y-5.5797
X6.3281Y-3.8547
X6.3281Y-4.1547
X6.3281Y-4.7547
X6.3281Y-5.0547
X6.378Y-6.2801
X6.378Y-6.3801
X6.378Y-6.4801
X6.378Y-6.5801
X6.378Y-6.6801
X6.378Y-6.7801
X6.4274Y-7.8051
X6.4276Y-5.2797
X6.4276Y-5.5797
X6.4281Y-3.8547
X6.4281Y-4.1547
X6.4281Y-4.7547
X6.4281Y-5.0547
X6.478Y-6.1801
X6.478Y-6.2801
X6.478Y-6.3801
X6.478Y-6.4801
X6.478Y-6.5801
X6.478Y-6.6801
X6.478Y-6.7801
X6.478Y-6.8801
X6.478Y-8.1047
X6.478Y-8.4047
X6.5274Y-7.8051
X6.5276Y-5.2797
X6.5276Y-5.5797
X6.5281Y-3.8547
X6.5281Y-4.1547
X6.5281Y-4.7547
X6.5281Y-5.0547
X6.578Y-6.1801
X6.578Y-6.2801
X6.578Y-6.7801
X6.578Y-6.8801
X6.578Y-8.1047
X6.578Y-8.4047
X6.6274Y-7.8051
X6.6281Y-3.8547
X6.6281Y-4.1547
X6.6281Y-4.7547
X6.6281Y-5.0547
X6.678Y-6.1801
X6.678Y-6.2801
X6.678Y-6.7801
X6.678Y-6.8801
X6.678Y-8.1047
X6.678Y-8.4047
X6.7274Y-7.8051
X6.7281Y-3.8547
X6.7281Y-4.1547
X6.7281Y-4.7547
X6.7281Y-5.0547
X6.778Y-6.1801
X6.778Y-6.2801
X6.778Y-6.7801
X6.778Y-6.8801
X6.778Y-8.1047
X6.778Y-8.4047
X6.8274Y-7.8051
X6.878Y-5.9301
X6.878Y-6.1801
X6.878Y-6.2801
X6.878Y-6.7801
X6.878Y-6.8801
X6.878Y-8.1047
X6.878Y-8.4047
X6.9274Y-7.8051
X6.978Y-6.1801
X6.978Y-6.2801
X6.978Y-6.3801
X6.978Y-6.4801
X6.978Y-6.5801
X6.978Y-6.6801
X6.978Y-6.7801
X6.978Y-6.8801
X6.978Y-8.1047
X6.978Y-8.4047
X7.0274Y-7.8051
X7.0748Y-5.9301
X7.078Y-6.2801
X7.078Y-6.3801
X7.078Y-6.4801
X7.078Y-6.5801
X7.078Y-6.6801
X7.078Y-6.7801
X7.078Y-8.1047
X7.078Y-8.4047
X7.1274Y-7.8051
X7.178Y-8.1047
X7.178Y-8.4047
X7.2274Y-7.8051
X7.278Y-8.1047
X7.278Y-8.4047
X7.3524Y-5.2913
X7.3524Y-5.4882
X7.378Y-8.1047
X7.378Y-8.4047
X7.4033Y-4.3701
X7.478Y-3.7567
X7.478Y-3.9535
X7.478Y-4.7317
X7.478Y-4.9285
X7.478Y-6.3551
X7.478Y-6.552
X7.5018Y-4.3701
X7.5278Y-5.2297
X7.5278Y-5.5297
X7.5774Y-5.7551
X7.5939Y-8.6122
X7.6278Y-5.2297
X7.6278Y-5.5297
X7.6774Y-5.7551
X7.6803Y-6.3037
X7.6803Y-6.6037
X7.6923Y-8.6122
X7.7278Y-5.2297
X7.7278Y-5.5297
X7.7285Y-3.7157
X7.7285Y-4.0157
X7.7774Y-5.7551
X7.7803Y-6.3037
X7.7803Y-6.6037
X7.823Y-4.1929
X7.8278Y-5.2297
X7.8278Y-5.5297
X7.8285Y-3.7157
X7.8285Y-4.0157
X7.853Y-7.6317
X7.853Y-7.8285
X7.853Y-8.1801
X7.853Y-8.377
X7.8774Y-5.7551
X7.8803Y-6.3037
X7.8803Y-6.6037
X7.923Y-4.1929
X7.9278Y-5.2297
X7.9278Y-5.5297
X7.9285Y-3.7157
X7.9285Y-4.0157
X7.9774Y-5.7551
X7.9803Y-6.3037
X7.9803Y-6.6037
X8.023Y-4.1929
X8.0278Y-5.2297
X8.0278Y-5.5297
X8.0285Y-3.7157
X8.0285Y-4.0157
X8.0531Y-8.1297
X8.0531Y-8.4297
X8.0738Y-7.372
X8.0738Y-7.5839
X8.0738Y-7.8839
X8.0774Y-5.7551
X8.0803Y-6.3037
X8.0803Y-6.6037
X8.123Y-4.1929
X8.1278Y-5.2297
X8.1278Y-5.5297
X8.1285Y-3.7157
X8.1285Y-4.0157
X8.1531Y-8.1297
X8.1531Y-8.4297
X8.1738Y-7.372
X8.1738Y-7.5839
X8.1738Y-7.8839
X8.1774Y-5.7551
X8.1803Y-6.3037
X8.1803Y-6.6037
X8.223Y-4.1929
X8.2278Y-5.2297
X8.2278Y-5.5297
X8.2285Y-3.7157
X8.2285Y-4.0157
X8.2531Y-8.1297
X8.2531Y-8.4297
X8.2738Y-7.372
X8.2738Y-7.5839
X8.2738Y-7.8839
X8.2774Y-5.7551
X8.2803Y-6.3037
X8.2803Y-6.6037
X8.323Y-4.1929
X8.3278Y-5.2297
X8.3278Y-5.5297
X8.3285Y-3.7157
X8.3285Y-4.0157
X8.3531Y-8.1297
X8.3531Y-8.4297
X8.3738Y-7.372
X8.3738Y-7.5839
X8.3738Y-7.8839
X8.3774Y-5.7551
X8.423Y-4.1929
X8.4278Y-5.2297
X8.4278Y-5.5297
X8.4285Y-3.7157
X8.4285Y-4.0157
X8.4531Y-8.1297
X8.4531Y-8.4297
X8.4738Y-7.372
X8.4738Y-7.5839
X8.4738Y-7.8839
X8.523Y-4.1929
X8.5278Y-5.2297
X8.5278Y-5.5297
X8.5285Y-3.7157
X8.5285Y-4.0157
X8.5531Y-8.1297
X8.5531Y-8.4297
X8.5738Y-7.372
X8.5738Y-7.5839
X8.5738Y-7.8839
X8.603Y-6.3317
X8.603Y-6.5285
X8.623Y-4.1929
X8.6278Y-5.2297
X8.6278Y-5.5297
X8.6285Y-3.7157
X8.6285Y-4.0157
X8.6531Y-8.1297
X8.6531Y-8.4297
X8.6738Y-7.372
X8.6738Y-7.5839
X8.6738Y-7.8839
X8.7531Y-8.1297
X8.7531Y-8.4297
X8.7738Y-7.372
X8.7738Y-7.5839
X8.7738Y-7.8839
X8.8281Y-6.3047
X8.8281Y-6.6047
X8.8531Y-8.1297
X8.8531Y-8.4297
X8.8738Y-7.372
X8.8738Y-7.5839
X8.8738Y-7.8839
X8.9281Y-6.3047
X8.9281Y-6.6047
X8.9531Y-8.1297
X8.9531Y-8.4297
X8.9738Y-7.5839
X8.9738Y-7.8839
X9.0281Y-6.3047
X9.0281Y-6.6047
X9.1281Y-6.3047
X9.1281Y-6.6047
X9.1831Y-6.8161
X9.1831Y-7.1161
X9.1831Y-7.2394
X9.1831Y-7.5394
X9.2281Y-6.3047
X9.2281Y-6.6047
X9.3281Y-6.3047
X9.3281Y-6.6047
X9.4144Y-6.9213
X9.4144Y-7.1181
X9.4281Y-6.3047
X9.4281Y-6.6047
X9.5281Y-6.3047
X9.5281Y-6.6047
X9.6281Y-6.3047
X9.6281Y-6.6047
X9.7281Y-6.3047
X9.7281Y-6.6047
T5
X2.1441Y-3.1142
X2.2441Y-3.1142
X2.4548Y-3.1142
X2.5548Y-3.1142
X2.7656Y-3.1142
X2.8656Y-3.1142
X3.0763Y-3.1142
X3.1763Y-3.1142
X3.3871Y-3.1142
X3.4871Y-3.1142
X3.6978Y-3.1142
X3.7978Y-3.1142
T6
X6.4961Y-3.0288
X6.6732Y-3.0288
T7
X1.852Y-8.7795
X1.852Y-8.8795
X1.952Y-8.7795
X1.952Y-8.8795
X2.052Y-8.7795
X2.052Y-8.8795
X2.0776Y-7.0799
X2.0776Y-7.1799
X2.152Y-8.7795
X2.152Y-8.8795
X2.1776Y-7.0799
X2.1776Y-7.1799
X2.252Y-8.7795
X2.252Y-8.8795
X2.2776Y-7.0799
X2.2776Y-7.1799
X2.352Y-8.7795
X2.352Y-8.8795
X2.3776Y-7.0799
X2.3776Y-7.1799
X2.452Y-8.7795
X2.452Y-8.8795
X2.503Y-7.3801
X2.503Y-7.4801
X2.552Y-8.7795
X2.552Y-8.8795
X2.603Y-8.2299
X2.603Y-8.3299
X2.652Y-8.7795
X2.652Y-8.8795
X2.752Y-8.7795
X2.752Y-8.8795
X2.852Y-8.7795
X2.852Y-8.8795
X2.952Y-8.7795
X2.952Y-8.8795
X3.052Y-8.7795
X3.052Y-8.8795
X3.152Y-8.7795
X3.152Y-8.8795
X3.252Y-8.7795
X3.252Y-8.8795
X3.352Y-8.7795
X3.352Y-8.8795
X3.452Y-8.7795
X3.452Y-8.8795
X3.552Y-8.7795
X3.552Y-8.8795
X3.652Y-8.7795
X3.652Y-8.8795
X3.752Y-8.7795
X3.752Y-8.8795
X3.852Y-8.7795
X3.852Y-8.8795
X3.952Y-8.7795
X3.952Y-8.8795
X4.052Y-8.7795
X4.052Y-8.8795
X4.152Y-8.7795
X4.152Y-8.8795
X4.252Y-8.7795
X4.252Y-8.8795
X4.7654Y-8.7795
X4.7654Y-8.8795
X4.8654Y-8.7795
X4.8654Y-8.8795
X4.9654Y-8.7795
X4.9654Y-8.8795
X4.9785Y-3.2024
X5.0654Y-8.7795
X5.0654Y-8.8795
X5.0785Y-3.2024
X5.1654Y-8.7795
X5.1654Y-8.8795
X5.1785Y-3.2024
X5.2654Y-8.7795
X5.2654Y-8.8795
X5.3654Y-8.7795
X5.3654Y-8.8795
X5.453Y-3.2051
X5.4654Y-8.7795
X5.4654Y-8.8795
X5.553Y-3.2051
X5.5654Y-8.7795
X5.5654Y-8.8795
X5.653Y-3.2051
X5.6654Y-8.7795
X5.6654Y-8.8795
X5.7654Y-8.7795
X5.7654Y-8.8795
X5.8654Y-8.7795
X5.8654Y-8.8795
X5.9278Y-3.2024
X5.9654Y-8.7795
X5.9654Y-8.8795
X6.0278Y-3.2024
X6.0654Y-8.7795
X6.0654Y-8.8795
X6.1654Y-8.7795
X6.1654Y-8.8795
X6.2654Y-8.7795
X6.2654Y-8.8795
X6.3654Y-8.7795
X6.3654Y-8.8795
X6.403Y-7.3801
X6.403Y-7.4801
X6.4654Y-8.7795
X6.4654Y-8.8795
X6.503Y-7.3801
X6.503Y-7.4801
X6.5654Y-8.7795
X6.5654Y-8.8795
X6.603Y-7.3801
X6.603Y-7.4801
X6.6654Y-8.7795
X6.6654Y-8.8795
X6.703Y-7.3801
X6.703Y-7.4801
X6.7654Y-8.7795
X6.7654Y-8.8795
X6.803Y-7.3801
X6.803Y-7.4801
X6.8654Y-8.7795
X6.8654Y-8.8795
X6.903Y-7.3801
X6.903Y-7.4801
X6.9654Y-8.7795
X6.9654Y-8.8795
X7.003Y-7.3801
X7.003Y-7.4801
X7.0654Y-8.7795
X7.0654Y-8.8795
X7.103Y-7.3801
X7.103Y-7.4801
X7.1654Y-8.7795
X7.1654Y-8.8795
X7.376Y-3.2038
X7.376Y-3.3038
X7.476Y-3.2038
X7.476Y-3.3038
X7.576Y-3.2038
X7.576Y-3.3038
X7.676Y-3.2038
X7.676Y-3.3038
X7.7575Y-8.7795
X7.7575Y-8.8795
X7.776Y-3.2038
X7.776Y-3.3038
X7.8575Y-8.7795
X7.8575Y-8.8795
X7.876Y-3.2038
X7.876Y-3.3038
X7.9575Y-8.7795
X7.9575Y-8.8795
X7.976Y-3.2038
X7.976Y-3.3038
X8.0575Y-8.7795
X8.0575Y-8.8795
X8.076Y-3.2038
X8.076Y-3.3038
X8.1575Y-8.7795
X8.1575Y-8.8795
X8.1693Y-6.9778
X8.1693Y-7.0778
X8.176Y-3.2038
X8.176Y-3.3038
X8.2575Y-8.7795
X8.2575Y-8.8795
X8.2693Y-6.9778
X8.2693Y-7.0778
X8.276Y-3.2038
X8.276Y-3.3038
X8.3575Y-8.7795
X8.3575Y-8.8795
X8.3693Y-6.9778
X8.3693Y-7.0778
X8.376Y-3.2038
X8.376Y-3.3038
X8.4575Y-8.7795
X8.4575Y-8.8795
X8.4693Y-6.9778
X8.4693Y-7.0778
X8.476Y-3.2038
X8.476Y-3.3038
X8.5575Y-8.7795
X8.5575Y-8.8795
X8.576Y-3.2038
X8.576Y-3.3038
X8.6575Y-8.7795
X8.6575Y-8.8795
X8.676Y-3.2038
X8.676Y-3.3038
X8.7575Y-8.7795
X8.7575Y-8.8795
X8.776Y-3.2038
X8.776Y-3.3038
X8.8575Y-8.7795
X8.8575Y-8.8795
X8.876Y-3.2038
X8.876Y-3.3038
X8.9575Y-8.7795
X8.9575Y-8.8795
X8.976Y-3.2038
X8.976Y-3.3038
X9.0575Y-8.7795
X9.0575Y-8.8795
X9.076Y-3.2038
X9.076Y-3.3038
X9.1575Y-8.7795
X9.1575Y-8.8795
X9.176Y-3.2038
X9.176Y-3.3038
X9.1778Y-3.7805
X9.1778Y-3.8805
X9.1778Y-3.9805
X9.1778Y-4.0805
X9.1778Y-4.1805
X9.1778Y-4.2805
X9.1778Y-4.3805
X9.1778Y-4.4805
X9.1778Y-4.5805
X9.1778Y-4.9301
X9.1778Y-5.0301
X9.1778Y-5.1301
X9.1778Y-5.2301
X9.1778Y-5.3301
X9.1778Y-5.4301
X9.1778Y-5.5301
X9.1778Y-5.6301
X9.1778Y-5.7301
X9.2575Y-8.7795
X9.2575Y-8.8795
X9.276Y-3.2038
X9.276Y-3.3038
X9.2778Y-3.7805
X9.2778Y-3.8805
X9.2778Y-3.9805
X9.2778Y-4.0805
X9.2778Y-4.1805
X9.2778Y-4.2805
X9.2778Y-4.3805
X9.2778Y-4.4805
X9.2778Y-4.5805
X9.2778Y-4.9301
X9.2778Y-5.0301
X9.2778Y-5.1301
X9.2778Y-5.2301
X9.2778Y-5.3301
X9.2778Y-5.4301
X9.2778Y-5.5301
X9.2778Y-5.6301
X9.2778Y-5.7301
X9.3575Y-8.7795
X9.3575Y-8.8795
X9.4575Y-8.7795
X9.4575Y-8.8795
X9.5575Y-8.7795
X9.5575Y-8.8795
X9.6575Y-8.7795
X9.6575Y-8.8795
X9.7575Y-8.7795
X9.7575Y-8.8795
X9.8575Y-8.7795
X9.8575Y-8.8795
X9.903Y-3.7805
X9.903Y-3.8805
X9.903Y-3.9805
X9.903Y-4.0805
X9.903Y-4.1805
X9.903Y-4.2805
X9.903Y-4.3805
X9.903Y-4.4805
X9.903Y-4.5805
X9.903Y-4.9301
X9.903Y-5.0301
X9.903Y-5.1301
X9.903Y-5.2301
X9.903Y-5.3301
X9.903Y-5.4301
X9.903Y-5.5301
X9.903Y-5.6301
X9.903Y-5.7301
X9.9575Y-8.7795
X9.9575Y-8.8795
X10.003Y-3.7805
X10.003Y-3.8805
X10.003Y-3.9805
X10.003Y-4.0805
X10.003Y-4.1805
X10.003Y-4.2805
X10.003Y-4.3805
X10.003Y-4.4805
X10.003Y-4.5805
X10.003Y-4.9301
X10.003Y-5.0301
X10.003Y-5.1301
X10.003Y-5.2301
X10.003Y-5.3301
X10.003Y-5.4301
X10.003Y-5.5301
X10.003Y-5.6301
X10.003Y-5.7301
X10.0575Y-8.7795
X10.0575Y-8.8795
X10.1575Y-8.7795
X10.1575Y-8.8795
T8
X6.4469Y-3.1269
X6.7228Y-3.1269
T9
X1.5748Y-2.9528
X10.4331Y-2.9528
T0
M30
