%TF.GenerationSoftware,KiCad,Pcbnew,8.0.6*%
%TF.CreationDate,2025-04-19T20:02:07-05:00*%
%TF.ProjectId,front-panel.processor,66726f6e-742d-4706-916e-656c2e70726f,rev?*%
%TF.SameCoordinates,Original*%
%TF.FileFunction,Drillmap*%
%TF.FilePolarity,Positive*%
%FSLAX45Y45*%
G04 Gerber Fmt 4.5, Leading zero omitted, Abs format (unit mm)*
G04 Created by KiCad (PCBNEW 8.0.6) date 2025-04-19 20:02:07*
%MOMM*%
%LPD*%
G01*
G04 APERTURE LIST*
%ADD10C,0.050000*%
%ADD11C,0.200000*%
%ADD12C,0.100000*%
%ADD13C,0.110000*%
%ADD14C,0.320000*%
G04 APERTURE END LIST*
D10*
X4000000Y-23000000D02*
X32500000Y-23000000D01*
X3500000Y-15500000D02*
X3500000Y-22500000D01*
X32500000Y-15000000D02*
X4000000Y-15000000D01*
X33000000Y-22500000D02*
X33000000Y-15500000D01*
X32500000Y-15000000D02*
G75*
G02*
X33000000Y-15500000I0J-500000D01*
G01*
X4000000Y-23000000D02*
G75*
G02*
X3500000Y-22500000I0J500000D01*
G01*
X3500000Y-15500000D02*
G75*
G02*
X4000000Y-15000000I500000J0D01*
G01*
X33000000Y-22500000D02*
G75*
G02*
X32500000Y-23000000I-500000J0D01*
G01*
D11*
D12*
X10717170Y-16460580D02*
X10757170Y-16500580D01*
X10757170Y-16460580D02*
X10717170Y-16500580D01*
X10872970Y-16722030D02*
X10912970Y-16762030D01*
X10912970Y-16722030D02*
X10872970Y-16762030D01*
X10936200Y-16031470D02*
X10976200Y-16071470D01*
X10976200Y-16031470D02*
X10936200Y-16071470D01*
X11113330Y-16042400D02*
X11153330Y-16082400D01*
X11153330Y-16042400D02*
X11113330Y-16082400D01*
X11177040Y-17083150D02*
X11217040Y-17123150D01*
X11217040Y-17083150D02*
X11177040Y-17123150D01*
X11181610Y-16358190D02*
X11221610Y-16398190D01*
X11221610Y-16358190D02*
X11181610Y-16398190D01*
X11269640Y-17297630D02*
X11309640Y-17337630D01*
X11309640Y-17297630D02*
X11269640Y-17337630D01*
X11555090Y-16346590D02*
X11595090Y-16386590D01*
X11595090Y-16346590D02*
X11555090Y-16386590D01*
X11558210Y-16733150D02*
X11598210Y-16773150D01*
X11598210Y-16733150D02*
X11558210Y-16773150D01*
X11658450Y-16932770D02*
X11698450Y-16972770D01*
X11698450Y-16932770D02*
X11658450Y-16972770D01*
X11712070Y-16301580D02*
X11752070Y-16341580D01*
X11752070Y-16301580D02*
X11712070Y-16341580D01*
X11912450Y-16747400D02*
X11952450Y-16787400D01*
X11952450Y-16747400D02*
X11912450Y-16787400D01*
X11991160Y-16633820D02*
X12031160Y-16673820D01*
X12031160Y-16633820D02*
X11991160Y-16673820D01*
X12960460Y-16247750D02*
X13000460Y-16287750D01*
X13000460Y-16247750D02*
X12960460Y-16287750D01*
X13600480Y-17980290D02*
X13640480Y-18020290D01*
X13640480Y-17980290D02*
X13600480Y-18020290D01*
X15175800Y-15768690D02*
X15215800Y-15808690D01*
X15215800Y-15768690D02*
X15175800Y-15808690D01*
X15731910Y-18024430D02*
X15771910Y-18064430D01*
X15771910Y-18024430D02*
X15731910Y-18064430D01*
X17622330Y-17786450D02*
X17662330Y-17826450D01*
X17662330Y-17786450D02*
X17622330Y-17826450D01*
X18014290Y-17703710D02*
X18054290Y-17743710D01*
X18054290Y-17703710D02*
X18014290Y-17743710D01*
X18361040Y-18282010D02*
X18401040Y-18322010D01*
X18401040Y-18282010D02*
X18361040Y-18322010D01*
X19337440Y-18304860D02*
X19377440Y-18344860D01*
X19377440Y-18304860D02*
X19337440Y-18344860D01*
X20911810Y-18588880D02*
X20951810Y-18628880D01*
X20951810Y-18588880D02*
X20911810Y-18628880D01*
X22845290Y-16326390D02*
X22885290Y-16366390D01*
X22885290Y-16326390D02*
X22845290Y-16366390D01*
X22851710Y-15415740D02*
X22891710Y-15455740D01*
X22891710Y-15415740D02*
X22851710Y-15455740D01*
X23217880Y-17117220D02*
X23257880Y-17157220D01*
X23257880Y-17117220D02*
X23217880Y-17157220D01*
X26364960Y-22256950D02*
X26404960Y-22296950D01*
X26404960Y-22256950D02*
X26364960Y-22296950D01*
X26365180Y-22408510D02*
X26405180Y-22448510D01*
X26405180Y-22408510D02*
X26365180Y-22448510D01*
X26524300Y-21629620D02*
X26564300Y-21669620D01*
X26564300Y-21629620D02*
X26524300Y-21669620D01*
X27118460Y-19031730D02*
X27158460Y-19071730D01*
X27158460Y-19031730D02*
X27118460Y-19071730D01*
X27243140Y-22405220D02*
X27283140Y-22445220D01*
X27283140Y-22405220D02*
X27243140Y-22445220D01*
X27330420Y-22166170D02*
X27370420Y-22206170D01*
X27370420Y-22166170D02*
X27330420Y-22206170D01*
X27615440Y-19019390D02*
X27655440Y-19059390D01*
X27655440Y-19019390D02*
X27615440Y-19059390D01*
X28990570Y-20089190D02*
X29030570Y-20129190D01*
X29030570Y-20089190D02*
X28990570Y-20129190D01*
X24147060Y-17173680D02*
G75*
G02*
X24072060Y-17173680I-37500J0D01*
G01*
X24072060Y-17173680D02*
G75*
G02*
X24147060Y-17173680I37500J0D01*
G01*
X24274060Y-17173680D02*
G75*
G02*
X24199060Y-17173680I-37500J0D01*
G01*
X24199060Y-17173680D02*
G75*
G02*
X24274060Y-17173680I37500J0D01*
G01*
X24401060Y-17173680D02*
G75*
G02*
X24326060Y-17173680I-37500J0D01*
G01*
X24326060Y-17173680D02*
G75*
G02*
X24401060Y-17173680I37500J0D01*
G01*
X5719000Y-15460000D02*
X5719000Y-15540000D01*
X5679000Y-15500000D02*
X5759000Y-15500000D01*
X6481000Y-15460000D02*
X6481000Y-15540000D01*
X6441000Y-15500000D02*
X6521000Y-15500000D01*
X8282500Y-16360000D02*
X8282500Y-16440000D01*
X8242500Y-16400000D02*
X8322500Y-16400000D01*
X8307500Y-15178000D02*
X8307500Y-15258000D01*
X8267500Y-15218000D02*
X8347500Y-15218000D01*
X8307500Y-15940000D02*
X8307500Y-16020000D01*
X8267500Y-15980000D02*
X8347500Y-15980000D01*
X8536500Y-16360000D02*
X8536500Y-16440000D01*
X8496500Y-16400000D02*
X8576500Y-16400000D01*
X8561500Y-15178000D02*
X8561500Y-15258000D01*
X8521500Y-15218000D02*
X8601500Y-15218000D01*
X8561500Y-15940000D02*
X8561500Y-16020000D01*
X8521500Y-15980000D02*
X8601500Y-15980000D01*
X8790500Y-16360000D02*
X8790500Y-16440000D01*
X8750500Y-16400000D02*
X8830500Y-16400000D01*
X8815500Y-15178000D02*
X8815500Y-15258000D01*
X8775500Y-15218000D02*
X8855500Y-15218000D01*
X8815500Y-15940000D02*
X8815500Y-16020000D01*
X8775500Y-15980000D02*
X8855500Y-15980000D01*
X9044500Y-16360000D02*
X9044500Y-16440000D01*
X9004500Y-16400000D02*
X9084500Y-16400000D01*
X9069500Y-15178000D02*
X9069500Y-15258000D01*
X9029500Y-15218000D02*
X9109500Y-15218000D01*
X9069500Y-15940000D02*
X9069500Y-16020000D01*
X9029500Y-15980000D02*
X9109500Y-15980000D01*
X9298500Y-16360000D02*
X9298500Y-16440000D01*
X9258500Y-16400000D02*
X9338500Y-16400000D01*
X9323500Y-15178000D02*
X9323500Y-15258000D01*
X9283500Y-15218000D02*
X9363500Y-15218000D01*
X9323500Y-15940000D02*
X9323500Y-16020000D01*
X9283500Y-15980000D02*
X9363500Y-15980000D01*
X9552500Y-16360000D02*
X9552500Y-16440000D01*
X9512500Y-16400000D02*
X9592500Y-16400000D01*
X9577500Y-15178000D02*
X9577500Y-15258000D01*
X9537500Y-15218000D02*
X9617500Y-15218000D01*
X9577500Y-15940000D02*
X9577500Y-16020000D01*
X9537500Y-15980000D02*
X9617500Y-15980000D01*
X9806500Y-16360000D02*
X9806500Y-16440000D01*
X9766500Y-16400000D02*
X9846500Y-16400000D01*
X9831500Y-15178000D02*
X9831500Y-15258000D01*
X9791500Y-15218000D02*
X9871500Y-15218000D01*
X9831500Y-15940000D02*
X9831500Y-16020000D01*
X9791500Y-15980000D02*
X9871500Y-15980000D01*
X10060500Y-16360000D02*
X10060500Y-16440000D01*
X10020500Y-16400000D02*
X10100500Y-16400000D01*
X10085500Y-15178000D02*
X10085500Y-15258000D01*
X10045500Y-15218000D02*
X10125500Y-15218000D01*
X10085500Y-15940000D02*
X10085500Y-16020000D01*
X10045500Y-15980000D02*
X10125500Y-15980000D01*
X10314500Y-16360000D02*
X10314500Y-16440000D01*
X10274500Y-16400000D02*
X10354500Y-16400000D01*
X10339500Y-15178000D02*
X10339500Y-15258000D01*
X10299500Y-15218000D02*
X10379500Y-15218000D01*
X10339500Y-15940000D02*
X10339500Y-16020000D01*
X10299500Y-15980000D02*
X10379500Y-15980000D01*
X10593500Y-15178000D02*
X10593500Y-15258000D01*
X10553500Y-15218000D02*
X10633500Y-15218000D01*
X10593500Y-15940000D02*
X10593500Y-16020000D01*
X10553500Y-15980000D02*
X10633500Y-15980000D01*
X19875760Y-15372140D02*
X19875760Y-15452140D01*
X19835760Y-15412140D02*
X19915760Y-15412140D01*
X19875760Y-15777140D02*
X19875760Y-15857140D01*
X19835760Y-15817140D02*
X19915760Y-15817140D01*
X19875760Y-16182140D02*
X19875760Y-16262140D01*
X19835760Y-16222140D02*
X19915760Y-16222140D01*
X19875760Y-16587140D02*
X19875760Y-16667140D01*
X19835760Y-16627140D02*
X19915760Y-16627140D01*
X20375760Y-16587140D02*
X20375760Y-16667140D01*
X20335760Y-16627140D02*
X20415760Y-16627140D01*
X20637760Y-15372140D02*
X20637760Y-15452140D01*
X20597760Y-15412140D02*
X20677760Y-15412140D01*
X20637760Y-15777140D02*
X20637760Y-15857140D01*
X20597760Y-15817140D02*
X20677760Y-15817140D01*
X20637760Y-16182140D02*
X20637760Y-16262140D01*
X20597760Y-16222140D02*
X20677760Y-16222140D01*
X22613500Y-16310280D02*
X22613500Y-16390280D01*
X22573500Y-16350280D02*
X22653500Y-16350280D01*
X22618580Y-16836060D02*
X22618580Y-16916060D01*
X22578580Y-16876060D02*
X22658580Y-16876060D01*
X23375500Y-16310280D02*
X23375500Y-16390280D01*
X23335500Y-16350280D02*
X23415500Y-16350280D01*
X23380580Y-16836060D02*
X23380580Y-16916060D01*
X23340580Y-16876060D02*
X23420580Y-16876060D01*
X28684100Y-16132190D02*
X28684100Y-16212190D01*
X28644100Y-16172190D02*
X28724100Y-16172190D01*
X28684100Y-16386190D02*
X28684100Y-16466190D01*
X28644100Y-16426190D02*
X28724100Y-16426190D01*
X28684100Y-16640190D02*
X28684100Y-16720190D01*
X28644100Y-16680190D02*
X28724100Y-16680190D01*
X28684100Y-16894190D02*
X28684100Y-16974190D01*
X28644100Y-16934190D02*
X28724100Y-16934190D01*
X28684100Y-17148190D02*
X28684100Y-17228190D01*
X28644100Y-17188190D02*
X28724100Y-17188190D01*
X28684100Y-17402190D02*
X28684100Y-17482190D01*
X28644100Y-17442190D02*
X28724100Y-17442190D01*
X28684100Y-17656190D02*
X28684100Y-17736190D01*
X28644100Y-17696190D02*
X28724100Y-17696190D01*
X28684100Y-17910190D02*
X28684100Y-17990190D01*
X28644100Y-17950190D02*
X28724100Y-17950190D01*
X28684100Y-18164190D02*
X28684100Y-18244190D01*
X28644100Y-18204190D02*
X28724100Y-18204190D01*
X28684100Y-18418190D02*
X28684100Y-18498190D01*
X28644100Y-18458190D02*
X28724100Y-18458190D01*
X28684100Y-18672190D02*
X28684100Y-18752190D01*
X28644100Y-18712190D02*
X28724100Y-18712190D01*
X28684100Y-18926190D02*
X28684100Y-19006190D01*
X28644100Y-18966190D02*
X28724100Y-18966190D01*
X28684100Y-19180190D02*
X28684100Y-19260190D01*
X28644100Y-19220190D02*
X28724100Y-19220190D01*
X28684100Y-19434190D02*
X28684100Y-19514190D01*
X28644100Y-19474190D02*
X28724100Y-19474190D01*
X28684100Y-19688190D02*
X28684100Y-19768190D01*
X28644100Y-19728190D02*
X28724100Y-19728190D01*
X28684100Y-19942190D02*
X28684100Y-20022190D01*
X28644100Y-19982190D02*
X28724100Y-19982190D01*
X28684100Y-20196190D02*
X28684100Y-20276190D01*
X28644100Y-20236190D02*
X28724100Y-20236190D01*
X28684100Y-20450190D02*
X28684100Y-20530190D01*
X28644100Y-20490190D02*
X28724100Y-20490190D01*
X28684100Y-20704190D02*
X28684100Y-20784190D01*
X28644100Y-20744190D02*
X28724100Y-20744190D01*
X28684100Y-20958190D02*
X28684100Y-21038190D01*
X28644100Y-20998190D02*
X28724100Y-20998190D01*
X28684100Y-21212190D02*
X28684100Y-21292190D01*
X28644100Y-21252190D02*
X28724100Y-21252190D01*
X28684100Y-21466190D02*
X28684100Y-21546190D01*
X28644100Y-21506190D02*
X28724100Y-21506190D01*
X29065100Y-16132190D02*
X29065100Y-16212190D01*
X29025100Y-16172190D02*
X29105100Y-16172190D01*
X29065100Y-16386190D02*
X29065100Y-16466190D01*
X29025100Y-16426190D02*
X29105100Y-16426190D01*
X29065100Y-16640190D02*
X29065100Y-16720190D01*
X29025100Y-16680190D02*
X29105100Y-16680190D01*
X29065100Y-16894190D02*
X29065100Y-16974190D01*
X29025100Y-16934190D02*
X29105100Y-16934190D01*
X29065100Y-17148190D02*
X29065100Y-17228190D01*
X29025100Y-17188190D02*
X29105100Y-17188190D01*
X29065100Y-17402190D02*
X29065100Y-17482190D01*
X29025100Y-17442190D02*
X29105100Y-17442190D01*
X29065100Y-17656190D02*
X29065100Y-17736190D01*
X29025100Y-17696190D02*
X29105100Y-17696190D01*
X29065100Y-17910190D02*
X29065100Y-17990190D01*
X29025100Y-17950190D02*
X29105100Y-17950190D01*
X29065100Y-18164190D02*
X29065100Y-18244190D01*
X29025100Y-18204190D02*
X29105100Y-18204190D01*
X29065100Y-18418190D02*
X29065100Y-18498190D01*
X29025100Y-18458190D02*
X29105100Y-18458190D01*
X29065100Y-18672190D02*
X29065100Y-18752190D01*
X29025100Y-18712190D02*
X29105100Y-18712190D01*
X29065100Y-18926190D02*
X29065100Y-19006190D01*
X29025100Y-18966190D02*
X29105100Y-18966190D01*
X29065100Y-19180190D02*
X29065100Y-19260190D01*
X29025100Y-19220190D02*
X29105100Y-19220190D01*
X29065100Y-19434190D02*
X29065100Y-19514190D01*
X29025100Y-19474190D02*
X29105100Y-19474190D01*
X29065100Y-19688190D02*
X29065100Y-19768190D01*
X29025100Y-19728190D02*
X29105100Y-19728190D01*
X29065100Y-19942190D02*
X29065100Y-20022190D01*
X29025100Y-19982190D02*
X29105100Y-19982190D01*
X29065100Y-20196190D02*
X29065100Y-20276190D01*
X29025100Y-20236190D02*
X29105100Y-20236190D01*
X29065100Y-20450190D02*
X29065100Y-20530190D01*
X29025100Y-20490190D02*
X29105100Y-20490190D01*
X29065100Y-20704190D02*
X29065100Y-20784190D01*
X29025100Y-20744190D02*
X29105100Y-20744190D01*
X29065100Y-20958190D02*
X29065100Y-21038190D01*
X29025100Y-20998190D02*
X29105100Y-20998190D01*
X29065100Y-21212190D02*
X29065100Y-21292190D01*
X29025100Y-21252190D02*
X29105100Y-21252190D01*
X29065100Y-21466190D02*
X29065100Y-21546190D01*
X29025100Y-21506190D02*
X29105100Y-21506190D01*
X30190320Y-22662820D02*
X30190320Y-22742820D01*
X30150320Y-22702820D02*
X30230320Y-22702820D01*
X30952320Y-22662820D02*
X30952320Y-22742820D01*
X30912320Y-22702820D02*
X30992320Y-22702820D01*
X31351100Y-16132190D02*
X31351100Y-16212190D01*
X31311100Y-16172190D02*
X31391100Y-16172190D01*
X31351100Y-16386190D02*
X31351100Y-16466190D01*
X31311100Y-16426190D02*
X31391100Y-16426190D01*
X31351100Y-16640190D02*
X31351100Y-16720190D01*
X31311100Y-16680190D02*
X31391100Y-16680190D01*
X31351100Y-16894190D02*
X31351100Y-16974190D01*
X31311100Y-16934190D02*
X31391100Y-16934190D01*
X31351100Y-17148190D02*
X31351100Y-17228190D01*
X31311100Y-17188190D02*
X31391100Y-17188190D01*
X31351100Y-17402190D02*
X31351100Y-17482190D01*
X31311100Y-17442190D02*
X31391100Y-17442190D01*
X31351100Y-17656190D02*
X31351100Y-17736190D01*
X31311100Y-17696190D02*
X31391100Y-17696190D01*
X31351100Y-17910190D02*
X31351100Y-17990190D01*
X31311100Y-17950190D02*
X31391100Y-17950190D01*
X31351100Y-18164190D02*
X31351100Y-18244190D01*
X31311100Y-18204190D02*
X31391100Y-18204190D01*
X31351100Y-18418190D02*
X31351100Y-18498190D01*
X31311100Y-18458190D02*
X31391100Y-18458190D01*
X31351100Y-18672190D02*
X31351100Y-18752190D01*
X31311100Y-18712190D02*
X31391100Y-18712190D01*
X31351100Y-18926190D02*
X31351100Y-19006190D01*
X31311100Y-18966190D02*
X31391100Y-18966190D01*
X31351100Y-19180190D02*
X31351100Y-19260190D01*
X31311100Y-19220190D02*
X31391100Y-19220190D01*
X31351100Y-19434190D02*
X31351100Y-19514190D01*
X31311100Y-19474190D02*
X31391100Y-19474190D01*
X31351100Y-19688190D02*
X31351100Y-19768190D01*
X31311100Y-19728190D02*
X31391100Y-19728190D01*
X31351100Y-19942190D02*
X31351100Y-20022190D01*
X31311100Y-19982190D02*
X31391100Y-19982190D01*
X31351100Y-20196190D02*
X31351100Y-20276190D01*
X31311100Y-20236190D02*
X31391100Y-20236190D01*
X31351100Y-20450190D02*
X31351100Y-20530190D01*
X31311100Y-20490190D02*
X31391100Y-20490190D01*
X31351100Y-20704190D02*
X31351100Y-20784190D01*
X31311100Y-20744190D02*
X31391100Y-20744190D01*
X31351468Y-20957918D02*
X31351468Y-21037918D01*
X31311468Y-20997918D02*
X31391468Y-20997918D01*
X31351468Y-21211918D02*
X31351468Y-21291918D01*
X31311468Y-21251918D02*
X31391468Y-21251918D01*
X31351468Y-21465918D02*
X31351468Y-21545918D01*
X31311468Y-21505918D02*
X31391468Y-21505918D01*
X5131820Y-15531820D02*
X5131820Y-15468180D01*
X5068180Y-15468180D01*
X5068180Y-15531820D01*
X5131820Y-15531820D01*
X5385820Y-15531820D02*
X5385820Y-15468180D01*
X5322180Y-15468180D01*
X5322180Y-15531820D01*
X5385820Y-15531820D01*
X13124370Y-17464520D02*
X13124370Y-17400880D01*
X13060730Y-17400880D01*
X13060730Y-17464520D01*
X13124370Y-17464520D01*
X13378370Y-17464520D02*
X13378370Y-17400880D01*
X13314730Y-17400880D01*
X13314730Y-17464520D01*
X13378370Y-17464520D01*
X14114960Y-17464520D02*
X14114960Y-17400880D01*
X14051320Y-17400880D01*
X14051320Y-17464520D01*
X14114960Y-17464520D01*
X14368960Y-17464520D02*
X14368960Y-17400880D01*
X14305320Y-17400880D01*
X14305320Y-17464520D01*
X14368960Y-17464520D01*
X15105550Y-17464700D02*
X15105550Y-17401060D01*
X15041910Y-17401060D01*
X15041910Y-17464700D01*
X15105550Y-17464700D01*
X15359550Y-17464700D02*
X15359550Y-17401060D01*
X15295910Y-17401060D01*
X15295910Y-17464700D01*
X15359550Y-17464700D01*
X16096130Y-17464520D02*
X16096130Y-17400880D01*
X16032490Y-17400880D01*
X16032490Y-17464520D01*
X16096130Y-17464520D01*
X16350130Y-17464520D02*
X16350130Y-17400880D01*
X16286490Y-17400880D01*
X16286490Y-17464520D01*
X16350130Y-17464520D01*
X17086720Y-17464520D02*
X17086720Y-17400880D01*
X17023080Y-17400880D01*
X17023080Y-17464520D01*
X17086720Y-17464520D01*
X17340720Y-17464520D02*
X17340720Y-17400880D01*
X17277080Y-17400880D01*
X17277080Y-17464520D01*
X17340720Y-17464520D01*
X18077310Y-17464750D02*
X18077310Y-17401110D01*
X18013670Y-17401110D01*
X18013670Y-17464750D01*
X18077310Y-17464750D01*
X18331310Y-17464750D02*
X18331310Y-17401110D01*
X18267670Y-17401110D01*
X18267670Y-17464750D01*
X18331310Y-17464750D01*
X19067900Y-17464700D02*
X19067900Y-17401060D01*
X19004260Y-17401060D01*
X19004260Y-17464700D01*
X19067900Y-17464700D01*
X19321900Y-17464700D02*
X19321900Y-17401060D01*
X19258260Y-17401060D01*
X19258260Y-17464700D01*
X19321900Y-17464700D01*
X20058480Y-17464520D02*
X20058480Y-17400880D01*
X19994840Y-17400880D01*
X19994840Y-17464520D01*
X20058480Y-17464520D01*
X20312480Y-17464520D02*
X20312480Y-17400880D01*
X20248840Y-17400880D01*
X20248840Y-17464520D01*
X20312480Y-17464520D01*
X22500040Y-15627720D02*
X22500040Y-15564080D01*
X22436400Y-15564080D01*
X22436400Y-15627720D01*
X22500040Y-15627720D01*
X22754040Y-15627720D02*
X22754040Y-15564080D01*
X22690400Y-15564080D01*
X22690400Y-15627720D01*
X22754040Y-15627720D01*
X3893700Y-16649200D02*
X3943700Y-16599200D01*
X3893700Y-16549200D01*
X3843700Y-16599200D01*
X3893700Y-16649200D01*
X3893700Y-16903200D02*
X3943700Y-16853200D01*
X3893700Y-16803200D01*
X3843700Y-16853200D01*
X3893700Y-16903200D01*
X3893700Y-17157200D02*
X3943700Y-17107200D01*
X3893700Y-17057200D01*
X3843700Y-17107200D01*
X3893700Y-17157200D01*
X3893700Y-17411200D02*
X3943700Y-17361200D01*
X3893700Y-17311200D01*
X3843700Y-17361200D01*
X3893700Y-17411200D01*
X3893700Y-17665200D02*
X3943700Y-17615200D01*
X3893700Y-17565200D01*
X3843700Y-17615200D01*
X3893700Y-17665200D01*
X3893700Y-17919200D02*
X3943700Y-17869200D01*
X3893700Y-17819200D01*
X3843700Y-17869200D01*
X3893700Y-17919200D01*
X6138000Y-17390000D02*
X6188000Y-17340000D01*
X6138000Y-17290000D01*
X6088000Y-17340000D01*
X6138000Y-17390000D01*
X6392000Y-17390000D02*
X6442000Y-17340000D01*
X6392000Y-17290000D01*
X6342000Y-17340000D01*
X6392000Y-17390000D01*
X6646000Y-17390000D02*
X6696000Y-17340000D01*
X6646000Y-17290000D01*
X6596000Y-17340000D01*
X6646000Y-17390000D01*
X6900000Y-17390000D02*
X6950000Y-17340000D01*
X6900000Y-17290000D01*
X6850000Y-17340000D01*
X6900000Y-17390000D01*
X8155820Y-19659100D02*
X8205820Y-19609100D01*
X8155820Y-19559100D01*
X8105820Y-19609100D01*
X8155820Y-19659100D01*
X8155820Y-19913100D02*
X8205820Y-19863100D01*
X8155820Y-19813100D01*
X8105820Y-19863100D01*
X8155820Y-19913100D01*
X8155820Y-20167100D02*
X8205820Y-20117100D01*
X8155820Y-20067100D01*
X8105820Y-20117100D01*
X8155820Y-20167100D01*
X8155820Y-20421100D02*
X8205820Y-20371100D01*
X8155820Y-20321100D01*
X8105820Y-20371100D01*
X8155820Y-20421100D01*
X8155820Y-20675100D02*
X8205820Y-20625100D01*
X8155820Y-20575100D01*
X8105820Y-20625100D01*
X8155820Y-20675100D01*
X8155820Y-20929100D02*
X8205820Y-20879100D01*
X8155820Y-20829100D01*
X8105820Y-20879100D01*
X8155820Y-20929100D01*
X8155820Y-21183100D02*
X8205820Y-21133100D01*
X8155820Y-21083100D01*
X8105820Y-21133100D01*
X8155820Y-21183100D01*
X8155820Y-21437100D02*
X8205820Y-21387100D01*
X8155820Y-21337100D01*
X8105820Y-21387100D01*
X8155820Y-21437100D01*
X9700000Y-19205000D02*
X9750000Y-19155000D01*
X9700000Y-19105000D01*
X9650000Y-19155000D01*
X9700000Y-19205000D01*
X9635000Y-19205000D02*
X9765000Y-19205000D01*
X9765000Y-19105000D02*
G75*
G02*
X9765000Y-19205000I0J-50000D01*
G01*
X9765000Y-19105000D02*
X9635000Y-19105000D01*
X9635000Y-19105000D02*
G75*
G03*
X9635000Y-19205000I0J-50000D01*
G01*
X9700000Y-19650000D02*
X9750000Y-19600000D01*
X9700000Y-19550000D01*
X9650000Y-19600000D01*
X9700000Y-19650000D01*
X9635000Y-19650000D02*
X9765000Y-19650000D01*
X9765000Y-19550000D02*
G75*
G02*
X9765000Y-19650000I0J-50000D01*
G01*
X9765000Y-19550000D02*
X9635000Y-19550000D01*
X9635000Y-19550000D02*
G75*
G03*
X9635000Y-19650000I0J-50000D01*
G01*
X9700000Y-20095000D02*
X9750000Y-20045000D01*
X9700000Y-19995000D01*
X9650000Y-20045000D01*
X9700000Y-20095000D01*
X9635000Y-20095000D02*
X9765000Y-20095000D01*
X9765000Y-19995000D02*
G75*
G02*
X9765000Y-20095000I0J-50000D01*
G01*
X9765000Y-19995000D02*
X9635000Y-19995000D01*
X9635000Y-19995000D02*
G75*
G03*
X9635000Y-20095000I0J-50000D01*
G01*
X11368100Y-19205000D02*
X11418100Y-19155000D01*
X11368100Y-19105000D01*
X11318100Y-19155000D01*
X11368100Y-19205000D01*
X11303100Y-19205000D02*
X11433100Y-19205000D01*
X11433100Y-19105000D02*
G75*
G02*
X11433100Y-19205000I0J-50000D01*
G01*
X11433100Y-19105000D02*
X11303100Y-19105000D01*
X11303100Y-19105000D02*
G75*
G03*
X11303100Y-19205000I0J-50000D01*
G01*
X11368100Y-19650000D02*
X11418100Y-19600000D01*
X11368100Y-19550000D01*
X11318100Y-19600000D01*
X11368100Y-19650000D01*
X11303100Y-19650000D02*
X11433100Y-19650000D01*
X11433100Y-19550000D02*
G75*
G02*
X11433100Y-19650000I0J-50000D01*
G01*
X11433100Y-19550000D02*
X11303100Y-19550000D01*
X11303100Y-19550000D02*
G75*
G03*
X11303100Y-19650000I0J-50000D01*
G01*
X11368100Y-20095000D02*
X11418100Y-20045000D01*
X11368100Y-19995000D01*
X11318100Y-20045000D01*
X11368100Y-20095000D01*
X11303100Y-20095000D02*
X11433100Y-20095000D01*
X11433100Y-19995000D02*
G75*
G02*
X11433100Y-20095000I0J-50000D01*
G01*
X11433100Y-19995000D02*
X11303100Y-19995000D01*
X11303100Y-19995000D02*
G75*
G03*
X11303100Y-20095000I0J-50000D01*
G01*
X12837000Y-16190750D02*
X12887000Y-16140750D01*
X12837000Y-16090750D01*
X12787000Y-16140750D01*
X12837000Y-16190750D01*
X12837000Y-16444750D02*
X12887000Y-16394750D01*
X12837000Y-16344750D01*
X12787000Y-16394750D01*
X12837000Y-16444750D01*
X13036200Y-19205000D02*
X13086200Y-19155000D01*
X13036200Y-19105000D01*
X12986200Y-19155000D01*
X13036200Y-19205000D01*
X12971200Y-19205000D02*
X13101200Y-19205000D01*
X13101200Y-19105000D02*
G75*
G02*
X13101200Y-19205000I0J-50000D01*
G01*
X13101200Y-19105000D02*
X12971200Y-19105000D01*
X12971200Y-19105000D02*
G75*
G03*
X12971200Y-19205000I0J-50000D01*
G01*
X13036200Y-19650000D02*
X13086200Y-19600000D01*
X13036200Y-19550000D01*
X12986200Y-19600000D01*
X13036200Y-19650000D01*
X12971200Y-19650000D02*
X13101200Y-19650000D01*
X13101200Y-19550000D02*
G75*
G02*
X13101200Y-19650000I0J-50000D01*
G01*
X13101200Y-19550000D02*
X12971200Y-19550000D01*
X12971200Y-19550000D02*
G75*
G03*
X12971200Y-19650000I0J-50000D01*
G01*
X13036200Y-20095000D02*
X13086200Y-20045000D01*
X13036200Y-19995000D01*
X12986200Y-20045000D01*
X13036200Y-20095000D01*
X12971200Y-20095000D02*
X13101200Y-20095000D01*
X13101200Y-19995000D02*
G75*
G02*
X13101200Y-20095000I0J-50000D01*
G01*
X13101200Y-19995000D02*
X12971200Y-19995000D01*
X12971200Y-19995000D02*
G75*
G03*
X12971200Y-20095000I0J-50000D01*
G01*
X13091000Y-16190750D02*
X13141000Y-16140750D01*
X13091000Y-16090750D01*
X13041000Y-16140750D01*
X13091000Y-16190750D01*
X13091000Y-16444750D02*
X13141000Y-16394750D01*
X13091000Y-16344750D01*
X13041000Y-16394750D01*
X13091000Y-16444750D01*
X13345000Y-16190750D02*
X13395000Y-16140750D01*
X13345000Y-16090750D01*
X13295000Y-16140750D01*
X13345000Y-16190750D01*
X13345000Y-16444750D02*
X13395000Y-16394750D01*
X13345000Y-16344750D01*
X13295000Y-16394750D01*
X13345000Y-16444750D01*
X13599000Y-16190750D02*
X13649000Y-16140750D01*
X13599000Y-16090750D01*
X13549000Y-16140750D01*
X13599000Y-16190750D01*
X13599000Y-16444750D02*
X13649000Y-16394750D01*
X13599000Y-16344750D01*
X13549000Y-16394750D01*
X13599000Y-16444750D01*
X13853000Y-16190750D02*
X13903000Y-16140750D01*
X13853000Y-16090750D01*
X13803000Y-16140750D01*
X13853000Y-16190750D01*
X13853000Y-16444750D02*
X13903000Y-16394750D01*
X13853000Y-16344750D01*
X13803000Y-16394750D01*
X13853000Y-16444750D01*
X14107000Y-16190750D02*
X14157000Y-16140750D01*
X14107000Y-16090750D01*
X14057000Y-16140750D01*
X14107000Y-16190750D01*
X14107000Y-16444750D02*
X14157000Y-16394750D01*
X14107000Y-16344750D01*
X14057000Y-16394750D01*
X14107000Y-16444750D01*
X14361000Y-16190750D02*
X14411000Y-16140750D01*
X14361000Y-16090750D01*
X14311000Y-16140750D01*
X14361000Y-16190750D01*
X14361000Y-16444750D02*
X14411000Y-16394750D01*
X14361000Y-16344750D01*
X14311000Y-16394750D01*
X14361000Y-16444750D01*
X14615000Y-16190750D02*
X14665000Y-16140750D01*
X14615000Y-16090750D01*
X14565000Y-16140750D01*
X14615000Y-16190750D01*
X14615000Y-16444750D02*
X14665000Y-16394750D01*
X14615000Y-16344750D01*
X14565000Y-16394750D01*
X14615000Y-16444750D01*
X14704300Y-19205000D02*
X14754300Y-19155000D01*
X14704300Y-19105000D01*
X14654300Y-19155000D01*
X14704300Y-19205000D01*
X14639300Y-19205000D02*
X14769300Y-19205000D01*
X14769300Y-19105000D02*
G75*
G02*
X14769300Y-19205000I0J-50000D01*
G01*
X14769300Y-19105000D02*
X14639300Y-19105000D01*
X14639300Y-19105000D02*
G75*
G03*
X14639300Y-19205000I0J-50000D01*
G01*
X14704300Y-19650000D02*
X14754300Y-19600000D01*
X14704300Y-19550000D01*
X14654300Y-19600000D01*
X14704300Y-19650000D01*
X14639300Y-19650000D02*
X14769300Y-19650000D01*
X14769300Y-19550000D02*
G75*
G02*
X14769300Y-19650000I0J-50000D01*
G01*
X14769300Y-19550000D02*
X14639300Y-19550000D01*
X14639300Y-19550000D02*
G75*
G03*
X14639300Y-19650000I0J-50000D01*
G01*
X14704300Y-20095000D02*
X14754300Y-20045000D01*
X14704300Y-19995000D01*
X14654300Y-20045000D01*
X14704300Y-20095000D01*
X14639300Y-20095000D02*
X14769300Y-20095000D01*
X14769300Y-19995000D02*
G75*
G02*
X14769300Y-20095000I0J-50000D01*
G01*
X14769300Y-19995000D02*
X14639300Y-19995000D01*
X14639300Y-19995000D02*
G75*
G03*
X14639300Y-20095000I0J-50000D01*
G01*
X14869000Y-16190750D02*
X14919000Y-16140750D01*
X14869000Y-16090750D01*
X14819000Y-16140750D01*
X14869000Y-16190750D01*
X14869000Y-16444750D02*
X14919000Y-16394750D01*
X14869000Y-16344750D01*
X14819000Y-16394750D01*
X14869000Y-16444750D01*
X15123000Y-16190750D02*
X15173000Y-16140750D01*
X15123000Y-16090750D01*
X15073000Y-16140750D01*
X15123000Y-16190750D01*
X15123000Y-16444750D02*
X15173000Y-16394750D01*
X15123000Y-16344750D01*
X15073000Y-16394750D01*
X15123000Y-16444750D01*
X15377000Y-16190750D02*
X15427000Y-16140750D01*
X15377000Y-16090750D01*
X15327000Y-16140750D01*
X15377000Y-16190750D01*
X15377000Y-16444750D02*
X15427000Y-16394750D01*
X15377000Y-16344750D01*
X15327000Y-16394750D01*
X15377000Y-16444750D01*
X15631000Y-16190750D02*
X15681000Y-16140750D01*
X15631000Y-16090750D01*
X15581000Y-16140750D01*
X15631000Y-16190750D01*
X15631000Y-16444750D02*
X15681000Y-16394750D01*
X15631000Y-16344750D01*
X15581000Y-16394750D01*
X15631000Y-16444750D01*
X15885000Y-16190750D02*
X15935000Y-16140750D01*
X15885000Y-16090750D01*
X15835000Y-16140750D01*
X15885000Y-16190750D01*
X15885000Y-16444750D02*
X15935000Y-16394750D01*
X15885000Y-16344750D01*
X15835000Y-16394750D01*
X15885000Y-16444750D01*
X16139000Y-16190750D02*
X16189000Y-16140750D01*
X16139000Y-16090750D01*
X16089000Y-16140750D01*
X16139000Y-16190750D01*
X16139000Y-16444750D02*
X16189000Y-16394750D01*
X16139000Y-16344750D01*
X16089000Y-16394750D01*
X16139000Y-16444750D01*
X16372400Y-19205000D02*
X16422400Y-19155000D01*
X16372400Y-19105000D01*
X16322400Y-19155000D01*
X16372400Y-19205000D01*
X16307400Y-19205000D02*
X16437400Y-19205000D01*
X16437400Y-19105000D02*
G75*
G02*
X16437400Y-19205000I0J-50000D01*
G01*
X16437400Y-19105000D02*
X16307400Y-19105000D01*
X16307400Y-19105000D02*
G75*
G03*
X16307400Y-19205000I0J-50000D01*
G01*
X16372400Y-19650000D02*
X16422400Y-19600000D01*
X16372400Y-19550000D01*
X16322400Y-19600000D01*
X16372400Y-19650000D01*
X16307400Y-19650000D02*
X16437400Y-19650000D01*
X16437400Y-19550000D02*
G75*
G02*
X16437400Y-19650000I0J-50000D01*
G01*
X16437400Y-19550000D02*
X16307400Y-19550000D01*
X16307400Y-19550000D02*
G75*
G03*
X16307400Y-19650000I0J-50000D01*
G01*
X16372400Y-20095000D02*
X16422400Y-20045000D01*
X16372400Y-19995000D01*
X16322400Y-20045000D01*
X16372400Y-20095000D01*
X16307400Y-20095000D02*
X16437400Y-20095000D01*
X16437400Y-19995000D02*
G75*
G02*
X16437400Y-20095000I0J-50000D01*
G01*
X16437400Y-19995000D02*
X16307400Y-19995000D01*
X16307400Y-19995000D02*
G75*
G03*
X16307400Y-20095000I0J-50000D01*
G01*
X16393000Y-16190750D02*
X16443000Y-16140750D01*
X16393000Y-16090750D01*
X16343000Y-16140750D01*
X16393000Y-16190750D01*
X16393000Y-16444750D02*
X16443000Y-16394750D01*
X16393000Y-16344750D01*
X16343000Y-16394750D01*
X16393000Y-16444750D01*
X16647000Y-16190750D02*
X16697000Y-16140750D01*
X16647000Y-16090750D01*
X16597000Y-16140750D01*
X16647000Y-16190750D01*
X16647000Y-16444750D02*
X16697000Y-16394750D01*
X16647000Y-16344750D01*
X16597000Y-16394750D01*
X16647000Y-16444750D01*
X16901000Y-16190750D02*
X16951000Y-16140750D01*
X16901000Y-16090750D01*
X16851000Y-16140750D01*
X16901000Y-16190750D01*
X16901000Y-16444750D02*
X16951000Y-16394750D01*
X16901000Y-16344750D01*
X16851000Y-16394750D01*
X16901000Y-16444750D01*
X17155000Y-16190750D02*
X17205000Y-16140750D01*
X17155000Y-16090750D01*
X17105000Y-16140750D01*
X17155000Y-16190750D01*
X17155000Y-16444750D02*
X17205000Y-16394750D01*
X17155000Y-16344750D01*
X17105000Y-16394750D01*
X17155000Y-16444750D01*
X17409000Y-16190750D02*
X17459000Y-16140750D01*
X17409000Y-16090750D01*
X17359000Y-16140750D01*
X17409000Y-16190750D01*
X17409000Y-16444750D02*
X17459000Y-16394750D01*
X17409000Y-16344750D01*
X17359000Y-16394750D01*
X17409000Y-16444750D01*
X17663000Y-16190750D02*
X17713000Y-16140750D01*
X17663000Y-16090750D01*
X17613000Y-16140750D01*
X17663000Y-16190750D01*
X17663000Y-16444750D02*
X17713000Y-16394750D01*
X17663000Y-16344750D01*
X17613000Y-16394750D01*
X17663000Y-16444750D01*
X18040500Y-19205000D02*
X18090500Y-19155000D01*
X18040500Y-19105000D01*
X17990500Y-19155000D01*
X18040500Y-19205000D01*
X17975500Y-19205000D02*
X18105500Y-19205000D01*
X18105500Y-19105000D02*
G75*
G02*
X18105500Y-19205000I0J-50000D01*
G01*
X18105500Y-19105000D02*
X17975500Y-19105000D01*
X17975500Y-19105000D02*
G75*
G03*
X17975500Y-19205000I0J-50000D01*
G01*
X18040500Y-19650000D02*
X18090500Y-19600000D01*
X18040500Y-19550000D01*
X17990500Y-19600000D01*
X18040500Y-19650000D01*
X17975500Y-19650000D02*
X18105500Y-19650000D01*
X18105500Y-19550000D02*
G75*
G02*
X18105500Y-19650000I0J-50000D01*
G01*
X18105500Y-19550000D02*
X17975500Y-19550000D01*
X17975500Y-19550000D02*
G75*
G03*
X17975500Y-19650000I0J-50000D01*
G01*
X18040500Y-20095000D02*
X18090500Y-20045000D01*
X18040500Y-19995000D01*
X17990500Y-20045000D01*
X18040500Y-20095000D01*
X17975500Y-20095000D02*
X18105500Y-20095000D01*
X18105500Y-19995000D02*
G75*
G02*
X18105500Y-20095000I0J-50000D01*
G01*
X18105500Y-19995000D02*
X17975500Y-19995000D01*
X17975500Y-19995000D02*
G75*
G03*
X17975500Y-20095000I0J-50000D01*
G01*
X19708600Y-19205000D02*
X19758600Y-19155000D01*
X19708600Y-19105000D01*
X19658600Y-19155000D01*
X19708600Y-19205000D01*
X19643600Y-19205000D02*
X19773600Y-19205000D01*
X19773600Y-19105000D02*
G75*
G02*
X19773600Y-19205000I0J-50000D01*
G01*
X19773600Y-19105000D02*
X19643600Y-19105000D01*
X19643600Y-19105000D02*
G75*
G03*
X19643600Y-19205000I0J-50000D01*
G01*
X19708600Y-19650000D02*
X19758600Y-19600000D01*
X19708600Y-19550000D01*
X19658600Y-19600000D01*
X19708600Y-19650000D01*
X19643600Y-19650000D02*
X19773600Y-19650000D01*
X19773600Y-19550000D02*
G75*
G02*
X19773600Y-19650000I0J-50000D01*
G01*
X19773600Y-19550000D02*
X19643600Y-19550000D01*
X19643600Y-19550000D02*
G75*
G03*
X19643600Y-19650000I0J-50000D01*
G01*
X19708600Y-20095000D02*
X19758600Y-20045000D01*
X19708600Y-19995000D01*
X19658600Y-20045000D01*
X19708600Y-20095000D01*
X19643600Y-20095000D02*
X19773600Y-20095000D01*
X19773600Y-19995000D02*
G75*
G02*
X19773600Y-20095000I0J-50000D01*
G01*
X19773600Y-19995000D02*
X19643600Y-19995000D01*
X19643600Y-19995000D02*
G75*
G03*
X19643600Y-20095000I0J-50000D01*
G01*
X21376700Y-19205000D02*
X21426700Y-19155000D01*
X21376700Y-19105000D01*
X21326700Y-19155000D01*
X21376700Y-19205000D01*
X21311700Y-19205000D02*
X21441700Y-19205000D01*
X21441700Y-19105000D02*
G75*
G02*
X21441700Y-19205000I0J-50000D01*
G01*
X21441700Y-19105000D02*
X21311700Y-19105000D01*
X21311700Y-19105000D02*
G75*
G03*
X21311700Y-19205000I0J-50000D01*
G01*
X21376700Y-19650000D02*
X21426700Y-19600000D01*
X21376700Y-19550000D01*
X21326700Y-19600000D01*
X21376700Y-19650000D01*
X21311700Y-19650000D02*
X21441700Y-19650000D01*
X21441700Y-19550000D02*
G75*
G02*
X21441700Y-19650000I0J-50000D01*
G01*
X21441700Y-19550000D02*
X21311700Y-19550000D01*
X21311700Y-19550000D02*
G75*
G03*
X21311700Y-19650000I0J-50000D01*
G01*
X21376700Y-20095000D02*
X21426700Y-20045000D01*
X21376700Y-19995000D01*
X21326700Y-20045000D01*
X21376700Y-20095000D01*
X21311700Y-20095000D02*
X21441700Y-20095000D01*
X21441700Y-19995000D02*
G75*
G02*
X21441700Y-20095000I0J-50000D01*
G01*
X21441700Y-19995000D02*
X21311700Y-19995000D01*
X21311700Y-19995000D02*
G75*
G03*
X21311700Y-20095000I0J-50000D01*
G01*
X23044800Y-19205000D02*
X23094800Y-19155000D01*
X23044800Y-19105000D01*
X22994800Y-19155000D01*
X23044800Y-19205000D01*
X22979800Y-19205000D02*
X23109800Y-19205000D01*
X23109800Y-19105000D02*
G75*
G02*
X23109800Y-19205000I0J-50000D01*
G01*
X23109800Y-19105000D02*
X22979800Y-19105000D01*
X22979800Y-19105000D02*
G75*
G03*
X22979800Y-19205000I0J-50000D01*
G01*
X23044800Y-19650000D02*
X23094800Y-19600000D01*
X23044800Y-19550000D01*
X22994800Y-19600000D01*
X23044800Y-19650000D01*
X22979800Y-19650000D02*
X23109800Y-19650000D01*
X23109800Y-19550000D02*
G75*
G02*
X23109800Y-19650000I0J-50000D01*
G01*
X23109800Y-19550000D02*
X22979800Y-19550000D01*
X22979800Y-19550000D02*
G75*
G03*
X22979800Y-19650000I0J-50000D01*
G01*
X23044800Y-20095000D02*
X23094800Y-20045000D01*
X23044800Y-19995000D01*
X22994800Y-20045000D01*
X23044800Y-20095000D01*
X22979800Y-20095000D02*
X23109800Y-20095000D01*
X23109800Y-19995000D02*
G75*
G02*
X23109800Y-20095000I0J-50000D01*
G01*
X23109800Y-19995000D02*
X22979800Y-19995000D01*
X22979800Y-19995000D02*
G75*
G03*
X22979800Y-20095000I0J-50000D01*
G01*
X23365340Y-15508740D02*
X23415340Y-15458740D01*
X23365340Y-15408740D01*
X23315340Y-15458740D01*
X23365340Y-15508740D01*
X23365340Y-15762740D02*
X23415340Y-15712740D01*
X23365340Y-15662740D01*
X23315340Y-15712740D01*
X23365340Y-15762740D01*
X23619340Y-15508740D02*
X23669340Y-15458740D01*
X23619340Y-15408740D01*
X23569340Y-15458740D01*
X23619340Y-15508740D01*
X23619340Y-15762740D02*
X23669340Y-15712740D01*
X23619340Y-15662740D01*
X23569340Y-15712740D01*
X23619340Y-15762740D01*
X23873340Y-15508740D02*
X23923340Y-15458740D01*
X23873340Y-15408740D01*
X23823340Y-15458740D01*
X23873340Y-15508740D01*
X23873340Y-15762740D02*
X23923340Y-15712740D01*
X23873340Y-15662740D01*
X23823340Y-15712740D01*
X23873340Y-15762740D01*
X24127340Y-15508740D02*
X24177340Y-15458740D01*
X24127340Y-15408740D01*
X24077340Y-15458740D01*
X24127340Y-15508740D01*
X24127340Y-15762740D02*
X24177340Y-15712740D01*
X24127340Y-15662740D01*
X24077340Y-15712740D01*
X24127340Y-15762740D01*
X24712900Y-19205000D02*
X24762900Y-19155000D01*
X24712900Y-19105000D01*
X24662900Y-19155000D01*
X24712900Y-19205000D01*
X24647900Y-19205000D02*
X24777900Y-19205000D01*
X24777900Y-19105000D02*
G75*
G02*
X24777900Y-19205000I0J-50000D01*
G01*
X24777900Y-19105000D02*
X24647900Y-19105000D01*
X24647900Y-19105000D02*
G75*
G03*
X24647900Y-19205000I0J-50000D01*
G01*
X24712900Y-19650000D02*
X24762900Y-19600000D01*
X24712900Y-19550000D01*
X24662900Y-19600000D01*
X24712900Y-19650000D01*
X24647900Y-19650000D02*
X24777900Y-19650000D01*
X24777900Y-19550000D02*
G75*
G02*
X24777900Y-19650000I0J-50000D01*
G01*
X24777900Y-19550000D02*
X24647900Y-19550000D01*
X24647900Y-19550000D02*
G75*
G03*
X24647900Y-19650000I0J-50000D01*
G01*
X24712900Y-20095000D02*
X24762900Y-20045000D01*
X24712900Y-19995000D01*
X24662900Y-20045000D01*
X24712900Y-20095000D01*
X24647900Y-20095000D02*
X24777900Y-20095000D01*
X24777900Y-19995000D02*
G75*
G02*
X24777900Y-20095000I0J-50000D01*
G01*
X24777900Y-19995000D02*
X24647900Y-19995000D01*
X24647900Y-19995000D02*
G75*
G03*
X24647900Y-20095000I0J-50000D01*
G01*
X25365540Y-17091160D02*
X25415540Y-17041160D01*
X25365540Y-16991160D01*
X25315540Y-17041160D01*
X25365540Y-17091160D01*
X25365540Y-17345160D02*
X25415540Y-17295160D01*
X25365540Y-17245160D01*
X25315540Y-17295160D01*
X25365540Y-17345160D01*
X25365540Y-17599160D02*
X25415540Y-17549160D01*
X25365540Y-17499160D01*
X25315540Y-17549160D01*
X25365540Y-17599160D01*
X25365540Y-17853160D02*
X25415540Y-17803160D01*
X25365540Y-17753160D01*
X25315540Y-17803160D01*
X25365540Y-17853160D01*
X25365540Y-18107160D02*
X25415540Y-18057160D01*
X25365540Y-18007160D01*
X25315540Y-18057160D01*
X25365540Y-18107160D01*
X25365540Y-18357160D02*
X25415540Y-18307160D01*
X25365540Y-18257160D01*
X25315540Y-18307160D01*
X25365540Y-18357160D01*
X26381000Y-19205000D02*
X26431000Y-19155000D01*
X26381000Y-19105000D01*
X26331000Y-19155000D01*
X26381000Y-19205000D01*
X26316000Y-19205000D02*
X26446000Y-19205000D01*
X26446000Y-19105000D02*
G75*
G02*
X26446000Y-19205000I0J-50000D01*
G01*
X26446000Y-19105000D02*
X26316000Y-19105000D01*
X26316000Y-19105000D02*
G75*
G03*
X26316000Y-19205000I0J-50000D01*
G01*
X26381000Y-19650000D02*
X26431000Y-19600000D01*
X26381000Y-19550000D01*
X26331000Y-19600000D01*
X26381000Y-19650000D01*
X26316000Y-19650000D02*
X26446000Y-19650000D01*
X26446000Y-19550000D02*
G75*
G02*
X26446000Y-19650000I0J-50000D01*
G01*
X26446000Y-19550000D02*
X26316000Y-19550000D01*
X26316000Y-19550000D02*
G75*
G03*
X26316000Y-19650000I0J-50000D01*
G01*
X26381000Y-20095000D02*
X26431000Y-20045000D01*
X26381000Y-19995000D01*
X26331000Y-20045000D01*
X26381000Y-20095000D01*
X26316000Y-20095000D02*
X26446000Y-20095000D01*
X26446000Y-19995000D02*
G75*
G02*
X26446000Y-20095000I0J-50000D01*
G01*
X26446000Y-19995000D02*
X26316000Y-19995000D01*
X26316000Y-19995000D02*
G75*
G03*
X26316000Y-20095000I0J-50000D01*
G01*
X26385540Y-17087160D02*
X26435540Y-17037160D01*
X26385540Y-16987160D01*
X26335540Y-17037160D01*
X26385540Y-17087160D01*
X26385540Y-17341160D02*
X26435540Y-17291160D01*
X26385540Y-17241160D01*
X26335540Y-17291160D01*
X26385540Y-17341160D01*
X26385540Y-17595160D02*
X26435540Y-17545160D01*
X26385540Y-17495160D01*
X26335540Y-17545160D01*
X26385540Y-17595160D01*
X26385540Y-17849160D02*
X26435540Y-17799160D01*
X26385540Y-17749160D01*
X26335540Y-17799160D01*
X26385540Y-17849160D01*
X26385540Y-18103160D02*
X26435540Y-18053160D01*
X26385540Y-18003160D01*
X26335540Y-18053160D01*
X26385540Y-18103160D01*
X26385540Y-18357160D02*
X26435540Y-18307160D01*
X26385540Y-18257160D01*
X26335540Y-18307160D01*
X26385540Y-18357160D01*
X27006000Y-17088890D02*
X27056000Y-17038890D01*
X27006000Y-16988890D01*
X26956000Y-17038890D01*
X27006000Y-17088890D01*
X27006000Y-17342890D02*
X27056000Y-17292890D01*
X27006000Y-17242890D01*
X26956000Y-17292890D01*
X27006000Y-17342890D01*
X27006000Y-17596890D02*
X27056000Y-17546890D01*
X27006000Y-17496890D01*
X26956000Y-17546890D01*
X27006000Y-17596890D01*
X27006000Y-17850890D02*
X27056000Y-17800890D01*
X27006000Y-17750890D01*
X26956000Y-17800890D01*
X27006000Y-17850890D01*
X27006000Y-18104890D02*
X27056000Y-18054890D01*
X27006000Y-18004890D01*
X26956000Y-18054890D01*
X27006000Y-18104890D01*
X27006000Y-18354890D02*
X27056000Y-18304890D01*
X27006000Y-18254890D01*
X26956000Y-18304890D01*
X27006000Y-18354890D01*
X28026000Y-17084890D02*
X28076000Y-17034890D01*
X28026000Y-16984890D01*
X27976000Y-17034890D01*
X28026000Y-17084890D01*
X28026000Y-17338890D02*
X28076000Y-17288890D01*
X28026000Y-17238890D01*
X27976000Y-17288890D01*
X28026000Y-17338890D01*
X28026000Y-17592890D02*
X28076000Y-17542890D01*
X28026000Y-17492890D01*
X27976000Y-17542890D01*
X28026000Y-17592890D01*
X28026000Y-17846890D02*
X28076000Y-17796890D01*
X28026000Y-17746890D01*
X27976000Y-17796890D01*
X28026000Y-17846890D01*
X28026000Y-18100890D02*
X28076000Y-18050890D01*
X28026000Y-18000890D01*
X27976000Y-18050890D01*
X28026000Y-18100890D01*
X28026000Y-18354890D02*
X28076000Y-18304890D01*
X28026000Y-18254890D01*
X27976000Y-18304890D01*
X28026000Y-18354890D01*
X28496140Y-22770600D02*
X28546140Y-22720600D01*
X28496140Y-22670600D01*
X28446140Y-22720600D01*
X28496140Y-22770600D01*
X28750140Y-22770600D02*
X28800140Y-22720600D01*
X28750140Y-22670600D01*
X28700140Y-22720600D01*
X28750140Y-22770600D01*
X29004140Y-22770600D02*
X29054140Y-22720600D01*
X29004140Y-22670600D01*
X28954140Y-22720600D01*
X29004140Y-22770600D01*
X29258140Y-22770600D02*
X29308140Y-22720600D01*
X29258140Y-22670600D01*
X29208140Y-22720600D01*
X29258140Y-22770600D01*
X29512140Y-22770600D02*
X29562140Y-22720600D01*
X29512140Y-22670600D01*
X29462140Y-22720600D01*
X29512140Y-22770600D01*
X29766140Y-22770600D02*
X29816140Y-22720600D01*
X29766140Y-22670600D01*
X29716140Y-22720600D01*
X29766140Y-22770600D01*
D13*
X21248100Y-15967200D02*
X21358100Y-16077200D01*
X21358100Y-15967200D02*
X21248100Y-16077200D01*
X21358100Y-16022200D02*
G75*
G02*
X21248100Y-16022200I-55000J0D01*
G01*
X21248100Y-16022200D02*
G75*
G02*
X21358100Y-16022200I55000J0D01*
G01*
X21248100Y-16417200D02*
X21358100Y-16527200D01*
X21358100Y-16417200D02*
X21248100Y-16527200D01*
X21358100Y-16472200D02*
G75*
G02*
X21248100Y-16472200I-55000J0D01*
G01*
X21248100Y-16472200D02*
G75*
G02*
X21358100Y-16472200I55000J0D01*
G01*
X21898100Y-15967200D02*
X22008100Y-16077200D01*
X22008100Y-15967200D02*
X21898100Y-16077200D01*
X22008100Y-16022200D02*
G75*
G02*
X21898100Y-16022200I-55000J0D01*
G01*
X21898100Y-16022200D02*
G75*
G02*
X22008100Y-16022200I55000J0D01*
G01*
X21898100Y-16417200D02*
X22008100Y-16527200D01*
X22008100Y-16417200D02*
X21898100Y-16527200D01*
X22008100Y-16472200D02*
G75*
G02*
X21898100Y-16472200I-55000J0D01*
G01*
X21898100Y-16472200D02*
G75*
G02*
X22008100Y-16472200I55000J0D01*
G01*
D14*
X3840000Y-15340000D02*
X4160000Y-15660000D01*
X4160000Y-15340000D02*
X3840000Y-15660000D01*
X4000000Y-15340000D02*
X4000000Y-15660000D01*
X3840000Y-15500000D02*
X4160000Y-15500000D01*
X3840000Y-22340000D02*
X4160000Y-22660000D01*
X4160000Y-22340000D02*
X3840000Y-22660000D01*
X4000000Y-22340000D02*
X4000000Y-22660000D01*
X3840000Y-22500000D02*
X4160000Y-22500000D01*
X32340000Y-15340000D02*
X32660000Y-15660000D01*
X32660000Y-15340000D02*
X32340000Y-15660000D01*
X32500000Y-15340000D02*
X32500000Y-15660000D01*
X32340000Y-15500000D02*
X32660000Y-15500000D01*
X32340000Y-22340000D02*
X32660000Y-22660000D01*
X32660000Y-22340000D02*
X32340000Y-22660000D01*
X32500000Y-22340000D02*
X32500000Y-22660000D01*
X32340000Y-22500000D02*
X32660000Y-22500000D01*
D11*
X3758277Y-23313984D02*
X3758277Y-23113984D01*
X3758277Y-23113984D02*
X3805896Y-23113984D01*
X3805896Y-23113984D02*
X3834467Y-23123508D01*
X3834467Y-23123508D02*
X3853515Y-23142555D01*
X3853515Y-23142555D02*
X3863039Y-23161603D01*
X3863039Y-23161603D02*
X3872562Y-23199698D01*
X3872562Y-23199698D02*
X3872562Y-23228269D01*
X3872562Y-23228269D02*
X3863039Y-23266365D01*
X3863039Y-23266365D02*
X3853515Y-23285412D01*
X3853515Y-23285412D02*
X3834467Y-23304460D01*
X3834467Y-23304460D02*
X3805896Y-23313984D01*
X3805896Y-23313984D02*
X3758277Y-23313984D01*
X3958277Y-23313984D02*
X3958277Y-23180650D01*
X3958277Y-23218746D02*
X3967801Y-23199698D01*
X3967801Y-23199698D02*
X3977324Y-23190174D01*
X3977324Y-23190174D02*
X3996372Y-23180650D01*
X3996372Y-23180650D02*
X4015420Y-23180650D01*
X4082086Y-23313984D02*
X4082086Y-23180650D01*
X4082086Y-23113984D02*
X4072562Y-23123508D01*
X4072562Y-23123508D02*
X4082086Y-23133031D01*
X4082086Y-23133031D02*
X4091610Y-23123508D01*
X4091610Y-23123508D02*
X4082086Y-23113984D01*
X4082086Y-23113984D02*
X4082086Y-23133031D01*
X4205896Y-23313984D02*
X4186848Y-23304460D01*
X4186848Y-23304460D02*
X4177324Y-23285412D01*
X4177324Y-23285412D02*
X4177324Y-23113984D01*
X4310658Y-23313984D02*
X4291610Y-23304460D01*
X4291610Y-23304460D02*
X4282086Y-23285412D01*
X4282086Y-23285412D02*
X4282086Y-23113984D01*
X4539229Y-23313984D02*
X4539229Y-23113984D01*
X4539229Y-23113984D02*
X4605896Y-23256841D01*
X4605896Y-23256841D02*
X4672563Y-23113984D01*
X4672563Y-23113984D02*
X4672563Y-23313984D01*
X4853515Y-23313984D02*
X4853515Y-23209222D01*
X4853515Y-23209222D02*
X4843991Y-23190174D01*
X4843991Y-23190174D02*
X4824944Y-23180650D01*
X4824944Y-23180650D02*
X4786848Y-23180650D01*
X4786848Y-23180650D02*
X4767801Y-23190174D01*
X4853515Y-23304460D02*
X4834467Y-23313984D01*
X4834467Y-23313984D02*
X4786848Y-23313984D01*
X4786848Y-23313984D02*
X4767801Y-23304460D01*
X4767801Y-23304460D02*
X4758277Y-23285412D01*
X4758277Y-23285412D02*
X4758277Y-23266365D01*
X4758277Y-23266365D02*
X4767801Y-23247317D01*
X4767801Y-23247317D02*
X4786848Y-23237793D01*
X4786848Y-23237793D02*
X4834467Y-23237793D01*
X4834467Y-23237793D02*
X4853515Y-23228269D01*
X4948753Y-23180650D02*
X4948753Y-23380650D01*
X4948753Y-23190174D02*
X4967801Y-23180650D01*
X4967801Y-23180650D02*
X5005896Y-23180650D01*
X5005896Y-23180650D02*
X5024944Y-23190174D01*
X5024944Y-23190174D02*
X5034467Y-23199698D01*
X5034467Y-23199698D02*
X5043991Y-23218746D01*
X5043991Y-23218746D02*
X5043991Y-23275888D01*
X5043991Y-23275888D02*
X5034467Y-23294936D01*
X5034467Y-23294936D02*
X5024944Y-23304460D01*
X5024944Y-23304460D02*
X5005896Y-23313984D01*
X5005896Y-23313984D02*
X4967801Y-23313984D01*
X4967801Y-23313984D02*
X4948753Y-23304460D01*
X5129705Y-23294936D02*
X5139229Y-23304460D01*
X5139229Y-23304460D02*
X5129705Y-23313984D01*
X5129705Y-23313984D02*
X5120182Y-23304460D01*
X5120182Y-23304460D02*
X5129705Y-23294936D01*
X5129705Y-23294936D02*
X5129705Y-23313984D01*
X5129705Y-23190174D02*
X5139229Y-23199698D01*
X5139229Y-23199698D02*
X5129705Y-23209222D01*
X5129705Y-23209222D02*
X5120182Y-23199698D01*
X5120182Y-23199698D02*
X5129705Y-23190174D01*
X5129705Y-23190174D02*
X5129705Y-23209222D01*
D12*
X3457500Y-23622500D02*
X3497500Y-23662500D01*
X3497500Y-23622500D02*
X3457500Y-23662500D01*
D11*
X3796372Y-23533984D02*
X3815420Y-23533984D01*
X3815420Y-23533984D02*
X3834467Y-23543508D01*
X3834467Y-23543508D02*
X3843991Y-23553031D01*
X3843991Y-23553031D02*
X3853515Y-23572079D01*
X3853515Y-23572079D02*
X3863039Y-23610174D01*
X3863039Y-23610174D02*
X3863039Y-23657793D01*
X3863039Y-23657793D02*
X3853515Y-23695888D01*
X3853515Y-23695888D02*
X3843991Y-23714936D01*
X3843991Y-23714936D02*
X3834467Y-23724460D01*
X3834467Y-23724460D02*
X3815420Y-23733984D01*
X3815420Y-23733984D02*
X3796372Y-23733984D01*
X3796372Y-23733984D02*
X3777324Y-23724460D01*
X3777324Y-23724460D02*
X3767801Y-23714936D01*
X3767801Y-23714936D02*
X3758277Y-23695888D01*
X3758277Y-23695888D02*
X3748753Y-23657793D01*
X3748753Y-23657793D02*
X3748753Y-23610174D01*
X3748753Y-23610174D02*
X3758277Y-23572079D01*
X3758277Y-23572079D02*
X3767801Y-23553031D01*
X3767801Y-23553031D02*
X3777324Y-23543508D01*
X3777324Y-23543508D02*
X3796372Y-23533984D01*
X3948753Y-23714936D02*
X3958277Y-23724460D01*
X3958277Y-23724460D02*
X3948753Y-23733984D01*
X3948753Y-23733984D02*
X3939229Y-23724460D01*
X3939229Y-23724460D02*
X3948753Y-23714936D01*
X3948753Y-23714936D02*
X3948753Y-23733984D01*
X4129705Y-23600650D02*
X4129705Y-23733984D01*
X4082086Y-23524460D02*
X4034467Y-23667317D01*
X4034467Y-23667317D02*
X4158277Y-23667317D01*
X4272563Y-23533984D02*
X4291610Y-23533984D01*
X4291610Y-23533984D02*
X4310658Y-23543508D01*
X4310658Y-23543508D02*
X4320182Y-23553031D01*
X4320182Y-23553031D02*
X4329705Y-23572079D01*
X4329705Y-23572079D02*
X4339229Y-23610174D01*
X4339229Y-23610174D02*
X4339229Y-23657793D01*
X4339229Y-23657793D02*
X4329705Y-23695888D01*
X4329705Y-23695888D02*
X4320182Y-23714936D01*
X4320182Y-23714936D02*
X4310658Y-23724460D01*
X4310658Y-23724460D02*
X4291610Y-23733984D01*
X4291610Y-23733984D02*
X4272563Y-23733984D01*
X4272563Y-23733984D02*
X4253515Y-23724460D01*
X4253515Y-23724460D02*
X4243991Y-23714936D01*
X4243991Y-23714936D02*
X4234467Y-23695888D01*
X4234467Y-23695888D02*
X4224944Y-23657793D01*
X4224944Y-23657793D02*
X4224944Y-23610174D01*
X4224944Y-23610174D02*
X4234467Y-23572079D01*
X4234467Y-23572079D02*
X4243991Y-23553031D01*
X4243991Y-23553031D02*
X4253515Y-23543508D01*
X4253515Y-23543508D02*
X4272563Y-23533984D01*
X4463039Y-23533984D02*
X4482086Y-23533984D01*
X4482086Y-23533984D02*
X4501134Y-23543508D01*
X4501134Y-23543508D02*
X4510658Y-23553031D01*
X4510658Y-23553031D02*
X4520182Y-23572079D01*
X4520182Y-23572079D02*
X4529705Y-23610174D01*
X4529705Y-23610174D02*
X4529705Y-23657793D01*
X4529705Y-23657793D02*
X4520182Y-23695888D01*
X4520182Y-23695888D02*
X4510658Y-23714936D01*
X4510658Y-23714936D02*
X4501134Y-23724460D01*
X4501134Y-23724460D02*
X4482086Y-23733984D01*
X4482086Y-23733984D02*
X4463039Y-23733984D01*
X4463039Y-23733984D02*
X4443991Y-23724460D01*
X4443991Y-23724460D02*
X4434467Y-23714936D01*
X4434467Y-23714936D02*
X4424944Y-23695888D01*
X4424944Y-23695888D02*
X4415420Y-23657793D01*
X4415420Y-23657793D02*
X4415420Y-23610174D01*
X4415420Y-23610174D02*
X4424944Y-23572079D01*
X4424944Y-23572079D02*
X4434467Y-23553031D01*
X4434467Y-23553031D02*
X4443991Y-23543508D01*
X4443991Y-23543508D02*
X4463039Y-23533984D01*
X4615420Y-23733984D02*
X4615420Y-23600650D01*
X4615420Y-23619698D02*
X4624944Y-23610174D01*
X4624944Y-23610174D02*
X4643991Y-23600650D01*
X4643991Y-23600650D02*
X4672563Y-23600650D01*
X4672563Y-23600650D02*
X4691610Y-23610174D01*
X4691610Y-23610174D02*
X4701134Y-23629222D01*
X4701134Y-23629222D02*
X4701134Y-23733984D01*
X4701134Y-23629222D02*
X4710658Y-23610174D01*
X4710658Y-23610174D02*
X4729705Y-23600650D01*
X4729705Y-23600650D02*
X4758277Y-23600650D01*
X4758277Y-23600650D02*
X4777325Y-23610174D01*
X4777325Y-23610174D02*
X4786848Y-23629222D01*
X4786848Y-23629222D02*
X4786848Y-23733984D01*
X4882086Y-23733984D02*
X4882086Y-23600650D01*
X4882086Y-23619698D02*
X4891610Y-23610174D01*
X4891610Y-23610174D02*
X4910658Y-23600650D01*
X4910658Y-23600650D02*
X4939229Y-23600650D01*
X4939229Y-23600650D02*
X4958277Y-23610174D01*
X4958277Y-23610174D02*
X4967801Y-23629222D01*
X4967801Y-23629222D02*
X4967801Y-23733984D01*
X4967801Y-23629222D02*
X4977325Y-23610174D01*
X4977325Y-23610174D02*
X4996372Y-23600650D01*
X4996372Y-23600650D02*
X5024944Y-23600650D01*
X5024944Y-23600650D02*
X5043991Y-23610174D01*
X5043991Y-23610174D02*
X5053515Y-23629222D01*
X5053515Y-23629222D02*
X5053515Y-23733984D01*
X5443991Y-23524460D02*
X5272563Y-23781603D01*
X5701134Y-23533984D02*
X5720182Y-23533984D01*
X5720182Y-23533984D02*
X5739229Y-23543508D01*
X5739229Y-23543508D02*
X5748753Y-23553031D01*
X5748753Y-23553031D02*
X5758277Y-23572079D01*
X5758277Y-23572079D02*
X5767801Y-23610174D01*
X5767801Y-23610174D02*
X5767801Y-23657793D01*
X5767801Y-23657793D02*
X5758277Y-23695888D01*
X5758277Y-23695888D02*
X5748753Y-23714936D01*
X5748753Y-23714936D02*
X5739229Y-23724460D01*
X5739229Y-23724460D02*
X5720182Y-23733984D01*
X5720182Y-23733984D02*
X5701134Y-23733984D01*
X5701134Y-23733984D02*
X5682086Y-23724460D01*
X5682086Y-23724460D02*
X5672563Y-23714936D01*
X5672563Y-23714936D02*
X5663039Y-23695888D01*
X5663039Y-23695888D02*
X5653515Y-23657793D01*
X5653515Y-23657793D02*
X5653515Y-23610174D01*
X5653515Y-23610174D02*
X5663039Y-23572079D01*
X5663039Y-23572079D02*
X5672563Y-23553031D01*
X5672563Y-23553031D02*
X5682086Y-23543508D01*
X5682086Y-23543508D02*
X5701134Y-23533984D01*
X5853515Y-23714936D02*
X5863039Y-23724460D01*
X5863039Y-23724460D02*
X5853515Y-23733984D01*
X5853515Y-23733984D02*
X5843991Y-23724460D01*
X5843991Y-23724460D02*
X5853515Y-23714936D01*
X5853515Y-23714936D02*
X5853515Y-23733984D01*
X5986848Y-23533984D02*
X6005896Y-23533984D01*
X6005896Y-23533984D02*
X6024944Y-23543508D01*
X6024944Y-23543508D02*
X6034467Y-23553031D01*
X6034467Y-23553031D02*
X6043991Y-23572079D01*
X6043991Y-23572079D02*
X6053515Y-23610174D01*
X6053515Y-23610174D02*
X6053515Y-23657793D01*
X6053515Y-23657793D02*
X6043991Y-23695888D01*
X6043991Y-23695888D02*
X6034467Y-23714936D01*
X6034467Y-23714936D02*
X6024944Y-23724460D01*
X6024944Y-23724460D02*
X6005896Y-23733984D01*
X6005896Y-23733984D02*
X5986848Y-23733984D01*
X5986848Y-23733984D02*
X5967801Y-23724460D01*
X5967801Y-23724460D02*
X5958277Y-23714936D01*
X5958277Y-23714936D02*
X5948753Y-23695888D01*
X5948753Y-23695888D02*
X5939229Y-23657793D01*
X5939229Y-23657793D02*
X5939229Y-23610174D01*
X5939229Y-23610174D02*
X5948753Y-23572079D01*
X5948753Y-23572079D02*
X5958277Y-23553031D01*
X5958277Y-23553031D02*
X5967801Y-23543508D01*
X5967801Y-23543508D02*
X5986848Y-23533984D01*
X6243991Y-23733984D02*
X6129706Y-23733984D01*
X6186848Y-23733984D02*
X6186848Y-23533984D01*
X6186848Y-23533984D02*
X6167801Y-23562555D01*
X6167801Y-23562555D02*
X6148753Y-23581603D01*
X6148753Y-23581603D02*
X6129706Y-23591127D01*
X6424944Y-23533984D02*
X6329706Y-23533984D01*
X6329706Y-23533984D02*
X6320182Y-23629222D01*
X6320182Y-23629222D02*
X6329706Y-23619698D01*
X6329706Y-23619698D02*
X6348753Y-23610174D01*
X6348753Y-23610174D02*
X6396372Y-23610174D01*
X6396372Y-23610174D02*
X6415420Y-23619698D01*
X6415420Y-23619698D02*
X6424944Y-23629222D01*
X6424944Y-23629222D02*
X6434467Y-23648269D01*
X6434467Y-23648269D02*
X6434467Y-23695888D01*
X6434467Y-23695888D02*
X6424944Y-23714936D01*
X6424944Y-23714936D02*
X6415420Y-23724460D01*
X6415420Y-23724460D02*
X6396372Y-23733984D01*
X6396372Y-23733984D02*
X6348753Y-23733984D01*
X6348753Y-23733984D02*
X6329706Y-23724460D01*
X6329706Y-23724460D02*
X6320182Y-23714936D01*
X6501134Y-23533984D02*
X6634467Y-23533984D01*
X6634467Y-23533984D02*
X6548753Y-23733984D01*
X6701134Y-23533984D02*
X6701134Y-23572079D01*
X6777325Y-23533984D02*
X6777325Y-23572079D01*
X7072563Y-23810174D02*
X7063039Y-23800650D01*
X7063039Y-23800650D02*
X7043991Y-23772079D01*
X7043991Y-23772079D02*
X7034468Y-23753031D01*
X7034468Y-23753031D02*
X7024944Y-23724460D01*
X7024944Y-23724460D02*
X7015420Y-23676841D01*
X7015420Y-23676841D02*
X7015420Y-23638746D01*
X7015420Y-23638746D02*
X7024944Y-23591127D01*
X7024944Y-23591127D02*
X7034468Y-23562555D01*
X7034468Y-23562555D02*
X7043991Y-23543508D01*
X7043991Y-23543508D02*
X7063039Y-23514936D01*
X7063039Y-23514936D02*
X7072563Y-23505412D01*
X7129706Y-23533984D02*
X7253515Y-23533984D01*
X7253515Y-23533984D02*
X7186848Y-23610174D01*
X7186848Y-23610174D02*
X7215420Y-23610174D01*
X7215420Y-23610174D02*
X7234468Y-23619698D01*
X7234468Y-23619698D02*
X7243991Y-23629222D01*
X7243991Y-23629222D02*
X7253515Y-23648269D01*
X7253515Y-23648269D02*
X7253515Y-23695888D01*
X7253515Y-23695888D02*
X7243991Y-23714936D01*
X7243991Y-23714936D02*
X7234468Y-23724460D01*
X7234468Y-23724460D02*
X7215420Y-23733984D01*
X7215420Y-23733984D02*
X7158277Y-23733984D01*
X7158277Y-23733984D02*
X7139229Y-23724460D01*
X7139229Y-23724460D02*
X7129706Y-23714936D01*
X7320182Y-23533984D02*
X7443991Y-23533984D01*
X7443991Y-23533984D02*
X7377325Y-23610174D01*
X7377325Y-23610174D02*
X7405896Y-23610174D01*
X7405896Y-23610174D02*
X7424944Y-23619698D01*
X7424944Y-23619698D02*
X7434468Y-23629222D01*
X7434468Y-23629222D02*
X7443991Y-23648269D01*
X7443991Y-23648269D02*
X7443991Y-23695888D01*
X7443991Y-23695888D02*
X7434468Y-23714936D01*
X7434468Y-23714936D02*
X7424944Y-23724460D01*
X7424944Y-23724460D02*
X7405896Y-23733984D01*
X7405896Y-23733984D02*
X7348753Y-23733984D01*
X7348753Y-23733984D02*
X7329706Y-23724460D01*
X7329706Y-23724460D02*
X7320182Y-23714936D01*
X7682087Y-23733984D02*
X7682087Y-23533984D01*
X7767801Y-23733984D02*
X7767801Y-23629222D01*
X7767801Y-23629222D02*
X7758277Y-23610174D01*
X7758277Y-23610174D02*
X7739230Y-23600650D01*
X7739230Y-23600650D02*
X7710658Y-23600650D01*
X7710658Y-23600650D02*
X7691610Y-23610174D01*
X7691610Y-23610174D02*
X7682087Y-23619698D01*
X7891610Y-23733984D02*
X7872563Y-23724460D01*
X7872563Y-23724460D02*
X7863039Y-23714936D01*
X7863039Y-23714936D02*
X7853515Y-23695888D01*
X7853515Y-23695888D02*
X7853515Y-23638746D01*
X7853515Y-23638746D02*
X7863039Y-23619698D01*
X7863039Y-23619698D02*
X7872563Y-23610174D01*
X7872563Y-23610174D02*
X7891610Y-23600650D01*
X7891610Y-23600650D02*
X7920182Y-23600650D01*
X7920182Y-23600650D02*
X7939230Y-23610174D01*
X7939230Y-23610174D02*
X7948753Y-23619698D01*
X7948753Y-23619698D02*
X7958277Y-23638746D01*
X7958277Y-23638746D02*
X7958277Y-23695888D01*
X7958277Y-23695888D02*
X7948753Y-23714936D01*
X7948753Y-23714936D02*
X7939230Y-23724460D01*
X7939230Y-23724460D02*
X7920182Y-23733984D01*
X7920182Y-23733984D02*
X7891610Y-23733984D01*
X8072563Y-23733984D02*
X8053515Y-23724460D01*
X8053515Y-23724460D02*
X8043991Y-23705412D01*
X8043991Y-23705412D02*
X8043991Y-23533984D01*
X8224944Y-23724460D02*
X8205896Y-23733984D01*
X8205896Y-23733984D02*
X8167801Y-23733984D01*
X8167801Y-23733984D02*
X8148753Y-23724460D01*
X8148753Y-23724460D02*
X8139230Y-23705412D01*
X8139230Y-23705412D02*
X8139230Y-23629222D01*
X8139230Y-23629222D02*
X8148753Y-23610174D01*
X8148753Y-23610174D02*
X8167801Y-23600650D01*
X8167801Y-23600650D02*
X8205896Y-23600650D01*
X8205896Y-23600650D02*
X8224944Y-23610174D01*
X8224944Y-23610174D02*
X8234468Y-23629222D01*
X8234468Y-23629222D02*
X8234468Y-23648269D01*
X8234468Y-23648269D02*
X8139230Y-23667317D01*
X8310658Y-23724460D02*
X8329706Y-23733984D01*
X8329706Y-23733984D02*
X8367801Y-23733984D01*
X8367801Y-23733984D02*
X8386849Y-23724460D01*
X8386849Y-23724460D02*
X8396373Y-23705412D01*
X8396373Y-23705412D02*
X8396373Y-23695888D01*
X8396373Y-23695888D02*
X8386849Y-23676841D01*
X8386849Y-23676841D02*
X8367801Y-23667317D01*
X8367801Y-23667317D02*
X8339230Y-23667317D01*
X8339230Y-23667317D02*
X8320182Y-23657793D01*
X8320182Y-23657793D02*
X8310658Y-23638746D01*
X8310658Y-23638746D02*
X8310658Y-23629222D01*
X8310658Y-23629222D02*
X8320182Y-23610174D01*
X8320182Y-23610174D02*
X8339230Y-23600650D01*
X8339230Y-23600650D02*
X8367801Y-23600650D01*
X8367801Y-23600650D02*
X8386849Y-23610174D01*
X8463039Y-23810174D02*
X8472563Y-23800650D01*
X8472563Y-23800650D02*
X8491611Y-23772079D01*
X8491611Y-23772079D02*
X8501134Y-23753031D01*
X8501134Y-23753031D02*
X8510658Y-23724460D01*
X8510658Y-23724460D02*
X8520182Y-23676841D01*
X8520182Y-23676841D02*
X8520182Y-23638746D01*
X8520182Y-23638746D02*
X8510658Y-23591127D01*
X8510658Y-23591127D02*
X8501134Y-23562555D01*
X8501134Y-23562555D02*
X8491611Y-23543508D01*
X8491611Y-23543508D02*
X8472563Y-23514936D01*
X8472563Y-23514936D02*
X8463039Y-23505412D01*
D12*
X3497500Y-23906500D02*
G75*
G02*
X3422500Y-23906500I-37500J0D01*
G01*
X3422500Y-23906500D02*
G75*
G02*
X3497500Y-23906500I37500J0D01*
G01*
D11*
X3796372Y-23797984D02*
X3815420Y-23797984D01*
X3815420Y-23797984D02*
X3834467Y-23807508D01*
X3834467Y-23807508D02*
X3843991Y-23817031D01*
X3843991Y-23817031D02*
X3853515Y-23836079D01*
X3853515Y-23836079D02*
X3863039Y-23874174D01*
X3863039Y-23874174D02*
X3863039Y-23921793D01*
X3863039Y-23921793D02*
X3853515Y-23959888D01*
X3853515Y-23959888D02*
X3843991Y-23978936D01*
X3843991Y-23978936D02*
X3834467Y-23988460D01*
X3834467Y-23988460D02*
X3815420Y-23997984D01*
X3815420Y-23997984D02*
X3796372Y-23997984D01*
X3796372Y-23997984D02*
X3777324Y-23988460D01*
X3777324Y-23988460D02*
X3767801Y-23978936D01*
X3767801Y-23978936D02*
X3758277Y-23959888D01*
X3758277Y-23959888D02*
X3748753Y-23921793D01*
X3748753Y-23921793D02*
X3748753Y-23874174D01*
X3748753Y-23874174D02*
X3758277Y-23836079D01*
X3758277Y-23836079D02*
X3767801Y-23817031D01*
X3767801Y-23817031D02*
X3777324Y-23807508D01*
X3777324Y-23807508D02*
X3796372Y-23797984D01*
X3948753Y-23978936D02*
X3958277Y-23988460D01*
X3958277Y-23988460D02*
X3948753Y-23997984D01*
X3948753Y-23997984D02*
X3939229Y-23988460D01*
X3939229Y-23988460D02*
X3948753Y-23978936D01*
X3948753Y-23978936D02*
X3948753Y-23997984D01*
X4024943Y-23797984D02*
X4158277Y-23797984D01*
X4158277Y-23797984D02*
X4072562Y-23997984D01*
X4329705Y-23797984D02*
X4234467Y-23797984D01*
X4234467Y-23797984D02*
X4224944Y-23893222D01*
X4224944Y-23893222D02*
X4234467Y-23883698D01*
X4234467Y-23883698D02*
X4253515Y-23874174D01*
X4253515Y-23874174D02*
X4301134Y-23874174D01*
X4301134Y-23874174D02*
X4320182Y-23883698D01*
X4320182Y-23883698D02*
X4329705Y-23893222D01*
X4329705Y-23893222D02*
X4339229Y-23912269D01*
X4339229Y-23912269D02*
X4339229Y-23959888D01*
X4339229Y-23959888D02*
X4329705Y-23978936D01*
X4329705Y-23978936D02*
X4320182Y-23988460D01*
X4320182Y-23988460D02*
X4301134Y-23997984D01*
X4301134Y-23997984D02*
X4253515Y-23997984D01*
X4253515Y-23997984D02*
X4234467Y-23988460D01*
X4234467Y-23988460D02*
X4224944Y-23978936D01*
X4463039Y-23797984D02*
X4482086Y-23797984D01*
X4482086Y-23797984D02*
X4501134Y-23807508D01*
X4501134Y-23807508D02*
X4510658Y-23817031D01*
X4510658Y-23817031D02*
X4520182Y-23836079D01*
X4520182Y-23836079D02*
X4529705Y-23874174D01*
X4529705Y-23874174D02*
X4529705Y-23921793D01*
X4529705Y-23921793D02*
X4520182Y-23959888D01*
X4520182Y-23959888D02*
X4510658Y-23978936D01*
X4510658Y-23978936D02*
X4501134Y-23988460D01*
X4501134Y-23988460D02*
X4482086Y-23997984D01*
X4482086Y-23997984D02*
X4463039Y-23997984D01*
X4463039Y-23997984D02*
X4443991Y-23988460D01*
X4443991Y-23988460D02*
X4434467Y-23978936D01*
X4434467Y-23978936D02*
X4424944Y-23959888D01*
X4424944Y-23959888D02*
X4415420Y-23921793D01*
X4415420Y-23921793D02*
X4415420Y-23874174D01*
X4415420Y-23874174D02*
X4424944Y-23836079D01*
X4424944Y-23836079D02*
X4434467Y-23817031D01*
X4434467Y-23817031D02*
X4443991Y-23807508D01*
X4443991Y-23807508D02*
X4463039Y-23797984D01*
X4615420Y-23997984D02*
X4615420Y-23864650D01*
X4615420Y-23883698D02*
X4624944Y-23874174D01*
X4624944Y-23874174D02*
X4643991Y-23864650D01*
X4643991Y-23864650D02*
X4672563Y-23864650D01*
X4672563Y-23864650D02*
X4691610Y-23874174D01*
X4691610Y-23874174D02*
X4701134Y-23893222D01*
X4701134Y-23893222D02*
X4701134Y-23997984D01*
X4701134Y-23893222D02*
X4710658Y-23874174D01*
X4710658Y-23874174D02*
X4729705Y-23864650D01*
X4729705Y-23864650D02*
X4758277Y-23864650D01*
X4758277Y-23864650D02*
X4777325Y-23874174D01*
X4777325Y-23874174D02*
X4786848Y-23893222D01*
X4786848Y-23893222D02*
X4786848Y-23997984D01*
X4882086Y-23997984D02*
X4882086Y-23864650D01*
X4882086Y-23883698D02*
X4891610Y-23874174D01*
X4891610Y-23874174D02*
X4910658Y-23864650D01*
X4910658Y-23864650D02*
X4939229Y-23864650D01*
X4939229Y-23864650D02*
X4958277Y-23874174D01*
X4958277Y-23874174D02*
X4967801Y-23893222D01*
X4967801Y-23893222D02*
X4967801Y-23997984D01*
X4967801Y-23893222D02*
X4977325Y-23874174D01*
X4977325Y-23874174D02*
X4996372Y-23864650D01*
X4996372Y-23864650D02*
X5024944Y-23864650D01*
X5024944Y-23864650D02*
X5043991Y-23874174D01*
X5043991Y-23874174D02*
X5053515Y-23893222D01*
X5053515Y-23893222D02*
X5053515Y-23997984D01*
X5443991Y-23788460D02*
X5272563Y-24045603D01*
X5701134Y-23797984D02*
X5720182Y-23797984D01*
X5720182Y-23797984D02*
X5739229Y-23807508D01*
X5739229Y-23807508D02*
X5748753Y-23817031D01*
X5748753Y-23817031D02*
X5758277Y-23836079D01*
X5758277Y-23836079D02*
X5767801Y-23874174D01*
X5767801Y-23874174D02*
X5767801Y-23921793D01*
X5767801Y-23921793D02*
X5758277Y-23959888D01*
X5758277Y-23959888D02*
X5748753Y-23978936D01*
X5748753Y-23978936D02*
X5739229Y-23988460D01*
X5739229Y-23988460D02*
X5720182Y-23997984D01*
X5720182Y-23997984D02*
X5701134Y-23997984D01*
X5701134Y-23997984D02*
X5682086Y-23988460D01*
X5682086Y-23988460D02*
X5672563Y-23978936D01*
X5672563Y-23978936D02*
X5663039Y-23959888D01*
X5663039Y-23959888D02*
X5653515Y-23921793D01*
X5653515Y-23921793D02*
X5653515Y-23874174D01*
X5653515Y-23874174D02*
X5663039Y-23836079D01*
X5663039Y-23836079D02*
X5672563Y-23817031D01*
X5672563Y-23817031D02*
X5682086Y-23807508D01*
X5682086Y-23807508D02*
X5701134Y-23797984D01*
X5853515Y-23978936D02*
X5863039Y-23988460D01*
X5863039Y-23988460D02*
X5853515Y-23997984D01*
X5853515Y-23997984D02*
X5843991Y-23988460D01*
X5843991Y-23988460D02*
X5853515Y-23978936D01*
X5853515Y-23978936D02*
X5853515Y-23997984D01*
X5986848Y-23797984D02*
X6005896Y-23797984D01*
X6005896Y-23797984D02*
X6024944Y-23807508D01*
X6024944Y-23807508D02*
X6034467Y-23817031D01*
X6034467Y-23817031D02*
X6043991Y-23836079D01*
X6043991Y-23836079D02*
X6053515Y-23874174D01*
X6053515Y-23874174D02*
X6053515Y-23921793D01*
X6053515Y-23921793D02*
X6043991Y-23959888D01*
X6043991Y-23959888D02*
X6034467Y-23978936D01*
X6034467Y-23978936D02*
X6024944Y-23988460D01*
X6024944Y-23988460D02*
X6005896Y-23997984D01*
X6005896Y-23997984D02*
X5986848Y-23997984D01*
X5986848Y-23997984D02*
X5967801Y-23988460D01*
X5967801Y-23988460D02*
X5958277Y-23978936D01*
X5958277Y-23978936D02*
X5948753Y-23959888D01*
X5948753Y-23959888D02*
X5939229Y-23921793D01*
X5939229Y-23921793D02*
X5939229Y-23874174D01*
X5939229Y-23874174D02*
X5948753Y-23836079D01*
X5948753Y-23836079D02*
X5958277Y-23817031D01*
X5958277Y-23817031D02*
X5967801Y-23807508D01*
X5967801Y-23807508D02*
X5986848Y-23797984D01*
X6129706Y-23817031D02*
X6139229Y-23807508D01*
X6139229Y-23807508D02*
X6158277Y-23797984D01*
X6158277Y-23797984D02*
X6205896Y-23797984D01*
X6205896Y-23797984D02*
X6224944Y-23807508D01*
X6224944Y-23807508D02*
X6234467Y-23817031D01*
X6234467Y-23817031D02*
X6243991Y-23836079D01*
X6243991Y-23836079D02*
X6243991Y-23855127D01*
X6243991Y-23855127D02*
X6234467Y-23883698D01*
X6234467Y-23883698D02*
X6120182Y-23997984D01*
X6120182Y-23997984D02*
X6243991Y-23997984D01*
X6339229Y-23997984D02*
X6377325Y-23997984D01*
X6377325Y-23997984D02*
X6396372Y-23988460D01*
X6396372Y-23988460D02*
X6405896Y-23978936D01*
X6405896Y-23978936D02*
X6424944Y-23950365D01*
X6424944Y-23950365D02*
X6434467Y-23912269D01*
X6434467Y-23912269D02*
X6434467Y-23836079D01*
X6434467Y-23836079D02*
X6424944Y-23817031D01*
X6424944Y-23817031D02*
X6415420Y-23807508D01*
X6415420Y-23807508D02*
X6396372Y-23797984D01*
X6396372Y-23797984D02*
X6358277Y-23797984D01*
X6358277Y-23797984D02*
X6339229Y-23807508D01*
X6339229Y-23807508D02*
X6329706Y-23817031D01*
X6329706Y-23817031D02*
X6320182Y-23836079D01*
X6320182Y-23836079D02*
X6320182Y-23883698D01*
X6320182Y-23883698D02*
X6329706Y-23902746D01*
X6329706Y-23902746D02*
X6339229Y-23912269D01*
X6339229Y-23912269D02*
X6358277Y-23921793D01*
X6358277Y-23921793D02*
X6396372Y-23921793D01*
X6396372Y-23921793D02*
X6415420Y-23912269D01*
X6415420Y-23912269D02*
X6424944Y-23902746D01*
X6424944Y-23902746D02*
X6434467Y-23883698D01*
X6615420Y-23797984D02*
X6520182Y-23797984D01*
X6520182Y-23797984D02*
X6510658Y-23893222D01*
X6510658Y-23893222D02*
X6520182Y-23883698D01*
X6520182Y-23883698D02*
X6539229Y-23874174D01*
X6539229Y-23874174D02*
X6586848Y-23874174D01*
X6586848Y-23874174D02*
X6605896Y-23883698D01*
X6605896Y-23883698D02*
X6615420Y-23893222D01*
X6615420Y-23893222D02*
X6624944Y-23912269D01*
X6624944Y-23912269D02*
X6624944Y-23959888D01*
X6624944Y-23959888D02*
X6615420Y-23978936D01*
X6615420Y-23978936D02*
X6605896Y-23988460D01*
X6605896Y-23988460D02*
X6586848Y-23997984D01*
X6586848Y-23997984D02*
X6539229Y-23997984D01*
X6539229Y-23997984D02*
X6520182Y-23988460D01*
X6520182Y-23988460D02*
X6510658Y-23978936D01*
X6701134Y-23797984D02*
X6701134Y-23836079D01*
X6777325Y-23797984D02*
X6777325Y-23836079D01*
X7072563Y-24074174D02*
X7063039Y-24064650D01*
X7063039Y-24064650D02*
X7043991Y-24036079D01*
X7043991Y-24036079D02*
X7034468Y-24017031D01*
X7034468Y-24017031D02*
X7024944Y-23988460D01*
X7024944Y-23988460D02*
X7015420Y-23940841D01*
X7015420Y-23940841D02*
X7015420Y-23902746D01*
X7015420Y-23902746D02*
X7024944Y-23855127D01*
X7024944Y-23855127D02*
X7034468Y-23826555D01*
X7034468Y-23826555D02*
X7043991Y-23807508D01*
X7043991Y-23807508D02*
X7063039Y-23778936D01*
X7063039Y-23778936D02*
X7072563Y-23769412D01*
X7129706Y-23797984D02*
X7253515Y-23797984D01*
X7253515Y-23797984D02*
X7186848Y-23874174D01*
X7186848Y-23874174D02*
X7215420Y-23874174D01*
X7215420Y-23874174D02*
X7234468Y-23883698D01*
X7234468Y-23883698D02*
X7243991Y-23893222D01*
X7243991Y-23893222D02*
X7253515Y-23912269D01*
X7253515Y-23912269D02*
X7253515Y-23959888D01*
X7253515Y-23959888D02*
X7243991Y-23978936D01*
X7243991Y-23978936D02*
X7234468Y-23988460D01*
X7234468Y-23988460D02*
X7215420Y-23997984D01*
X7215420Y-23997984D02*
X7158277Y-23997984D01*
X7158277Y-23997984D02*
X7139229Y-23988460D01*
X7139229Y-23988460D02*
X7129706Y-23978936D01*
X7491610Y-23997984D02*
X7491610Y-23797984D01*
X7577325Y-23997984D02*
X7577325Y-23893222D01*
X7577325Y-23893222D02*
X7567801Y-23874174D01*
X7567801Y-23874174D02*
X7548753Y-23864650D01*
X7548753Y-23864650D02*
X7520182Y-23864650D01*
X7520182Y-23864650D02*
X7501134Y-23874174D01*
X7501134Y-23874174D02*
X7491610Y-23883698D01*
X7701134Y-23997984D02*
X7682087Y-23988460D01*
X7682087Y-23988460D02*
X7672563Y-23978936D01*
X7672563Y-23978936D02*
X7663039Y-23959888D01*
X7663039Y-23959888D02*
X7663039Y-23902746D01*
X7663039Y-23902746D02*
X7672563Y-23883698D01*
X7672563Y-23883698D02*
X7682087Y-23874174D01*
X7682087Y-23874174D02*
X7701134Y-23864650D01*
X7701134Y-23864650D02*
X7729706Y-23864650D01*
X7729706Y-23864650D02*
X7748753Y-23874174D01*
X7748753Y-23874174D02*
X7758277Y-23883698D01*
X7758277Y-23883698D02*
X7767801Y-23902746D01*
X7767801Y-23902746D02*
X7767801Y-23959888D01*
X7767801Y-23959888D02*
X7758277Y-23978936D01*
X7758277Y-23978936D02*
X7748753Y-23988460D01*
X7748753Y-23988460D02*
X7729706Y-23997984D01*
X7729706Y-23997984D02*
X7701134Y-23997984D01*
X7882087Y-23997984D02*
X7863039Y-23988460D01*
X7863039Y-23988460D02*
X7853515Y-23969412D01*
X7853515Y-23969412D02*
X7853515Y-23797984D01*
X8034468Y-23988460D02*
X8015420Y-23997984D01*
X8015420Y-23997984D02*
X7977325Y-23997984D01*
X7977325Y-23997984D02*
X7958277Y-23988460D01*
X7958277Y-23988460D02*
X7948753Y-23969412D01*
X7948753Y-23969412D02*
X7948753Y-23893222D01*
X7948753Y-23893222D02*
X7958277Y-23874174D01*
X7958277Y-23874174D02*
X7977325Y-23864650D01*
X7977325Y-23864650D02*
X8015420Y-23864650D01*
X8015420Y-23864650D02*
X8034468Y-23874174D01*
X8034468Y-23874174D02*
X8043991Y-23893222D01*
X8043991Y-23893222D02*
X8043991Y-23912269D01*
X8043991Y-23912269D02*
X7948753Y-23931317D01*
X8120182Y-23988460D02*
X8139230Y-23997984D01*
X8139230Y-23997984D02*
X8177325Y-23997984D01*
X8177325Y-23997984D02*
X8196372Y-23988460D01*
X8196372Y-23988460D02*
X8205896Y-23969412D01*
X8205896Y-23969412D02*
X8205896Y-23959888D01*
X8205896Y-23959888D02*
X8196372Y-23940841D01*
X8196372Y-23940841D02*
X8177325Y-23931317D01*
X8177325Y-23931317D02*
X8148753Y-23931317D01*
X8148753Y-23931317D02*
X8129706Y-23921793D01*
X8129706Y-23921793D02*
X8120182Y-23902746D01*
X8120182Y-23902746D02*
X8120182Y-23893222D01*
X8120182Y-23893222D02*
X8129706Y-23874174D01*
X8129706Y-23874174D02*
X8148753Y-23864650D01*
X8148753Y-23864650D02*
X8177325Y-23864650D01*
X8177325Y-23864650D02*
X8196372Y-23874174D01*
X8272563Y-24074174D02*
X8282087Y-24064650D01*
X8282087Y-24064650D02*
X8301134Y-24036079D01*
X8301134Y-24036079D02*
X8310658Y-24017031D01*
X8310658Y-24017031D02*
X8320182Y-23988460D01*
X8320182Y-23988460D02*
X8329706Y-23940841D01*
X8329706Y-23940841D02*
X8329706Y-23902746D01*
X8329706Y-23902746D02*
X8320182Y-23855127D01*
X8320182Y-23855127D02*
X8310658Y-23826555D01*
X8310658Y-23826555D02*
X8301134Y-23807508D01*
X8301134Y-23807508D02*
X8282087Y-23778936D01*
X8282087Y-23778936D02*
X8272563Y-23769412D01*
D12*
X3457500Y-24130500D02*
X3457500Y-24210500D01*
X3417500Y-24170500D02*
X3497500Y-24170500D01*
D11*
X3796372Y-24061984D02*
X3815420Y-24061984D01*
X3815420Y-24061984D02*
X3834467Y-24071508D01*
X3834467Y-24071508D02*
X3843991Y-24081031D01*
X3843991Y-24081031D02*
X3853515Y-24100079D01*
X3853515Y-24100079D02*
X3863039Y-24138174D01*
X3863039Y-24138174D02*
X3863039Y-24185793D01*
X3863039Y-24185793D02*
X3853515Y-24223888D01*
X3853515Y-24223888D02*
X3843991Y-24242936D01*
X3843991Y-24242936D02*
X3834467Y-24252460D01*
X3834467Y-24252460D02*
X3815420Y-24261984D01*
X3815420Y-24261984D02*
X3796372Y-24261984D01*
X3796372Y-24261984D02*
X3777324Y-24252460D01*
X3777324Y-24252460D02*
X3767801Y-24242936D01*
X3767801Y-24242936D02*
X3758277Y-24223888D01*
X3758277Y-24223888D02*
X3748753Y-24185793D01*
X3748753Y-24185793D02*
X3748753Y-24138174D01*
X3748753Y-24138174D02*
X3758277Y-24100079D01*
X3758277Y-24100079D02*
X3767801Y-24081031D01*
X3767801Y-24081031D02*
X3777324Y-24071508D01*
X3777324Y-24071508D02*
X3796372Y-24061984D01*
X3948753Y-24242936D02*
X3958277Y-24252460D01*
X3958277Y-24252460D02*
X3948753Y-24261984D01*
X3948753Y-24261984D02*
X3939229Y-24252460D01*
X3939229Y-24252460D02*
X3948753Y-24242936D01*
X3948753Y-24242936D02*
X3948753Y-24261984D01*
X4072562Y-24147698D02*
X4053515Y-24138174D01*
X4053515Y-24138174D02*
X4043991Y-24128650D01*
X4043991Y-24128650D02*
X4034467Y-24109603D01*
X4034467Y-24109603D02*
X4034467Y-24100079D01*
X4034467Y-24100079D02*
X4043991Y-24081031D01*
X4043991Y-24081031D02*
X4053515Y-24071508D01*
X4053515Y-24071508D02*
X4072562Y-24061984D01*
X4072562Y-24061984D02*
X4110658Y-24061984D01*
X4110658Y-24061984D02*
X4129705Y-24071508D01*
X4129705Y-24071508D02*
X4139229Y-24081031D01*
X4139229Y-24081031D02*
X4148753Y-24100079D01*
X4148753Y-24100079D02*
X4148753Y-24109603D01*
X4148753Y-24109603D02*
X4139229Y-24128650D01*
X4139229Y-24128650D02*
X4129705Y-24138174D01*
X4129705Y-24138174D02*
X4110658Y-24147698D01*
X4110658Y-24147698D02*
X4072562Y-24147698D01*
X4072562Y-24147698D02*
X4053515Y-24157222D01*
X4053515Y-24157222D02*
X4043991Y-24166746D01*
X4043991Y-24166746D02*
X4034467Y-24185793D01*
X4034467Y-24185793D02*
X4034467Y-24223888D01*
X4034467Y-24223888D02*
X4043991Y-24242936D01*
X4043991Y-24242936D02*
X4053515Y-24252460D01*
X4053515Y-24252460D02*
X4072562Y-24261984D01*
X4072562Y-24261984D02*
X4110658Y-24261984D01*
X4110658Y-24261984D02*
X4129705Y-24252460D01*
X4129705Y-24252460D02*
X4139229Y-24242936D01*
X4139229Y-24242936D02*
X4148753Y-24223888D01*
X4148753Y-24223888D02*
X4148753Y-24185793D01*
X4148753Y-24185793D02*
X4139229Y-24166746D01*
X4139229Y-24166746D02*
X4129705Y-24157222D01*
X4129705Y-24157222D02*
X4110658Y-24147698D01*
X4272563Y-24061984D02*
X4291610Y-24061984D01*
X4291610Y-24061984D02*
X4310658Y-24071508D01*
X4310658Y-24071508D02*
X4320182Y-24081031D01*
X4320182Y-24081031D02*
X4329705Y-24100079D01*
X4329705Y-24100079D02*
X4339229Y-24138174D01*
X4339229Y-24138174D02*
X4339229Y-24185793D01*
X4339229Y-24185793D02*
X4329705Y-24223888D01*
X4329705Y-24223888D02*
X4320182Y-24242936D01*
X4320182Y-24242936D02*
X4310658Y-24252460D01*
X4310658Y-24252460D02*
X4291610Y-24261984D01*
X4291610Y-24261984D02*
X4272563Y-24261984D01*
X4272563Y-24261984D02*
X4253515Y-24252460D01*
X4253515Y-24252460D02*
X4243991Y-24242936D01*
X4243991Y-24242936D02*
X4234467Y-24223888D01*
X4234467Y-24223888D02*
X4224944Y-24185793D01*
X4224944Y-24185793D02*
X4224944Y-24138174D01*
X4224944Y-24138174D02*
X4234467Y-24100079D01*
X4234467Y-24100079D02*
X4243991Y-24081031D01*
X4243991Y-24081031D02*
X4253515Y-24071508D01*
X4253515Y-24071508D02*
X4272563Y-24061984D01*
X4463039Y-24061984D02*
X4482086Y-24061984D01*
X4482086Y-24061984D02*
X4501134Y-24071508D01*
X4501134Y-24071508D02*
X4510658Y-24081031D01*
X4510658Y-24081031D02*
X4520182Y-24100079D01*
X4520182Y-24100079D02*
X4529705Y-24138174D01*
X4529705Y-24138174D02*
X4529705Y-24185793D01*
X4529705Y-24185793D02*
X4520182Y-24223888D01*
X4520182Y-24223888D02*
X4510658Y-24242936D01*
X4510658Y-24242936D02*
X4501134Y-24252460D01*
X4501134Y-24252460D02*
X4482086Y-24261984D01*
X4482086Y-24261984D02*
X4463039Y-24261984D01*
X4463039Y-24261984D02*
X4443991Y-24252460D01*
X4443991Y-24252460D02*
X4434467Y-24242936D01*
X4434467Y-24242936D02*
X4424944Y-24223888D01*
X4424944Y-24223888D02*
X4415420Y-24185793D01*
X4415420Y-24185793D02*
X4415420Y-24138174D01*
X4415420Y-24138174D02*
X4424944Y-24100079D01*
X4424944Y-24100079D02*
X4434467Y-24081031D01*
X4434467Y-24081031D02*
X4443991Y-24071508D01*
X4443991Y-24071508D02*
X4463039Y-24061984D01*
X4615420Y-24261984D02*
X4615420Y-24128650D01*
X4615420Y-24147698D02*
X4624944Y-24138174D01*
X4624944Y-24138174D02*
X4643991Y-24128650D01*
X4643991Y-24128650D02*
X4672563Y-24128650D01*
X4672563Y-24128650D02*
X4691610Y-24138174D01*
X4691610Y-24138174D02*
X4701134Y-24157222D01*
X4701134Y-24157222D02*
X4701134Y-24261984D01*
X4701134Y-24157222D02*
X4710658Y-24138174D01*
X4710658Y-24138174D02*
X4729705Y-24128650D01*
X4729705Y-24128650D02*
X4758277Y-24128650D01*
X4758277Y-24128650D02*
X4777325Y-24138174D01*
X4777325Y-24138174D02*
X4786848Y-24157222D01*
X4786848Y-24157222D02*
X4786848Y-24261984D01*
X4882086Y-24261984D02*
X4882086Y-24128650D01*
X4882086Y-24147698D02*
X4891610Y-24138174D01*
X4891610Y-24138174D02*
X4910658Y-24128650D01*
X4910658Y-24128650D02*
X4939229Y-24128650D01*
X4939229Y-24128650D02*
X4958277Y-24138174D01*
X4958277Y-24138174D02*
X4967801Y-24157222D01*
X4967801Y-24157222D02*
X4967801Y-24261984D01*
X4967801Y-24157222D02*
X4977325Y-24138174D01*
X4977325Y-24138174D02*
X4996372Y-24128650D01*
X4996372Y-24128650D02*
X5024944Y-24128650D01*
X5024944Y-24128650D02*
X5043991Y-24138174D01*
X5043991Y-24138174D02*
X5053515Y-24157222D01*
X5053515Y-24157222D02*
X5053515Y-24261984D01*
X5443991Y-24052460D02*
X5272563Y-24309603D01*
X5701134Y-24061984D02*
X5720182Y-24061984D01*
X5720182Y-24061984D02*
X5739229Y-24071508D01*
X5739229Y-24071508D02*
X5748753Y-24081031D01*
X5748753Y-24081031D02*
X5758277Y-24100079D01*
X5758277Y-24100079D02*
X5767801Y-24138174D01*
X5767801Y-24138174D02*
X5767801Y-24185793D01*
X5767801Y-24185793D02*
X5758277Y-24223888D01*
X5758277Y-24223888D02*
X5748753Y-24242936D01*
X5748753Y-24242936D02*
X5739229Y-24252460D01*
X5739229Y-24252460D02*
X5720182Y-24261984D01*
X5720182Y-24261984D02*
X5701134Y-24261984D01*
X5701134Y-24261984D02*
X5682086Y-24252460D01*
X5682086Y-24252460D02*
X5672563Y-24242936D01*
X5672563Y-24242936D02*
X5663039Y-24223888D01*
X5663039Y-24223888D02*
X5653515Y-24185793D01*
X5653515Y-24185793D02*
X5653515Y-24138174D01*
X5653515Y-24138174D02*
X5663039Y-24100079D01*
X5663039Y-24100079D02*
X5672563Y-24081031D01*
X5672563Y-24081031D02*
X5682086Y-24071508D01*
X5682086Y-24071508D02*
X5701134Y-24061984D01*
X5853515Y-24242936D02*
X5863039Y-24252460D01*
X5863039Y-24252460D02*
X5853515Y-24261984D01*
X5853515Y-24261984D02*
X5843991Y-24252460D01*
X5843991Y-24252460D02*
X5853515Y-24242936D01*
X5853515Y-24242936D02*
X5853515Y-24261984D01*
X5986848Y-24061984D02*
X6005896Y-24061984D01*
X6005896Y-24061984D02*
X6024944Y-24071508D01*
X6024944Y-24071508D02*
X6034467Y-24081031D01*
X6034467Y-24081031D02*
X6043991Y-24100079D01*
X6043991Y-24100079D02*
X6053515Y-24138174D01*
X6053515Y-24138174D02*
X6053515Y-24185793D01*
X6053515Y-24185793D02*
X6043991Y-24223888D01*
X6043991Y-24223888D02*
X6034467Y-24242936D01*
X6034467Y-24242936D02*
X6024944Y-24252460D01*
X6024944Y-24252460D02*
X6005896Y-24261984D01*
X6005896Y-24261984D02*
X5986848Y-24261984D01*
X5986848Y-24261984D02*
X5967801Y-24252460D01*
X5967801Y-24252460D02*
X5958277Y-24242936D01*
X5958277Y-24242936D02*
X5948753Y-24223888D01*
X5948753Y-24223888D02*
X5939229Y-24185793D01*
X5939229Y-24185793D02*
X5939229Y-24138174D01*
X5939229Y-24138174D02*
X5948753Y-24100079D01*
X5948753Y-24100079D02*
X5958277Y-24081031D01*
X5958277Y-24081031D02*
X5967801Y-24071508D01*
X5967801Y-24071508D02*
X5986848Y-24061984D01*
X6120182Y-24061984D02*
X6243991Y-24061984D01*
X6243991Y-24061984D02*
X6177325Y-24138174D01*
X6177325Y-24138174D02*
X6205896Y-24138174D01*
X6205896Y-24138174D02*
X6224944Y-24147698D01*
X6224944Y-24147698D02*
X6234467Y-24157222D01*
X6234467Y-24157222D02*
X6243991Y-24176269D01*
X6243991Y-24176269D02*
X6243991Y-24223888D01*
X6243991Y-24223888D02*
X6234467Y-24242936D01*
X6234467Y-24242936D02*
X6224944Y-24252460D01*
X6224944Y-24252460D02*
X6205896Y-24261984D01*
X6205896Y-24261984D02*
X6148753Y-24261984D01*
X6148753Y-24261984D02*
X6129706Y-24252460D01*
X6129706Y-24252460D02*
X6120182Y-24242936D01*
X6434467Y-24261984D02*
X6320182Y-24261984D01*
X6377325Y-24261984D02*
X6377325Y-24061984D01*
X6377325Y-24061984D02*
X6358277Y-24090555D01*
X6358277Y-24090555D02*
X6339229Y-24109603D01*
X6339229Y-24109603D02*
X6320182Y-24119127D01*
X6615420Y-24061984D02*
X6520182Y-24061984D01*
X6520182Y-24061984D02*
X6510658Y-24157222D01*
X6510658Y-24157222D02*
X6520182Y-24147698D01*
X6520182Y-24147698D02*
X6539229Y-24138174D01*
X6539229Y-24138174D02*
X6586848Y-24138174D01*
X6586848Y-24138174D02*
X6605896Y-24147698D01*
X6605896Y-24147698D02*
X6615420Y-24157222D01*
X6615420Y-24157222D02*
X6624944Y-24176269D01*
X6624944Y-24176269D02*
X6624944Y-24223888D01*
X6624944Y-24223888D02*
X6615420Y-24242936D01*
X6615420Y-24242936D02*
X6605896Y-24252460D01*
X6605896Y-24252460D02*
X6586848Y-24261984D01*
X6586848Y-24261984D02*
X6539229Y-24261984D01*
X6539229Y-24261984D02*
X6520182Y-24252460D01*
X6520182Y-24252460D02*
X6510658Y-24242936D01*
X6701134Y-24061984D02*
X6701134Y-24100079D01*
X6777325Y-24061984D02*
X6777325Y-24100079D01*
X7072563Y-24338174D02*
X7063039Y-24328650D01*
X7063039Y-24328650D02*
X7043991Y-24300079D01*
X7043991Y-24300079D02*
X7034468Y-24281031D01*
X7034468Y-24281031D02*
X7024944Y-24252460D01*
X7024944Y-24252460D02*
X7015420Y-24204841D01*
X7015420Y-24204841D02*
X7015420Y-24166746D01*
X7015420Y-24166746D02*
X7024944Y-24119127D01*
X7024944Y-24119127D02*
X7034468Y-24090555D01*
X7034468Y-24090555D02*
X7043991Y-24071508D01*
X7043991Y-24071508D02*
X7063039Y-24042936D01*
X7063039Y-24042936D02*
X7072563Y-24033412D01*
X7253515Y-24261984D02*
X7139229Y-24261984D01*
X7196372Y-24261984D02*
X7196372Y-24061984D01*
X7196372Y-24061984D02*
X7177325Y-24090555D01*
X7177325Y-24090555D02*
X7158277Y-24109603D01*
X7158277Y-24109603D02*
X7139229Y-24119127D01*
X7443991Y-24261984D02*
X7329706Y-24261984D01*
X7386848Y-24261984D02*
X7386848Y-24061984D01*
X7386848Y-24061984D02*
X7367801Y-24090555D01*
X7367801Y-24090555D02*
X7348753Y-24109603D01*
X7348753Y-24109603D02*
X7329706Y-24119127D01*
X7634468Y-24261984D02*
X7520182Y-24261984D01*
X7577325Y-24261984D02*
X7577325Y-24061984D01*
X7577325Y-24061984D02*
X7558277Y-24090555D01*
X7558277Y-24090555D02*
X7539229Y-24109603D01*
X7539229Y-24109603D02*
X7520182Y-24119127D01*
X7872563Y-24261984D02*
X7872563Y-24061984D01*
X7958277Y-24261984D02*
X7958277Y-24157222D01*
X7958277Y-24157222D02*
X7948753Y-24138174D01*
X7948753Y-24138174D02*
X7929706Y-24128650D01*
X7929706Y-24128650D02*
X7901134Y-24128650D01*
X7901134Y-24128650D02*
X7882087Y-24138174D01*
X7882087Y-24138174D02*
X7872563Y-24147698D01*
X8082087Y-24261984D02*
X8063039Y-24252460D01*
X8063039Y-24252460D02*
X8053515Y-24242936D01*
X8053515Y-24242936D02*
X8043991Y-24223888D01*
X8043991Y-24223888D02*
X8043991Y-24166746D01*
X8043991Y-24166746D02*
X8053515Y-24147698D01*
X8053515Y-24147698D02*
X8063039Y-24138174D01*
X8063039Y-24138174D02*
X8082087Y-24128650D01*
X8082087Y-24128650D02*
X8110658Y-24128650D01*
X8110658Y-24128650D02*
X8129706Y-24138174D01*
X8129706Y-24138174D02*
X8139230Y-24147698D01*
X8139230Y-24147698D02*
X8148753Y-24166746D01*
X8148753Y-24166746D02*
X8148753Y-24223888D01*
X8148753Y-24223888D02*
X8139230Y-24242936D01*
X8139230Y-24242936D02*
X8129706Y-24252460D01*
X8129706Y-24252460D02*
X8110658Y-24261984D01*
X8110658Y-24261984D02*
X8082087Y-24261984D01*
X8263039Y-24261984D02*
X8243991Y-24252460D01*
X8243991Y-24252460D02*
X8234468Y-24233412D01*
X8234468Y-24233412D02*
X8234468Y-24061984D01*
X8415420Y-24252460D02*
X8396373Y-24261984D01*
X8396373Y-24261984D02*
X8358277Y-24261984D01*
X8358277Y-24261984D02*
X8339230Y-24252460D01*
X8339230Y-24252460D02*
X8329706Y-24233412D01*
X8329706Y-24233412D02*
X8329706Y-24157222D01*
X8329706Y-24157222D02*
X8339230Y-24138174D01*
X8339230Y-24138174D02*
X8358277Y-24128650D01*
X8358277Y-24128650D02*
X8396373Y-24128650D01*
X8396373Y-24128650D02*
X8415420Y-24138174D01*
X8415420Y-24138174D02*
X8424944Y-24157222D01*
X8424944Y-24157222D02*
X8424944Y-24176269D01*
X8424944Y-24176269D02*
X8329706Y-24195317D01*
X8501134Y-24252460D02*
X8520182Y-24261984D01*
X8520182Y-24261984D02*
X8558277Y-24261984D01*
X8558277Y-24261984D02*
X8577325Y-24252460D01*
X8577325Y-24252460D02*
X8586849Y-24233412D01*
X8586849Y-24233412D02*
X8586849Y-24223888D01*
X8586849Y-24223888D02*
X8577325Y-24204841D01*
X8577325Y-24204841D02*
X8558277Y-24195317D01*
X8558277Y-24195317D02*
X8529706Y-24195317D01*
X8529706Y-24195317D02*
X8510658Y-24185793D01*
X8510658Y-24185793D02*
X8501134Y-24166746D01*
X8501134Y-24166746D02*
X8501134Y-24157222D01*
X8501134Y-24157222D02*
X8510658Y-24138174D01*
X8510658Y-24138174D02*
X8529706Y-24128650D01*
X8529706Y-24128650D02*
X8558277Y-24128650D01*
X8558277Y-24128650D02*
X8577325Y-24138174D01*
X8653515Y-24338174D02*
X8663039Y-24328650D01*
X8663039Y-24328650D02*
X8682087Y-24300079D01*
X8682087Y-24300079D02*
X8691611Y-24281031D01*
X8691611Y-24281031D02*
X8701134Y-24252460D01*
X8701134Y-24252460D02*
X8710658Y-24204841D01*
X8710658Y-24204841D02*
X8710658Y-24166746D01*
X8710658Y-24166746D02*
X8701134Y-24119127D01*
X8701134Y-24119127D02*
X8691611Y-24090555D01*
X8691611Y-24090555D02*
X8682087Y-24071508D01*
X8682087Y-24071508D02*
X8663039Y-24042936D01*
X8663039Y-24042936D02*
X8653515Y-24033412D01*
D12*
X3484320Y-24466320D02*
X3484320Y-24402680D01*
X3420680Y-24402680D01*
X3420680Y-24466320D01*
X3484320Y-24466320D01*
D11*
X3796372Y-24325984D02*
X3815420Y-24325984D01*
X3815420Y-24325984D02*
X3834467Y-24335508D01*
X3834467Y-24335508D02*
X3843991Y-24345031D01*
X3843991Y-24345031D02*
X3853515Y-24364079D01*
X3853515Y-24364079D02*
X3863039Y-24402174D01*
X3863039Y-24402174D02*
X3863039Y-24449793D01*
X3863039Y-24449793D02*
X3853515Y-24487888D01*
X3853515Y-24487888D02*
X3843991Y-24506936D01*
X3843991Y-24506936D02*
X3834467Y-24516460D01*
X3834467Y-24516460D02*
X3815420Y-24525984D01*
X3815420Y-24525984D02*
X3796372Y-24525984D01*
X3796372Y-24525984D02*
X3777324Y-24516460D01*
X3777324Y-24516460D02*
X3767801Y-24506936D01*
X3767801Y-24506936D02*
X3758277Y-24487888D01*
X3758277Y-24487888D02*
X3748753Y-24449793D01*
X3748753Y-24449793D02*
X3748753Y-24402174D01*
X3748753Y-24402174D02*
X3758277Y-24364079D01*
X3758277Y-24364079D02*
X3767801Y-24345031D01*
X3767801Y-24345031D02*
X3777324Y-24335508D01*
X3777324Y-24335508D02*
X3796372Y-24325984D01*
X3948753Y-24506936D02*
X3958277Y-24516460D01*
X3958277Y-24516460D02*
X3948753Y-24525984D01*
X3948753Y-24525984D02*
X3939229Y-24516460D01*
X3939229Y-24516460D02*
X3948753Y-24506936D01*
X3948753Y-24506936D02*
X3948753Y-24525984D01*
X4053515Y-24525984D02*
X4091610Y-24525984D01*
X4091610Y-24525984D02*
X4110658Y-24516460D01*
X4110658Y-24516460D02*
X4120182Y-24506936D01*
X4120182Y-24506936D02*
X4139229Y-24478365D01*
X4139229Y-24478365D02*
X4148753Y-24440269D01*
X4148753Y-24440269D02*
X4148753Y-24364079D01*
X4148753Y-24364079D02*
X4139229Y-24345031D01*
X4139229Y-24345031D02*
X4129705Y-24335508D01*
X4129705Y-24335508D02*
X4110658Y-24325984D01*
X4110658Y-24325984D02*
X4072562Y-24325984D01*
X4072562Y-24325984D02*
X4053515Y-24335508D01*
X4053515Y-24335508D02*
X4043991Y-24345031D01*
X4043991Y-24345031D02*
X4034467Y-24364079D01*
X4034467Y-24364079D02*
X4034467Y-24411698D01*
X4034467Y-24411698D02*
X4043991Y-24430746D01*
X4043991Y-24430746D02*
X4053515Y-24440269D01*
X4053515Y-24440269D02*
X4072562Y-24449793D01*
X4072562Y-24449793D02*
X4110658Y-24449793D01*
X4110658Y-24449793D02*
X4129705Y-24440269D01*
X4129705Y-24440269D02*
X4139229Y-24430746D01*
X4139229Y-24430746D02*
X4148753Y-24411698D01*
X4272563Y-24325984D02*
X4291610Y-24325984D01*
X4291610Y-24325984D02*
X4310658Y-24335508D01*
X4310658Y-24335508D02*
X4320182Y-24345031D01*
X4320182Y-24345031D02*
X4329705Y-24364079D01*
X4329705Y-24364079D02*
X4339229Y-24402174D01*
X4339229Y-24402174D02*
X4339229Y-24449793D01*
X4339229Y-24449793D02*
X4329705Y-24487888D01*
X4329705Y-24487888D02*
X4320182Y-24506936D01*
X4320182Y-24506936D02*
X4310658Y-24516460D01*
X4310658Y-24516460D02*
X4291610Y-24525984D01*
X4291610Y-24525984D02*
X4272563Y-24525984D01*
X4272563Y-24525984D02*
X4253515Y-24516460D01*
X4253515Y-24516460D02*
X4243991Y-24506936D01*
X4243991Y-24506936D02*
X4234467Y-24487888D01*
X4234467Y-24487888D02*
X4224944Y-24449793D01*
X4224944Y-24449793D02*
X4224944Y-24402174D01*
X4224944Y-24402174D02*
X4234467Y-24364079D01*
X4234467Y-24364079D02*
X4243991Y-24345031D01*
X4243991Y-24345031D02*
X4253515Y-24335508D01*
X4253515Y-24335508D02*
X4272563Y-24325984D01*
X4463039Y-24325984D02*
X4482086Y-24325984D01*
X4482086Y-24325984D02*
X4501134Y-24335508D01*
X4501134Y-24335508D02*
X4510658Y-24345031D01*
X4510658Y-24345031D02*
X4520182Y-24364079D01*
X4520182Y-24364079D02*
X4529705Y-24402174D01*
X4529705Y-24402174D02*
X4529705Y-24449793D01*
X4529705Y-24449793D02*
X4520182Y-24487888D01*
X4520182Y-24487888D02*
X4510658Y-24506936D01*
X4510658Y-24506936D02*
X4501134Y-24516460D01*
X4501134Y-24516460D02*
X4482086Y-24525984D01*
X4482086Y-24525984D02*
X4463039Y-24525984D01*
X4463039Y-24525984D02*
X4443991Y-24516460D01*
X4443991Y-24516460D02*
X4434467Y-24506936D01*
X4434467Y-24506936D02*
X4424944Y-24487888D01*
X4424944Y-24487888D02*
X4415420Y-24449793D01*
X4415420Y-24449793D02*
X4415420Y-24402174D01*
X4415420Y-24402174D02*
X4424944Y-24364079D01*
X4424944Y-24364079D02*
X4434467Y-24345031D01*
X4434467Y-24345031D02*
X4443991Y-24335508D01*
X4443991Y-24335508D02*
X4463039Y-24325984D01*
X4615420Y-24525984D02*
X4615420Y-24392650D01*
X4615420Y-24411698D02*
X4624944Y-24402174D01*
X4624944Y-24402174D02*
X4643991Y-24392650D01*
X4643991Y-24392650D02*
X4672563Y-24392650D01*
X4672563Y-24392650D02*
X4691610Y-24402174D01*
X4691610Y-24402174D02*
X4701134Y-24421222D01*
X4701134Y-24421222D02*
X4701134Y-24525984D01*
X4701134Y-24421222D02*
X4710658Y-24402174D01*
X4710658Y-24402174D02*
X4729705Y-24392650D01*
X4729705Y-24392650D02*
X4758277Y-24392650D01*
X4758277Y-24392650D02*
X4777325Y-24402174D01*
X4777325Y-24402174D02*
X4786848Y-24421222D01*
X4786848Y-24421222D02*
X4786848Y-24525984D01*
X4882086Y-24525984D02*
X4882086Y-24392650D01*
X4882086Y-24411698D02*
X4891610Y-24402174D01*
X4891610Y-24402174D02*
X4910658Y-24392650D01*
X4910658Y-24392650D02*
X4939229Y-24392650D01*
X4939229Y-24392650D02*
X4958277Y-24402174D01*
X4958277Y-24402174D02*
X4967801Y-24421222D01*
X4967801Y-24421222D02*
X4967801Y-24525984D01*
X4967801Y-24421222D02*
X4977325Y-24402174D01*
X4977325Y-24402174D02*
X4996372Y-24392650D01*
X4996372Y-24392650D02*
X5024944Y-24392650D01*
X5024944Y-24392650D02*
X5043991Y-24402174D01*
X5043991Y-24402174D02*
X5053515Y-24421222D01*
X5053515Y-24421222D02*
X5053515Y-24525984D01*
X5443991Y-24316460D02*
X5272563Y-24573603D01*
X5701134Y-24325984D02*
X5720182Y-24325984D01*
X5720182Y-24325984D02*
X5739229Y-24335508D01*
X5739229Y-24335508D02*
X5748753Y-24345031D01*
X5748753Y-24345031D02*
X5758277Y-24364079D01*
X5758277Y-24364079D02*
X5767801Y-24402174D01*
X5767801Y-24402174D02*
X5767801Y-24449793D01*
X5767801Y-24449793D02*
X5758277Y-24487888D01*
X5758277Y-24487888D02*
X5748753Y-24506936D01*
X5748753Y-24506936D02*
X5739229Y-24516460D01*
X5739229Y-24516460D02*
X5720182Y-24525984D01*
X5720182Y-24525984D02*
X5701134Y-24525984D01*
X5701134Y-24525984D02*
X5682086Y-24516460D01*
X5682086Y-24516460D02*
X5672563Y-24506936D01*
X5672563Y-24506936D02*
X5663039Y-24487888D01*
X5663039Y-24487888D02*
X5653515Y-24449793D01*
X5653515Y-24449793D02*
X5653515Y-24402174D01*
X5653515Y-24402174D02*
X5663039Y-24364079D01*
X5663039Y-24364079D02*
X5672563Y-24345031D01*
X5672563Y-24345031D02*
X5682086Y-24335508D01*
X5682086Y-24335508D02*
X5701134Y-24325984D01*
X5853515Y-24506936D02*
X5863039Y-24516460D01*
X5863039Y-24516460D02*
X5853515Y-24525984D01*
X5853515Y-24525984D02*
X5843991Y-24516460D01*
X5843991Y-24516460D02*
X5853515Y-24506936D01*
X5853515Y-24506936D02*
X5853515Y-24525984D01*
X5986848Y-24325984D02*
X6005896Y-24325984D01*
X6005896Y-24325984D02*
X6024944Y-24335508D01*
X6024944Y-24335508D02*
X6034467Y-24345031D01*
X6034467Y-24345031D02*
X6043991Y-24364079D01*
X6043991Y-24364079D02*
X6053515Y-24402174D01*
X6053515Y-24402174D02*
X6053515Y-24449793D01*
X6053515Y-24449793D02*
X6043991Y-24487888D01*
X6043991Y-24487888D02*
X6034467Y-24506936D01*
X6034467Y-24506936D02*
X6024944Y-24516460D01*
X6024944Y-24516460D02*
X6005896Y-24525984D01*
X6005896Y-24525984D02*
X5986848Y-24525984D01*
X5986848Y-24525984D02*
X5967801Y-24516460D01*
X5967801Y-24516460D02*
X5958277Y-24506936D01*
X5958277Y-24506936D02*
X5948753Y-24487888D01*
X5948753Y-24487888D02*
X5939229Y-24449793D01*
X5939229Y-24449793D02*
X5939229Y-24402174D01*
X5939229Y-24402174D02*
X5948753Y-24364079D01*
X5948753Y-24364079D02*
X5958277Y-24345031D01*
X5958277Y-24345031D02*
X5967801Y-24335508D01*
X5967801Y-24335508D02*
X5986848Y-24325984D01*
X6120182Y-24325984D02*
X6243991Y-24325984D01*
X6243991Y-24325984D02*
X6177325Y-24402174D01*
X6177325Y-24402174D02*
X6205896Y-24402174D01*
X6205896Y-24402174D02*
X6224944Y-24411698D01*
X6224944Y-24411698D02*
X6234467Y-24421222D01*
X6234467Y-24421222D02*
X6243991Y-24440269D01*
X6243991Y-24440269D02*
X6243991Y-24487888D01*
X6243991Y-24487888D02*
X6234467Y-24506936D01*
X6234467Y-24506936D02*
X6224944Y-24516460D01*
X6224944Y-24516460D02*
X6205896Y-24525984D01*
X6205896Y-24525984D02*
X6148753Y-24525984D01*
X6148753Y-24525984D02*
X6129706Y-24516460D01*
X6129706Y-24516460D02*
X6120182Y-24506936D01*
X6424944Y-24325984D02*
X6329706Y-24325984D01*
X6329706Y-24325984D02*
X6320182Y-24421222D01*
X6320182Y-24421222D02*
X6329706Y-24411698D01*
X6329706Y-24411698D02*
X6348753Y-24402174D01*
X6348753Y-24402174D02*
X6396372Y-24402174D01*
X6396372Y-24402174D02*
X6415420Y-24411698D01*
X6415420Y-24411698D02*
X6424944Y-24421222D01*
X6424944Y-24421222D02*
X6434467Y-24440269D01*
X6434467Y-24440269D02*
X6434467Y-24487888D01*
X6434467Y-24487888D02*
X6424944Y-24506936D01*
X6424944Y-24506936D02*
X6415420Y-24516460D01*
X6415420Y-24516460D02*
X6396372Y-24525984D01*
X6396372Y-24525984D02*
X6348753Y-24525984D01*
X6348753Y-24525984D02*
X6329706Y-24516460D01*
X6329706Y-24516460D02*
X6320182Y-24506936D01*
X6605896Y-24392650D02*
X6605896Y-24525984D01*
X6558277Y-24316460D02*
X6510658Y-24459317D01*
X6510658Y-24459317D02*
X6634467Y-24459317D01*
X6701134Y-24325984D02*
X6701134Y-24364079D01*
X6777325Y-24325984D02*
X6777325Y-24364079D01*
X7072563Y-24602174D02*
X7063039Y-24592650D01*
X7063039Y-24592650D02*
X7043991Y-24564079D01*
X7043991Y-24564079D02*
X7034468Y-24545031D01*
X7034468Y-24545031D02*
X7024944Y-24516460D01*
X7024944Y-24516460D02*
X7015420Y-24468841D01*
X7015420Y-24468841D02*
X7015420Y-24430746D01*
X7015420Y-24430746D02*
X7024944Y-24383127D01*
X7024944Y-24383127D02*
X7034468Y-24354555D01*
X7034468Y-24354555D02*
X7043991Y-24335508D01*
X7043991Y-24335508D02*
X7063039Y-24306936D01*
X7063039Y-24306936D02*
X7072563Y-24297412D01*
X7139229Y-24345031D02*
X7148753Y-24335508D01*
X7148753Y-24335508D02*
X7167801Y-24325984D01*
X7167801Y-24325984D02*
X7215420Y-24325984D01*
X7215420Y-24325984D02*
X7234468Y-24335508D01*
X7234468Y-24335508D02*
X7243991Y-24345031D01*
X7243991Y-24345031D02*
X7253515Y-24364079D01*
X7253515Y-24364079D02*
X7253515Y-24383127D01*
X7253515Y-24383127D02*
X7243991Y-24411698D01*
X7243991Y-24411698D02*
X7129706Y-24525984D01*
X7129706Y-24525984D02*
X7253515Y-24525984D01*
X7377325Y-24325984D02*
X7396372Y-24325984D01*
X7396372Y-24325984D02*
X7415420Y-24335508D01*
X7415420Y-24335508D02*
X7424944Y-24345031D01*
X7424944Y-24345031D02*
X7434468Y-24364079D01*
X7434468Y-24364079D02*
X7443991Y-24402174D01*
X7443991Y-24402174D02*
X7443991Y-24449793D01*
X7443991Y-24449793D02*
X7434468Y-24487888D01*
X7434468Y-24487888D02*
X7424944Y-24506936D01*
X7424944Y-24506936D02*
X7415420Y-24516460D01*
X7415420Y-24516460D02*
X7396372Y-24525984D01*
X7396372Y-24525984D02*
X7377325Y-24525984D01*
X7377325Y-24525984D02*
X7358277Y-24516460D01*
X7358277Y-24516460D02*
X7348753Y-24506936D01*
X7348753Y-24506936D02*
X7339229Y-24487888D01*
X7339229Y-24487888D02*
X7329706Y-24449793D01*
X7329706Y-24449793D02*
X7329706Y-24402174D01*
X7329706Y-24402174D02*
X7339229Y-24364079D01*
X7339229Y-24364079D02*
X7348753Y-24345031D01*
X7348753Y-24345031D02*
X7358277Y-24335508D01*
X7358277Y-24335508D02*
X7377325Y-24325984D01*
X7682087Y-24525984D02*
X7682087Y-24325984D01*
X7767801Y-24525984D02*
X7767801Y-24421222D01*
X7767801Y-24421222D02*
X7758277Y-24402174D01*
X7758277Y-24402174D02*
X7739230Y-24392650D01*
X7739230Y-24392650D02*
X7710658Y-24392650D01*
X7710658Y-24392650D02*
X7691610Y-24402174D01*
X7691610Y-24402174D02*
X7682087Y-24411698D01*
X7891610Y-24525984D02*
X7872563Y-24516460D01*
X7872563Y-24516460D02*
X7863039Y-24506936D01*
X7863039Y-24506936D02*
X7853515Y-24487888D01*
X7853515Y-24487888D02*
X7853515Y-24430746D01*
X7853515Y-24430746D02*
X7863039Y-24411698D01*
X7863039Y-24411698D02*
X7872563Y-24402174D01*
X7872563Y-24402174D02*
X7891610Y-24392650D01*
X7891610Y-24392650D02*
X7920182Y-24392650D01*
X7920182Y-24392650D02*
X7939230Y-24402174D01*
X7939230Y-24402174D02*
X7948753Y-24411698D01*
X7948753Y-24411698D02*
X7958277Y-24430746D01*
X7958277Y-24430746D02*
X7958277Y-24487888D01*
X7958277Y-24487888D02*
X7948753Y-24506936D01*
X7948753Y-24506936D02*
X7939230Y-24516460D01*
X7939230Y-24516460D02*
X7920182Y-24525984D01*
X7920182Y-24525984D02*
X7891610Y-24525984D01*
X8072563Y-24525984D02*
X8053515Y-24516460D01*
X8053515Y-24516460D02*
X8043991Y-24497412D01*
X8043991Y-24497412D02*
X8043991Y-24325984D01*
X8224944Y-24516460D02*
X8205896Y-24525984D01*
X8205896Y-24525984D02*
X8167801Y-24525984D01*
X8167801Y-24525984D02*
X8148753Y-24516460D01*
X8148753Y-24516460D02*
X8139230Y-24497412D01*
X8139230Y-24497412D02*
X8139230Y-24421222D01*
X8139230Y-24421222D02*
X8148753Y-24402174D01*
X8148753Y-24402174D02*
X8167801Y-24392650D01*
X8167801Y-24392650D02*
X8205896Y-24392650D01*
X8205896Y-24392650D02*
X8224944Y-24402174D01*
X8224944Y-24402174D02*
X8234468Y-24421222D01*
X8234468Y-24421222D02*
X8234468Y-24440269D01*
X8234468Y-24440269D02*
X8139230Y-24459317D01*
X8310658Y-24516460D02*
X8329706Y-24525984D01*
X8329706Y-24525984D02*
X8367801Y-24525984D01*
X8367801Y-24525984D02*
X8386849Y-24516460D01*
X8386849Y-24516460D02*
X8396373Y-24497412D01*
X8396373Y-24497412D02*
X8396373Y-24487888D01*
X8396373Y-24487888D02*
X8386849Y-24468841D01*
X8386849Y-24468841D02*
X8367801Y-24459317D01*
X8367801Y-24459317D02*
X8339230Y-24459317D01*
X8339230Y-24459317D02*
X8320182Y-24449793D01*
X8320182Y-24449793D02*
X8310658Y-24430746D01*
X8310658Y-24430746D02*
X8310658Y-24421222D01*
X8310658Y-24421222D02*
X8320182Y-24402174D01*
X8320182Y-24402174D02*
X8339230Y-24392650D01*
X8339230Y-24392650D02*
X8367801Y-24392650D01*
X8367801Y-24392650D02*
X8386849Y-24402174D01*
X8463039Y-24602174D02*
X8472563Y-24592650D01*
X8472563Y-24592650D02*
X8491611Y-24564079D01*
X8491611Y-24564079D02*
X8501134Y-24545031D01*
X8501134Y-24545031D02*
X8510658Y-24516460D01*
X8510658Y-24516460D02*
X8520182Y-24468841D01*
X8520182Y-24468841D02*
X8520182Y-24430746D01*
X8520182Y-24430746D02*
X8510658Y-24383127D01*
X8510658Y-24383127D02*
X8501134Y-24354555D01*
X8501134Y-24354555D02*
X8491611Y-24335508D01*
X8491611Y-24335508D02*
X8472563Y-24306936D01*
X8472563Y-24306936D02*
X8463039Y-24297412D01*
D12*
X3447500Y-24748500D02*
X3497500Y-24698500D01*
X3447500Y-24648500D01*
X3397500Y-24698500D01*
X3447500Y-24748500D01*
D11*
X3863039Y-24789984D02*
X3748753Y-24789984D01*
X3805896Y-24789984D02*
X3805896Y-24589984D01*
X3805896Y-24589984D02*
X3786848Y-24618555D01*
X3786848Y-24618555D02*
X3767801Y-24637603D01*
X3767801Y-24637603D02*
X3748753Y-24647127D01*
X3948753Y-24770936D02*
X3958277Y-24780460D01*
X3958277Y-24780460D02*
X3948753Y-24789984D01*
X3948753Y-24789984D02*
X3939229Y-24780460D01*
X3939229Y-24780460D02*
X3948753Y-24770936D01*
X3948753Y-24770936D02*
X3948753Y-24789984D01*
X4082086Y-24589984D02*
X4101134Y-24589984D01*
X4101134Y-24589984D02*
X4120182Y-24599508D01*
X4120182Y-24599508D02*
X4129705Y-24609031D01*
X4129705Y-24609031D02*
X4139229Y-24628079D01*
X4139229Y-24628079D02*
X4148753Y-24666174D01*
X4148753Y-24666174D02*
X4148753Y-24713793D01*
X4148753Y-24713793D02*
X4139229Y-24751888D01*
X4139229Y-24751888D02*
X4129705Y-24770936D01*
X4129705Y-24770936D02*
X4120182Y-24780460D01*
X4120182Y-24780460D02*
X4101134Y-24789984D01*
X4101134Y-24789984D02*
X4082086Y-24789984D01*
X4082086Y-24789984D02*
X4063039Y-24780460D01*
X4063039Y-24780460D02*
X4053515Y-24770936D01*
X4053515Y-24770936D02*
X4043991Y-24751888D01*
X4043991Y-24751888D02*
X4034467Y-24713793D01*
X4034467Y-24713793D02*
X4034467Y-24666174D01*
X4034467Y-24666174D02*
X4043991Y-24628079D01*
X4043991Y-24628079D02*
X4053515Y-24609031D01*
X4053515Y-24609031D02*
X4063039Y-24599508D01*
X4063039Y-24599508D02*
X4082086Y-24589984D01*
X4272563Y-24589984D02*
X4291610Y-24589984D01*
X4291610Y-24589984D02*
X4310658Y-24599508D01*
X4310658Y-24599508D02*
X4320182Y-24609031D01*
X4320182Y-24609031D02*
X4329705Y-24628079D01*
X4329705Y-24628079D02*
X4339229Y-24666174D01*
X4339229Y-24666174D02*
X4339229Y-24713793D01*
X4339229Y-24713793D02*
X4329705Y-24751888D01*
X4329705Y-24751888D02*
X4320182Y-24770936D01*
X4320182Y-24770936D02*
X4310658Y-24780460D01*
X4310658Y-24780460D02*
X4291610Y-24789984D01*
X4291610Y-24789984D02*
X4272563Y-24789984D01*
X4272563Y-24789984D02*
X4253515Y-24780460D01*
X4253515Y-24780460D02*
X4243991Y-24770936D01*
X4243991Y-24770936D02*
X4234467Y-24751888D01*
X4234467Y-24751888D02*
X4224944Y-24713793D01*
X4224944Y-24713793D02*
X4224944Y-24666174D01*
X4224944Y-24666174D02*
X4234467Y-24628079D01*
X4234467Y-24628079D02*
X4243991Y-24609031D01*
X4243991Y-24609031D02*
X4253515Y-24599508D01*
X4253515Y-24599508D02*
X4272563Y-24589984D01*
X4463039Y-24589984D02*
X4482086Y-24589984D01*
X4482086Y-24589984D02*
X4501134Y-24599508D01*
X4501134Y-24599508D02*
X4510658Y-24609031D01*
X4510658Y-24609031D02*
X4520182Y-24628079D01*
X4520182Y-24628079D02*
X4529705Y-24666174D01*
X4529705Y-24666174D02*
X4529705Y-24713793D01*
X4529705Y-24713793D02*
X4520182Y-24751888D01*
X4520182Y-24751888D02*
X4510658Y-24770936D01*
X4510658Y-24770936D02*
X4501134Y-24780460D01*
X4501134Y-24780460D02*
X4482086Y-24789984D01*
X4482086Y-24789984D02*
X4463039Y-24789984D01*
X4463039Y-24789984D02*
X4443991Y-24780460D01*
X4443991Y-24780460D02*
X4434467Y-24770936D01*
X4434467Y-24770936D02*
X4424944Y-24751888D01*
X4424944Y-24751888D02*
X4415420Y-24713793D01*
X4415420Y-24713793D02*
X4415420Y-24666174D01*
X4415420Y-24666174D02*
X4424944Y-24628079D01*
X4424944Y-24628079D02*
X4434467Y-24609031D01*
X4434467Y-24609031D02*
X4443991Y-24599508D01*
X4443991Y-24599508D02*
X4463039Y-24589984D01*
X4615420Y-24789984D02*
X4615420Y-24656650D01*
X4615420Y-24675698D02*
X4624944Y-24666174D01*
X4624944Y-24666174D02*
X4643991Y-24656650D01*
X4643991Y-24656650D02*
X4672563Y-24656650D01*
X4672563Y-24656650D02*
X4691610Y-24666174D01*
X4691610Y-24666174D02*
X4701134Y-24685222D01*
X4701134Y-24685222D02*
X4701134Y-24789984D01*
X4701134Y-24685222D02*
X4710658Y-24666174D01*
X4710658Y-24666174D02*
X4729705Y-24656650D01*
X4729705Y-24656650D02*
X4758277Y-24656650D01*
X4758277Y-24656650D02*
X4777325Y-24666174D01*
X4777325Y-24666174D02*
X4786848Y-24685222D01*
X4786848Y-24685222D02*
X4786848Y-24789984D01*
X4882086Y-24789984D02*
X4882086Y-24656650D01*
X4882086Y-24675698D02*
X4891610Y-24666174D01*
X4891610Y-24666174D02*
X4910658Y-24656650D01*
X4910658Y-24656650D02*
X4939229Y-24656650D01*
X4939229Y-24656650D02*
X4958277Y-24666174D01*
X4958277Y-24666174D02*
X4967801Y-24685222D01*
X4967801Y-24685222D02*
X4967801Y-24789984D01*
X4967801Y-24685222D02*
X4977325Y-24666174D01*
X4977325Y-24666174D02*
X4996372Y-24656650D01*
X4996372Y-24656650D02*
X5024944Y-24656650D01*
X5024944Y-24656650D02*
X5043991Y-24666174D01*
X5043991Y-24666174D02*
X5053515Y-24685222D01*
X5053515Y-24685222D02*
X5053515Y-24789984D01*
X5443991Y-24580460D02*
X5272563Y-24837603D01*
X5701134Y-24589984D02*
X5720182Y-24589984D01*
X5720182Y-24589984D02*
X5739229Y-24599508D01*
X5739229Y-24599508D02*
X5748753Y-24609031D01*
X5748753Y-24609031D02*
X5758277Y-24628079D01*
X5758277Y-24628079D02*
X5767801Y-24666174D01*
X5767801Y-24666174D02*
X5767801Y-24713793D01*
X5767801Y-24713793D02*
X5758277Y-24751888D01*
X5758277Y-24751888D02*
X5748753Y-24770936D01*
X5748753Y-24770936D02*
X5739229Y-24780460D01*
X5739229Y-24780460D02*
X5720182Y-24789984D01*
X5720182Y-24789984D02*
X5701134Y-24789984D01*
X5701134Y-24789984D02*
X5682086Y-24780460D01*
X5682086Y-24780460D02*
X5672563Y-24770936D01*
X5672563Y-24770936D02*
X5663039Y-24751888D01*
X5663039Y-24751888D02*
X5653515Y-24713793D01*
X5653515Y-24713793D02*
X5653515Y-24666174D01*
X5653515Y-24666174D02*
X5663039Y-24628079D01*
X5663039Y-24628079D02*
X5672563Y-24609031D01*
X5672563Y-24609031D02*
X5682086Y-24599508D01*
X5682086Y-24599508D02*
X5701134Y-24589984D01*
X5853515Y-24770936D02*
X5863039Y-24780460D01*
X5863039Y-24780460D02*
X5853515Y-24789984D01*
X5853515Y-24789984D02*
X5843991Y-24780460D01*
X5843991Y-24780460D02*
X5853515Y-24770936D01*
X5853515Y-24770936D02*
X5853515Y-24789984D01*
X5986848Y-24589984D02*
X6005896Y-24589984D01*
X6005896Y-24589984D02*
X6024944Y-24599508D01*
X6024944Y-24599508D02*
X6034467Y-24609031D01*
X6034467Y-24609031D02*
X6043991Y-24628079D01*
X6043991Y-24628079D02*
X6053515Y-24666174D01*
X6053515Y-24666174D02*
X6053515Y-24713793D01*
X6053515Y-24713793D02*
X6043991Y-24751888D01*
X6043991Y-24751888D02*
X6034467Y-24770936D01*
X6034467Y-24770936D02*
X6024944Y-24780460D01*
X6024944Y-24780460D02*
X6005896Y-24789984D01*
X6005896Y-24789984D02*
X5986848Y-24789984D01*
X5986848Y-24789984D02*
X5967801Y-24780460D01*
X5967801Y-24780460D02*
X5958277Y-24770936D01*
X5958277Y-24770936D02*
X5948753Y-24751888D01*
X5948753Y-24751888D02*
X5939229Y-24713793D01*
X5939229Y-24713793D02*
X5939229Y-24666174D01*
X5939229Y-24666174D02*
X5948753Y-24628079D01*
X5948753Y-24628079D02*
X5958277Y-24609031D01*
X5958277Y-24609031D02*
X5967801Y-24599508D01*
X5967801Y-24599508D02*
X5986848Y-24589984D01*
X6120182Y-24589984D02*
X6243991Y-24589984D01*
X6243991Y-24589984D02*
X6177325Y-24666174D01*
X6177325Y-24666174D02*
X6205896Y-24666174D01*
X6205896Y-24666174D02*
X6224944Y-24675698D01*
X6224944Y-24675698D02*
X6234467Y-24685222D01*
X6234467Y-24685222D02*
X6243991Y-24704269D01*
X6243991Y-24704269D02*
X6243991Y-24751888D01*
X6243991Y-24751888D02*
X6234467Y-24770936D01*
X6234467Y-24770936D02*
X6224944Y-24780460D01*
X6224944Y-24780460D02*
X6205896Y-24789984D01*
X6205896Y-24789984D02*
X6148753Y-24789984D01*
X6148753Y-24789984D02*
X6129706Y-24780460D01*
X6129706Y-24780460D02*
X6120182Y-24770936D01*
X6339229Y-24789984D02*
X6377325Y-24789984D01*
X6377325Y-24789984D02*
X6396372Y-24780460D01*
X6396372Y-24780460D02*
X6405896Y-24770936D01*
X6405896Y-24770936D02*
X6424944Y-24742365D01*
X6424944Y-24742365D02*
X6434467Y-24704269D01*
X6434467Y-24704269D02*
X6434467Y-24628079D01*
X6434467Y-24628079D02*
X6424944Y-24609031D01*
X6424944Y-24609031D02*
X6415420Y-24599508D01*
X6415420Y-24599508D02*
X6396372Y-24589984D01*
X6396372Y-24589984D02*
X6358277Y-24589984D01*
X6358277Y-24589984D02*
X6339229Y-24599508D01*
X6339229Y-24599508D02*
X6329706Y-24609031D01*
X6329706Y-24609031D02*
X6320182Y-24628079D01*
X6320182Y-24628079D02*
X6320182Y-24675698D01*
X6320182Y-24675698D02*
X6329706Y-24694746D01*
X6329706Y-24694746D02*
X6339229Y-24704269D01*
X6339229Y-24704269D02*
X6358277Y-24713793D01*
X6358277Y-24713793D02*
X6396372Y-24713793D01*
X6396372Y-24713793D02*
X6415420Y-24704269D01*
X6415420Y-24704269D02*
X6424944Y-24694746D01*
X6424944Y-24694746D02*
X6434467Y-24675698D01*
X6605896Y-24656650D02*
X6605896Y-24789984D01*
X6558277Y-24580460D02*
X6510658Y-24723317D01*
X6510658Y-24723317D02*
X6634467Y-24723317D01*
X6701134Y-24589984D02*
X6701134Y-24628079D01*
X6777325Y-24589984D02*
X6777325Y-24628079D01*
X7072563Y-24866174D02*
X7063039Y-24856650D01*
X7063039Y-24856650D02*
X7043991Y-24828079D01*
X7043991Y-24828079D02*
X7034468Y-24809031D01*
X7034468Y-24809031D02*
X7024944Y-24780460D01*
X7024944Y-24780460D02*
X7015420Y-24732841D01*
X7015420Y-24732841D02*
X7015420Y-24694746D01*
X7015420Y-24694746D02*
X7024944Y-24647127D01*
X7024944Y-24647127D02*
X7034468Y-24618555D01*
X7034468Y-24618555D02*
X7043991Y-24599508D01*
X7043991Y-24599508D02*
X7063039Y-24570936D01*
X7063039Y-24570936D02*
X7072563Y-24561412D01*
X7158277Y-24789984D02*
X7196372Y-24789984D01*
X7196372Y-24789984D02*
X7215420Y-24780460D01*
X7215420Y-24780460D02*
X7224944Y-24770936D01*
X7224944Y-24770936D02*
X7243991Y-24742365D01*
X7243991Y-24742365D02*
X7253515Y-24704269D01*
X7253515Y-24704269D02*
X7253515Y-24628079D01*
X7253515Y-24628079D02*
X7243991Y-24609031D01*
X7243991Y-24609031D02*
X7234468Y-24599508D01*
X7234468Y-24599508D02*
X7215420Y-24589984D01*
X7215420Y-24589984D02*
X7177325Y-24589984D01*
X7177325Y-24589984D02*
X7158277Y-24599508D01*
X7158277Y-24599508D02*
X7148753Y-24609031D01*
X7148753Y-24609031D02*
X7139229Y-24628079D01*
X7139229Y-24628079D02*
X7139229Y-24675698D01*
X7139229Y-24675698D02*
X7148753Y-24694746D01*
X7148753Y-24694746D02*
X7158277Y-24704269D01*
X7158277Y-24704269D02*
X7177325Y-24713793D01*
X7177325Y-24713793D02*
X7215420Y-24713793D01*
X7215420Y-24713793D02*
X7234468Y-24704269D01*
X7234468Y-24704269D02*
X7243991Y-24694746D01*
X7243991Y-24694746D02*
X7253515Y-24675698D01*
X7424944Y-24589984D02*
X7386848Y-24589984D01*
X7386848Y-24589984D02*
X7367801Y-24599508D01*
X7367801Y-24599508D02*
X7358277Y-24609031D01*
X7358277Y-24609031D02*
X7339229Y-24637603D01*
X7339229Y-24637603D02*
X7329706Y-24675698D01*
X7329706Y-24675698D02*
X7329706Y-24751888D01*
X7329706Y-24751888D02*
X7339229Y-24770936D01*
X7339229Y-24770936D02*
X7348753Y-24780460D01*
X7348753Y-24780460D02*
X7367801Y-24789984D01*
X7367801Y-24789984D02*
X7405896Y-24789984D01*
X7405896Y-24789984D02*
X7424944Y-24780460D01*
X7424944Y-24780460D02*
X7434468Y-24770936D01*
X7434468Y-24770936D02*
X7443991Y-24751888D01*
X7443991Y-24751888D02*
X7443991Y-24704269D01*
X7443991Y-24704269D02*
X7434468Y-24685222D01*
X7434468Y-24685222D02*
X7424944Y-24675698D01*
X7424944Y-24675698D02*
X7405896Y-24666174D01*
X7405896Y-24666174D02*
X7367801Y-24666174D01*
X7367801Y-24666174D02*
X7348753Y-24675698D01*
X7348753Y-24675698D02*
X7339229Y-24685222D01*
X7339229Y-24685222D02*
X7329706Y-24704269D01*
X7682087Y-24789984D02*
X7682087Y-24589984D01*
X7767801Y-24789984D02*
X7767801Y-24685222D01*
X7767801Y-24685222D02*
X7758277Y-24666174D01*
X7758277Y-24666174D02*
X7739230Y-24656650D01*
X7739230Y-24656650D02*
X7710658Y-24656650D01*
X7710658Y-24656650D02*
X7691610Y-24666174D01*
X7691610Y-24666174D02*
X7682087Y-24675698D01*
X7891610Y-24789984D02*
X7872563Y-24780460D01*
X7872563Y-24780460D02*
X7863039Y-24770936D01*
X7863039Y-24770936D02*
X7853515Y-24751888D01*
X7853515Y-24751888D02*
X7853515Y-24694746D01*
X7853515Y-24694746D02*
X7863039Y-24675698D01*
X7863039Y-24675698D02*
X7872563Y-24666174D01*
X7872563Y-24666174D02*
X7891610Y-24656650D01*
X7891610Y-24656650D02*
X7920182Y-24656650D01*
X7920182Y-24656650D02*
X7939230Y-24666174D01*
X7939230Y-24666174D02*
X7948753Y-24675698D01*
X7948753Y-24675698D02*
X7958277Y-24694746D01*
X7958277Y-24694746D02*
X7958277Y-24751888D01*
X7958277Y-24751888D02*
X7948753Y-24770936D01*
X7948753Y-24770936D02*
X7939230Y-24780460D01*
X7939230Y-24780460D02*
X7920182Y-24789984D01*
X7920182Y-24789984D02*
X7891610Y-24789984D01*
X8072563Y-24789984D02*
X8053515Y-24780460D01*
X8053515Y-24780460D02*
X8043991Y-24761412D01*
X8043991Y-24761412D02*
X8043991Y-24589984D01*
X8224944Y-24780460D02*
X8205896Y-24789984D01*
X8205896Y-24789984D02*
X8167801Y-24789984D01*
X8167801Y-24789984D02*
X8148753Y-24780460D01*
X8148753Y-24780460D02*
X8139230Y-24761412D01*
X8139230Y-24761412D02*
X8139230Y-24685222D01*
X8139230Y-24685222D02*
X8148753Y-24666174D01*
X8148753Y-24666174D02*
X8167801Y-24656650D01*
X8167801Y-24656650D02*
X8205896Y-24656650D01*
X8205896Y-24656650D02*
X8224944Y-24666174D01*
X8224944Y-24666174D02*
X8234468Y-24685222D01*
X8234468Y-24685222D02*
X8234468Y-24704269D01*
X8234468Y-24704269D02*
X8139230Y-24723317D01*
X8310658Y-24780460D02*
X8329706Y-24789984D01*
X8329706Y-24789984D02*
X8367801Y-24789984D01*
X8367801Y-24789984D02*
X8386849Y-24780460D01*
X8386849Y-24780460D02*
X8396373Y-24761412D01*
X8396373Y-24761412D02*
X8396373Y-24751888D01*
X8396373Y-24751888D02*
X8386849Y-24732841D01*
X8386849Y-24732841D02*
X8367801Y-24723317D01*
X8367801Y-24723317D02*
X8339230Y-24723317D01*
X8339230Y-24723317D02*
X8320182Y-24713793D01*
X8320182Y-24713793D02*
X8310658Y-24694746D01*
X8310658Y-24694746D02*
X8310658Y-24685222D01*
X8310658Y-24685222D02*
X8320182Y-24666174D01*
X8320182Y-24666174D02*
X8339230Y-24656650D01*
X8339230Y-24656650D02*
X8367801Y-24656650D01*
X8367801Y-24656650D02*
X8386849Y-24666174D01*
X8634468Y-24713793D02*
X8786849Y-24713793D01*
X8710658Y-24789984D02*
X8710658Y-24637603D01*
X9015420Y-24589984D02*
X9139230Y-24589984D01*
X9139230Y-24589984D02*
X9072563Y-24666174D01*
X9072563Y-24666174D02*
X9101135Y-24666174D01*
X9101135Y-24666174D02*
X9120182Y-24675698D01*
X9120182Y-24675698D02*
X9129706Y-24685222D01*
X9129706Y-24685222D02*
X9139230Y-24704269D01*
X9139230Y-24704269D02*
X9139230Y-24751888D01*
X9139230Y-24751888D02*
X9129706Y-24770936D01*
X9129706Y-24770936D02*
X9120182Y-24780460D01*
X9120182Y-24780460D02*
X9101135Y-24789984D01*
X9101135Y-24789984D02*
X9043992Y-24789984D01*
X9043992Y-24789984D02*
X9024944Y-24780460D01*
X9024944Y-24780460D02*
X9015420Y-24770936D01*
X9205896Y-24589984D02*
X9329706Y-24589984D01*
X9329706Y-24589984D02*
X9263039Y-24666174D01*
X9263039Y-24666174D02*
X9291611Y-24666174D01*
X9291611Y-24666174D02*
X9310658Y-24675698D01*
X9310658Y-24675698D02*
X9320182Y-24685222D01*
X9320182Y-24685222D02*
X9329706Y-24704269D01*
X9329706Y-24704269D02*
X9329706Y-24751888D01*
X9329706Y-24751888D02*
X9320182Y-24770936D01*
X9320182Y-24770936D02*
X9310658Y-24780460D01*
X9310658Y-24780460D02*
X9291611Y-24789984D01*
X9291611Y-24789984D02*
X9234468Y-24789984D01*
X9234468Y-24789984D02*
X9215420Y-24780460D01*
X9215420Y-24780460D02*
X9205896Y-24770936D01*
X9558277Y-24780460D02*
X9577325Y-24789984D01*
X9577325Y-24789984D02*
X9615420Y-24789984D01*
X9615420Y-24789984D02*
X9634468Y-24780460D01*
X9634468Y-24780460D02*
X9643992Y-24761412D01*
X9643992Y-24761412D02*
X9643992Y-24751888D01*
X9643992Y-24751888D02*
X9634468Y-24732841D01*
X9634468Y-24732841D02*
X9615420Y-24723317D01*
X9615420Y-24723317D02*
X9586849Y-24723317D01*
X9586849Y-24723317D02*
X9567801Y-24713793D01*
X9567801Y-24713793D02*
X9558277Y-24694746D01*
X9558277Y-24694746D02*
X9558277Y-24685222D01*
X9558277Y-24685222D02*
X9567801Y-24666174D01*
X9567801Y-24666174D02*
X9586849Y-24656650D01*
X9586849Y-24656650D02*
X9615420Y-24656650D01*
X9615420Y-24656650D02*
X9634468Y-24666174D01*
X9758277Y-24789984D02*
X9739230Y-24780460D01*
X9739230Y-24780460D02*
X9729706Y-24761412D01*
X9729706Y-24761412D02*
X9729706Y-24589984D01*
X9863039Y-24789984D02*
X9843992Y-24780460D01*
X9843992Y-24780460D02*
X9834468Y-24770936D01*
X9834468Y-24770936D02*
X9824944Y-24751888D01*
X9824944Y-24751888D02*
X9824944Y-24694746D01*
X9824944Y-24694746D02*
X9834468Y-24675698D01*
X9834468Y-24675698D02*
X9843992Y-24666174D01*
X9843992Y-24666174D02*
X9863039Y-24656650D01*
X9863039Y-24656650D02*
X9891611Y-24656650D01*
X9891611Y-24656650D02*
X9910658Y-24666174D01*
X9910658Y-24666174D02*
X9920182Y-24675698D01*
X9920182Y-24675698D02*
X9929706Y-24694746D01*
X9929706Y-24694746D02*
X9929706Y-24751888D01*
X9929706Y-24751888D02*
X9920182Y-24770936D01*
X9920182Y-24770936D02*
X9910658Y-24780460D01*
X9910658Y-24780460D02*
X9891611Y-24789984D01*
X9891611Y-24789984D02*
X9863039Y-24789984D01*
X9986849Y-24656650D02*
X10063039Y-24656650D01*
X10015420Y-24589984D02*
X10015420Y-24761412D01*
X10015420Y-24761412D02*
X10024944Y-24780460D01*
X10024944Y-24780460D02*
X10043992Y-24789984D01*
X10043992Y-24789984D02*
X10063039Y-24789984D01*
X10120182Y-24780460D02*
X10139230Y-24789984D01*
X10139230Y-24789984D02*
X10177325Y-24789984D01*
X10177325Y-24789984D02*
X10196373Y-24780460D01*
X10196373Y-24780460D02*
X10205897Y-24761412D01*
X10205897Y-24761412D02*
X10205897Y-24751888D01*
X10205897Y-24751888D02*
X10196373Y-24732841D01*
X10196373Y-24732841D02*
X10177325Y-24723317D01*
X10177325Y-24723317D02*
X10148754Y-24723317D01*
X10148754Y-24723317D02*
X10129706Y-24713793D01*
X10129706Y-24713793D02*
X10120182Y-24694746D01*
X10120182Y-24694746D02*
X10120182Y-24685222D01*
X10120182Y-24685222D02*
X10129706Y-24666174D01*
X10129706Y-24666174D02*
X10148754Y-24656650D01*
X10148754Y-24656650D02*
X10177325Y-24656650D01*
X10177325Y-24656650D02*
X10196373Y-24666174D01*
X10272563Y-24866174D02*
X10282087Y-24856650D01*
X10282087Y-24856650D02*
X10301135Y-24828079D01*
X10301135Y-24828079D02*
X10310658Y-24809031D01*
X10310658Y-24809031D02*
X10320182Y-24780460D01*
X10320182Y-24780460D02*
X10329706Y-24732841D01*
X10329706Y-24732841D02*
X10329706Y-24694746D01*
X10329706Y-24694746D02*
X10320182Y-24647127D01*
X10320182Y-24647127D02*
X10310658Y-24618555D01*
X10310658Y-24618555D02*
X10301135Y-24599508D01*
X10301135Y-24599508D02*
X10282087Y-24570936D01*
X10282087Y-24570936D02*
X10272563Y-24561412D01*
D13*
X3387500Y-24907500D02*
X3497500Y-25017500D01*
X3497500Y-24907500D02*
X3387500Y-25017500D01*
X3497500Y-24962500D02*
G75*
G02*
X3387500Y-24962500I-55000J0D01*
G01*
X3387500Y-24962500D02*
G75*
G02*
X3497500Y-24962500I55000J0D01*
G01*
D11*
X3863039Y-25053984D02*
X3748753Y-25053984D01*
X3805896Y-25053984D02*
X3805896Y-24853984D01*
X3805896Y-24853984D02*
X3786848Y-24882555D01*
X3786848Y-24882555D02*
X3767801Y-24901603D01*
X3767801Y-24901603D02*
X3748753Y-24911127D01*
X3948753Y-25034936D02*
X3958277Y-25044460D01*
X3958277Y-25044460D02*
X3948753Y-25053984D01*
X3948753Y-25053984D02*
X3939229Y-25044460D01*
X3939229Y-25044460D02*
X3948753Y-25034936D01*
X3948753Y-25034936D02*
X3948753Y-25053984D01*
X4148753Y-25053984D02*
X4034467Y-25053984D01*
X4091610Y-25053984D02*
X4091610Y-24853984D01*
X4091610Y-24853984D02*
X4072562Y-24882555D01*
X4072562Y-24882555D02*
X4053515Y-24901603D01*
X4053515Y-24901603D02*
X4034467Y-24911127D01*
X4272563Y-24853984D02*
X4291610Y-24853984D01*
X4291610Y-24853984D02*
X4310658Y-24863508D01*
X4310658Y-24863508D02*
X4320182Y-24873031D01*
X4320182Y-24873031D02*
X4329705Y-24892079D01*
X4329705Y-24892079D02*
X4339229Y-24930174D01*
X4339229Y-24930174D02*
X4339229Y-24977793D01*
X4339229Y-24977793D02*
X4329705Y-25015888D01*
X4329705Y-25015888D02*
X4320182Y-25034936D01*
X4320182Y-25034936D02*
X4310658Y-25044460D01*
X4310658Y-25044460D02*
X4291610Y-25053984D01*
X4291610Y-25053984D02*
X4272563Y-25053984D01*
X4272563Y-25053984D02*
X4253515Y-25044460D01*
X4253515Y-25044460D02*
X4243991Y-25034936D01*
X4243991Y-25034936D02*
X4234467Y-25015888D01*
X4234467Y-25015888D02*
X4224944Y-24977793D01*
X4224944Y-24977793D02*
X4224944Y-24930174D01*
X4224944Y-24930174D02*
X4234467Y-24892079D01*
X4234467Y-24892079D02*
X4243991Y-24873031D01*
X4243991Y-24873031D02*
X4253515Y-24863508D01*
X4253515Y-24863508D02*
X4272563Y-24853984D01*
X4463039Y-24853984D02*
X4482086Y-24853984D01*
X4482086Y-24853984D02*
X4501134Y-24863508D01*
X4501134Y-24863508D02*
X4510658Y-24873031D01*
X4510658Y-24873031D02*
X4520182Y-24892079D01*
X4520182Y-24892079D02*
X4529705Y-24930174D01*
X4529705Y-24930174D02*
X4529705Y-24977793D01*
X4529705Y-24977793D02*
X4520182Y-25015888D01*
X4520182Y-25015888D02*
X4510658Y-25034936D01*
X4510658Y-25034936D02*
X4501134Y-25044460D01*
X4501134Y-25044460D02*
X4482086Y-25053984D01*
X4482086Y-25053984D02*
X4463039Y-25053984D01*
X4463039Y-25053984D02*
X4443991Y-25044460D01*
X4443991Y-25044460D02*
X4434467Y-25034936D01*
X4434467Y-25034936D02*
X4424944Y-25015888D01*
X4424944Y-25015888D02*
X4415420Y-24977793D01*
X4415420Y-24977793D02*
X4415420Y-24930174D01*
X4415420Y-24930174D02*
X4424944Y-24892079D01*
X4424944Y-24892079D02*
X4434467Y-24873031D01*
X4434467Y-24873031D02*
X4443991Y-24863508D01*
X4443991Y-24863508D02*
X4463039Y-24853984D01*
X4615420Y-25053984D02*
X4615420Y-24920650D01*
X4615420Y-24939698D02*
X4624944Y-24930174D01*
X4624944Y-24930174D02*
X4643991Y-24920650D01*
X4643991Y-24920650D02*
X4672563Y-24920650D01*
X4672563Y-24920650D02*
X4691610Y-24930174D01*
X4691610Y-24930174D02*
X4701134Y-24949222D01*
X4701134Y-24949222D02*
X4701134Y-25053984D01*
X4701134Y-24949222D02*
X4710658Y-24930174D01*
X4710658Y-24930174D02*
X4729705Y-24920650D01*
X4729705Y-24920650D02*
X4758277Y-24920650D01*
X4758277Y-24920650D02*
X4777325Y-24930174D01*
X4777325Y-24930174D02*
X4786848Y-24949222D01*
X4786848Y-24949222D02*
X4786848Y-25053984D01*
X4882086Y-25053984D02*
X4882086Y-24920650D01*
X4882086Y-24939698D02*
X4891610Y-24930174D01*
X4891610Y-24930174D02*
X4910658Y-24920650D01*
X4910658Y-24920650D02*
X4939229Y-24920650D01*
X4939229Y-24920650D02*
X4958277Y-24930174D01*
X4958277Y-24930174D02*
X4967801Y-24949222D01*
X4967801Y-24949222D02*
X4967801Y-25053984D01*
X4967801Y-24949222D02*
X4977325Y-24930174D01*
X4977325Y-24930174D02*
X4996372Y-24920650D01*
X4996372Y-24920650D02*
X5024944Y-24920650D01*
X5024944Y-24920650D02*
X5043991Y-24930174D01*
X5043991Y-24930174D02*
X5053515Y-24949222D01*
X5053515Y-24949222D02*
X5053515Y-25053984D01*
X5443991Y-24844460D02*
X5272563Y-25101603D01*
X5701134Y-24853984D02*
X5720182Y-24853984D01*
X5720182Y-24853984D02*
X5739229Y-24863508D01*
X5739229Y-24863508D02*
X5748753Y-24873031D01*
X5748753Y-24873031D02*
X5758277Y-24892079D01*
X5758277Y-24892079D02*
X5767801Y-24930174D01*
X5767801Y-24930174D02*
X5767801Y-24977793D01*
X5767801Y-24977793D02*
X5758277Y-25015888D01*
X5758277Y-25015888D02*
X5748753Y-25034936D01*
X5748753Y-25034936D02*
X5739229Y-25044460D01*
X5739229Y-25044460D02*
X5720182Y-25053984D01*
X5720182Y-25053984D02*
X5701134Y-25053984D01*
X5701134Y-25053984D02*
X5682086Y-25044460D01*
X5682086Y-25044460D02*
X5672563Y-25034936D01*
X5672563Y-25034936D02*
X5663039Y-25015888D01*
X5663039Y-25015888D02*
X5653515Y-24977793D01*
X5653515Y-24977793D02*
X5653515Y-24930174D01*
X5653515Y-24930174D02*
X5663039Y-24892079D01*
X5663039Y-24892079D02*
X5672563Y-24873031D01*
X5672563Y-24873031D02*
X5682086Y-24863508D01*
X5682086Y-24863508D02*
X5701134Y-24853984D01*
X5853515Y-25034936D02*
X5863039Y-25044460D01*
X5863039Y-25044460D02*
X5853515Y-25053984D01*
X5853515Y-25053984D02*
X5843991Y-25044460D01*
X5843991Y-25044460D02*
X5853515Y-25034936D01*
X5853515Y-25034936D02*
X5853515Y-25053984D01*
X5986848Y-24853984D02*
X6005896Y-24853984D01*
X6005896Y-24853984D02*
X6024944Y-24863508D01*
X6024944Y-24863508D02*
X6034467Y-24873031D01*
X6034467Y-24873031D02*
X6043991Y-24892079D01*
X6043991Y-24892079D02*
X6053515Y-24930174D01*
X6053515Y-24930174D02*
X6053515Y-24977793D01*
X6053515Y-24977793D02*
X6043991Y-25015888D01*
X6043991Y-25015888D02*
X6034467Y-25034936D01*
X6034467Y-25034936D02*
X6024944Y-25044460D01*
X6024944Y-25044460D02*
X6005896Y-25053984D01*
X6005896Y-25053984D02*
X5986848Y-25053984D01*
X5986848Y-25053984D02*
X5967801Y-25044460D01*
X5967801Y-25044460D02*
X5958277Y-25034936D01*
X5958277Y-25034936D02*
X5948753Y-25015888D01*
X5948753Y-25015888D02*
X5939229Y-24977793D01*
X5939229Y-24977793D02*
X5939229Y-24930174D01*
X5939229Y-24930174D02*
X5948753Y-24892079D01*
X5948753Y-24892079D02*
X5958277Y-24873031D01*
X5958277Y-24873031D02*
X5967801Y-24863508D01*
X5967801Y-24863508D02*
X5986848Y-24853984D01*
X6224944Y-24920650D02*
X6224944Y-25053984D01*
X6177325Y-24844460D02*
X6129706Y-24987317D01*
X6129706Y-24987317D02*
X6253515Y-24987317D01*
X6310658Y-24853984D02*
X6434467Y-24853984D01*
X6434467Y-24853984D02*
X6367801Y-24930174D01*
X6367801Y-24930174D02*
X6396372Y-24930174D01*
X6396372Y-24930174D02*
X6415420Y-24939698D01*
X6415420Y-24939698D02*
X6424944Y-24949222D01*
X6424944Y-24949222D02*
X6434467Y-24968269D01*
X6434467Y-24968269D02*
X6434467Y-25015888D01*
X6434467Y-25015888D02*
X6424944Y-25034936D01*
X6424944Y-25034936D02*
X6415420Y-25044460D01*
X6415420Y-25044460D02*
X6396372Y-25053984D01*
X6396372Y-25053984D02*
X6339229Y-25053984D01*
X6339229Y-25053984D02*
X6320182Y-25044460D01*
X6320182Y-25044460D02*
X6310658Y-25034936D01*
X6501134Y-24853984D02*
X6624944Y-24853984D01*
X6624944Y-24853984D02*
X6558277Y-24930174D01*
X6558277Y-24930174D02*
X6586848Y-24930174D01*
X6586848Y-24930174D02*
X6605896Y-24939698D01*
X6605896Y-24939698D02*
X6615420Y-24949222D01*
X6615420Y-24949222D02*
X6624944Y-24968269D01*
X6624944Y-24968269D02*
X6624944Y-25015888D01*
X6624944Y-25015888D02*
X6615420Y-25034936D01*
X6615420Y-25034936D02*
X6605896Y-25044460D01*
X6605896Y-25044460D02*
X6586848Y-25053984D01*
X6586848Y-25053984D02*
X6529706Y-25053984D01*
X6529706Y-25053984D02*
X6510658Y-25044460D01*
X6510658Y-25044460D02*
X6501134Y-25034936D01*
X6701134Y-24853984D02*
X6701134Y-24892079D01*
X6777325Y-24853984D02*
X6777325Y-24892079D01*
X7072563Y-25130174D02*
X7063039Y-25120650D01*
X7063039Y-25120650D02*
X7043991Y-25092079D01*
X7043991Y-25092079D02*
X7034468Y-25073031D01*
X7034468Y-25073031D02*
X7024944Y-25044460D01*
X7024944Y-25044460D02*
X7015420Y-24996841D01*
X7015420Y-24996841D02*
X7015420Y-24958746D01*
X7015420Y-24958746D02*
X7024944Y-24911127D01*
X7024944Y-24911127D02*
X7034468Y-24882555D01*
X7034468Y-24882555D02*
X7043991Y-24863508D01*
X7043991Y-24863508D02*
X7063039Y-24834936D01*
X7063039Y-24834936D02*
X7072563Y-24825412D01*
X7234468Y-24920650D02*
X7234468Y-25053984D01*
X7186848Y-24844460D02*
X7139229Y-24987317D01*
X7139229Y-24987317D02*
X7263039Y-24987317D01*
X7491610Y-25053984D02*
X7491610Y-24853984D01*
X7577325Y-25053984D02*
X7577325Y-24949222D01*
X7577325Y-24949222D02*
X7567801Y-24930174D01*
X7567801Y-24930174D02*
X7548753Y-24920650D01*
X7548753Y-24920650D02*
X7520182Y-24920650D01*
X7520182Y-24920650D02*
X7501134Y-24930174D01*
X7501134Y-24930174D02*
X7491610Y-24939698D01*
X7701134Y-25053984D02*
X7682087Y-25044460D01*
X7682087Y-25044460D02*
X7672563Y-25034936D01*
X7672563Y-25034936D02*
X7663039Y-25015888D01*
X7663039Y-25015888D02*
X7663039Y-24958746D01*
X7663039Y-24958746D02*
X7672563Y-24939698D01*
X7672563Y-24939698D02*
X7682087Y-24930174D01*
X7682087Y-24930174D02*
X7701134Y-24920650D01*
X7701134Y-24920650D02*
X7729706Y-24920650D01*
X7729706Y-24920650D02*
X7748753Y-24930174D01*
X7748753Y-24930174D02*
X7758277Y-24939698D01*
X7758277Y-24939698D02*
X7767801Y-24958746D01*
X7767801Y-24958746D02*
X7767801Y-25015888D01*
X7767801Y-25015888D02*
X7758277Y-25034936D01*
X7758277Y-25034936D02*
X7748753Y-25044460D01*
X7748753Y-25044460D02*
X7729706Y-25053984D01*
X7729706Y-25053984D02*
X7701134Y-25053984D01*
X7882087Y-25053984D02*
X7863039Y-25044460D01*
X7863039Y-25044460D02*
X7853515Y-25025412D01*
X7853515Y-25025412D02*
X7853515Y-24853984D01*
X8034468Y-25044460D02*
X8015420Y-25053984D01*
X8015420Y-25053984D02*
X7977325Y-25053984D01*
X7977325Y-25053984D02*
X7958277Y-25044460D01*
X7958277Y-25044460D02*
X7948753Y-25025412D01*
X7948753Y-25025412D02*
X7948753Y-24949222D01*
X7948753Y-24949222D02*
X7958277Y-24930174D01*
X7958277Y-24930174D02*
X7977325Y-24920650D01*
X7977325Y-24920650D02*
X8015420Y-24920650D01*
X8015420Y-24920650D02*
X8034468Y-24930174D01*
X8034468Y-24930174D02*
X8043991Y-24949222D01*
X8043991Y-24949222D02*
X8043991Y-24968269D01*
X8043991Y-24968269D02*
X7948753Y-24987317D01*
X8120182Y-25044460D02*
X8139230Y-25053984D01*
X8139230Y-25053984D02*
X8177325Y-25053984D01*
X8177325Y-25053984D02*
X8196372Y-25044460D01*
X8196372Y-25044460D02*
X8205896Y-25025412D01*
X8205896Y-25025412D02*
X8205896Y-25015888D01*
X8205896Y-25015888D02*
X8196372Y-24996841D01*
X8196372Y-24996841D02*
X8177325Y-24987317D01*
X8177325Y-24987317D02*
X8148753Y-24987317D01*
X8148753Y-24987317D02*
X8129706Y-24977793D01*
X8129706Y-24977793D02*
X8120182Y-24958746D01*
X8120182Y-24958746D02*
X8120182Y-24949222D01*
X8120182Y-24949222D02*
X8129706Y-24930174D01*
X8129706Y-24930174D02*
X8148753Y-24920650D01*
X8148753Y-24920650D02*
X8177325Y-24920650D01*
X8177325Y-24920650D02*
X8196372Y-24930174D01*
X8272563Y-25130174D02*
X8282087Y-25120650D01*
X8282087Y-25120650D02*
X8301134Y-25092079D01*
X8301134Y-25092079D02*
X8310658Y-25073031D01*
X8310658Y-25073031D02*
X8320182Y-25044460D01*
X8320182Y-25044460D02*
X8329706Y-24996841D01*
X8329706Y-24996841D02*
X8329706Y-24958746D01*
X8329706Y-24958746D02*
X8320182Y-24911127D01*
X8320182Y-24911127D02*
X8310658Y-24882555D01*
X8310658Y-24882555D02*
X8301134Y-24863508D01*
X8301134Y-24863508D02*
X8282087Y-24834936D01*
X8282087Y-24834936D02*
X8272563Y-24825412D01*
X3297500Y-25126500D02*
X3497500Y-25326500D01*
X3497500Y-25126500D02*
X3297500Y-25326500D01*
X3397500Y-25126500D02*
X3397500Y-25326500D01*
X3297500Y-25226500D02*
X3497500Y-25226500D01*
X3739229Y-25117984D02*
X3863039Y-25117984D01*
X3863039Y-25117984D02*
X3796372Y-25194174D01*
X3796372Y-25194174D02*
X3824943Y-25194174D01*
X3824943Y-25194174D02*
X3843991Y-25203698D01*
X3843991Y-25203698D02*
X3853515Y-25213222D01*
X3853515Y-25213222D02*
X3863039Y-25232269D01*
X3863039Y-25232269D02*
X3863039Y-25279888D01*
X3863039Y-25279888D02*
X3853515Y-25298936D01*
X3853515Y-25298936D02*
X3843991Y-25308460D01*
X3843991Y-25308460D02*
X3824943Y-25317984D01*
X3824943Y-25317984D02*
X3767801Y-25317984D01*
X3767801Y-25317984D02*
X3748753Y-25308460D01*
X3748753Y-25308460D02*
X3739229Y-25298936D01*
X3948753Y-25298936D02*
X3958277Y-25308460D01*
X3958277Y-25308460D02*
X3948753Y-25317984D01*
X3948753Y-25317984D02*
X3939229Y-25308460D01*
X3939229Y-25308460D02*
X3948753Y-25298936D01*
X3948753Y-25298936D02*
X3948753Y-25317984D01*
X4034467Y-25137031D02*
X4043991Y-25127508D01*
X4043991Y-25127508D02*
X4063039Y-25117984D01*
X4063039Y-25117984D02*
X4110658Y-25117984D01*
X4110658Y-25117984D02*
X4129705Y-25127508D01*
X4129705Y-25127508D02*
X4139229Y-25137031D01*
X4139229Y-25137031D02*
X4148753Y-25156079D01*
X4148753Y-25156079D02*
X4148753Y-25175127D01*
X4148753Y-25175127D02*
X4139229Y-25203698D01*
X4139229Y-25203698D02*
X4024943Y-25317984D01*
X4024943Y-25317984D02*
X4148753Y-25317984D01*
X4272563Y-25117984D02*
X4291610Y-25117984D01*
X4291610Y-25117984D02*
X4310658Y-25127508D01*
X4310658Y-25127508D02*
X4320182Y-25137031D01*
X4320182Y-25137031D02*
X4329705Y-25156079D01*
X4329705Y-25156079D02*
X4339229Y-25194174D01*
X4339229Y-25194174D02*
X4339229Y-25241793D01*
X4339229Y-25241793D02*
X4329705Y-25279888D01*
X4329705Y-25279888D02*
X4320182Y-25298936D01*
X4320182Y-25298936D02*
X4310658Y-25308460D01*
X4310658Y-25308460D02*
X4291610Y-25317984D01*
X4291610Y-25317984D02*
X4272563Y-25317984D01*
X4272563Y-25317984D02*
X4253515Y-25308460D01*
X4253515Y-25308460D02*
X4243991Y-25298936D01*
X4243991Y-25298936D02*
X4234467Y-25279888D01*
X4234467Y-25279888D02*
X4224944Y-25241793D01*
X4224944Y-25241793D02*
X4224944Y-25194174D01*
X4224944Y-25194174D02*
X4234467Y-25156079D01*
X4234467Y-25156079D02*
X4243991Y-25137031D01*
X4243991Y-25137031D02*
X4253515Y-25127508D01*
X4253515Y-25127508D02*
X4272563Y-25117984D01*
X4463039Y-25117984D02*
X4482086Y-25117984D01*
X4482086Y-25117984D02*
X4501134Y-25127508D01*
X4501134Y-25127508D02*
X4510658Y-25137031D01*
X4510658Y-25137031D02*
X4520182Y-25156079D01*
X4520182Y-25156079D02*
X4529705Y-25194174D01*
X4529705Y-25194174D02*
X4529705Y-25241793D01*
X4529705Y-25241793D02*
X4520182Y-25279888D01*
X4520182Y-25279888D02*
X4510658Y-25298936D01*
X4510658Y-25298936D02*
X4501134Y-25308460D01*
X4501134Y-25308460D02*
X4482086Y-25317984D01*
X4482086Y-25317984D02*
X4463039Y-25317984D01*
X4463039Y-25317984D02*
X4443991Y-25308460D01*
X4443991Y-25308460D02*
X4434467Y-25298936D01*
X4434467Y-25298936D02*
X4424944Y-25279888D01*
X4424944Y-25279888D02*
X4415420Y-25241793D01*
X4415420Y-25241793D02*
X4415420Y-25194174D01*
X4415420Y-25194174D02*
X4424944Y-25156079D01*
X4424944Y-25156079D02*
X4434467Y-25137031D01*
X4434467Y-25137031D02*
X4443991Y-25127508D01*
X4443991Y-25127508D02*
X4463039Y-25117984D01*
X4615420Y-25317984D02*
X4615420Y-25184650D01*
X4615420Y-25203698D02*
X4624944Y-25194174D01*
X4624944Y-25194174D02*
X4643991Y-25184650D01*
X4643991Y-25184650D02*
X4672563Y-25184650D01*
X4672563Y-25184650D02*
X4691610Y-25194174D01*
X4691610Y-25194174D02*
X4701134Y-25213222D01*
X4701134Y-25213222D02*
X4701134Y-25317984D01*
X4701134Y-25213222D02*
X4710658Y-25194174D01*
X4710658Y-25194174D02*
X4729705Y-25184650D01*
X4729705Y-25184650D02*
X4758277Y-25184650D01*
X4758277Y-25184650D02*
X4777325Y-25194174D01*
X4777325Y-25194174D02*
X4786848Y-25213222D01*
X4786848Y-25213222D02*
X4786848Y-25317984D01*
X4882086Y-25317984D02*
X4882086Y-25184650D01*
X4882086Y-25203698D02*
X4891610Y-25194174D01*
X4891610Y-25194174D02*
X4910658Y-25184650D01*
X4910658Y-25184650D02*
X4939229Y-25184650D01*
X4939229Y-25184650D02*
X4958277Y-25194174D01*
X4958277Y-25194174D02*
X4967801Y-25213222D01*
X4967801Y-25213222D02*
X4967801Y-25317984D01*
X4967801Y-25213222D02*
X4977325Y-25194174D01*
X4977325Y-25194174D02*
X4996372Y-25184650D01*
X4996372Y-25184650D02*
X5024944Y-25184650D01*
X5024944Y-25184650D02*
X5043991Y-25194174D01*
X5043991Y-25194174D02*
X5053515Y-25213222D01*
X5053515Y-25213222D02*
X5053515Y-25317984D01*
X5443991Y-25108460D02*
X5272563Y-25365603D01*
X5701134Y-25117984D02*
X5720182Y-25117984D01*
X5720182Y-25117984D02*
X5739229Y-25127508D01*
X5739229Y-25127508D02*
X5748753Y-25137031D01*
X5748753Y-25137031D02*
X5758277Y-25156079D01*
X5758277Y-25156079D02*
X5767801Y-25194174D01*
X5767801Y-25194174D02*
X5767801Y-25241793D01*
X5767801Y-25241793D02*
X5758277Y-25279888D01*
X5758277Y-25279888D02*
X5748753Y-25298936D01*
X5748753Y-25298936D02*
X5739229Y-25308460D01*
X5739229Y-25308460D02*
X5720182Y-25317984D01*
X5720182Y-25317984D02*
X5701134Y-25317984D01*
X5701134Y-25317984D02*
X5682086Y-25308460D01*
X5682086Y-25308460D02*
X5672563Y-25298936D01*
X5672563Y-25298936D02*
X5663039Y-25279888D01*
X5663039Y-25279888D02*
X5653515Y-25241793D01*
X5653515Y-25241793D02*
X5653515Y-25194174D01*
X5653515Y-25194174D02*
X5663039Y-25156079D01*
X5663039Y-25156079D02*
X5672563Y-25137031D01*
X5672563Y-25137031D02*
X5682086Y-25127508D01*
X5682086Y-25127508D02*
X5701134Y-25117984D01*
X5853515Y-25298936D02*
X5863039Y-25308460D01*
X5863039Y-25308460D02*
X5853515Y-25317984D01*
X5853515Y-25317984D02*
X5843991Y-25308460D01*
X5843991Y-25308460D02*
X5853515Y-25298936D01*
X5853515Y-25298936D02*
X5853515Y-25317984D01*
X6053515Y-25317984D02*
X5939229Y-25317984D01*
X5996372Y-25317984D02*
X5996372Y-25117984D01*
X5996372Y-25117984D02*
X5977325Y-25146555D01*
X5977325Y-25146555D02*
X5958277Y-25165603D01*
X5958277Y-25165603D02*
X5939229Y-25175127D01*
X6129706Y-25137031D02*
X6139229Y-25127508D01*
X6139229Y-25127508D02*
X6158277Y-25117984D01*
X6158277Y-25117984D02*
X6205896Y-25117984D01*
X6205896Y-25117984D02*
X6224944Y-25127508D01*
X6224944Y-25127508D02*
X6234467Y-25137031D01*
X6234467Y-25137031D02*
X6243991Y-25156079D01*
X6243991Y-25156079D02*
X6243991Y-25175127D01*
X6243991Y-25175127D02*
X6234467Y-25203698D01*
X6234467Y-25203698D02*
X6120182Y-25317984D01*
X6120182Y-25317984D02*
X6243991Y-25317984D01*
X6415420Y-25117984D02*
X6377325Y-25117984D01*
X6377325Y-25117984D02*
X6358277Y-25127508D01*
X6358277Y-25127508D02*
X6348753Y-25137031D01*
X6348753Y-25137031D02*
X6329706Y-25165603D01*
X6329706Y-25165603D02*
X6320182Y-25203698D01*
X6320182Y-25203698D02*
X6320182Y-25279888D01*
X6320182Y-25279888D02*
X6329706Y-25298936D01*
X6329706Y-25298936D02*
X6339229Y-25308460D01*
X6339229Y-25308460D02*
X6358277Y-25317984D01*
X6358277Y-25317984D02*
X6396372Y-25317984D01*
X6396372Y-25317984D02*
X6415420Y-25308460D01*
X6415420Y-25308460D02*
X6424944Y-25298936D01*
X6424944Y-25298936D02*
X6434467Y-25279888D01*
X6434467Y-25279888D02*
X6434467Y-25232269D01*
X6434467Y-25232269D02*
X6424944Y-25213222D01*
X6424944Y-25213222D02*
X6415420Y-25203698D01*
X6415420Y-25203698D02*
X6396372Y-25194174D01*
X6396372Y-25194174D02*
X6358277Y-25194174D01*
X6358277Y-25194174D02*
X6339229Y-25203698D01*
X6339229Y-25203698D02*
X6329706Y-25213222D01*
X6329706Y-25213222D02*
X6320182Y-25232269D01*
X6558277Y-25117984D02*
X6577325Y-25117984D01*
X6577325Y-25117984D02*
X6596372Y-25127508D01*
X6596372Y-25127508D02*
X6605896Y-25137031D01*
X6605896Y-25137031D02*
X6615420Y-25156079D01*
X6615420Y-25156079D02*
X6624944Y-25194174D01*
X6624944Y-25194174D02*
X6624944Y-25241793D01*
X6624944Y-25241793D02*
X6615420Y-25279888D01*
X6615420Y-25279888D02*
X6605896Y-25298936D01*
X6605896Y-25298936D02*
X6596372Y-25308460D01*
X6596372Y-25308460D02*
X6577325Y-25317984D01*
X6577325Y-25317984D02*
X6558277Y-25317984D01*
X6558277Y-25317984D02*
X6539229Y-25308460D01*
X6539229Y-25308460D02*
X6529706Y-25298936D01*
X6529706Y-25298936D02*
X6520182Y-25279888D01*
X6520182Y-25279888D02*
X6510658Y-25241793D01*
X6510658Y-25241793D02*
X6510658Y-25194174D01*
X6510658Y-25194174D02*
X6520182Y-25156079D01*
X6520182Y-25156079D02*
X6529706Y-25137031D01*
X6529706Y-25137031D02*
X6539229Y-25127508D01*
X6539229Y-25127508D02*
X6558277Y-25117984D01*
X6701134Y-25117984D02*
X6701134Y-25156079D01*
X6777325Y-25117984D02*
X6777325Y-25156079D01*
X7072563Y-25394174D02*
X7063039Y-25384650D01*
X7063039Y-25384650D02*
X7043991Y-25356079D01*
X7043991Y-25356079D02*
X7034468Y-25337031D01*
X7034468Y-25337031D02*
X7024944Y-25308460D01*
X7024944Y-25308460D02*
X7015420Y-25260841D01*
X7015420Y-25260841D02*
X7015420Y-25222746D01*
X7015420Y-25222746D02*
X7024944Y-25175127D01*
X7024944Y-25175127D02*
X7034468Y-25146555D01*
X7034468Y-25146555D02*
X7043991Y-25127508D01*
X7043991Y-25127508D02*
X7063039Y-25098936D01*
X7063039Y-25098936D02*
X7072563Y-25089412D01*
X7234468Y-25184650D02*
X7234468Y-25317984D01*
X7186848Y-25108460D02*
X7139229Y-25251317D01*
X7139229Y-25251317D02*
X7263039Y-25251317D01*
X7491610Y-25317984D02*
X7491610Y-25117984D01*
X7577325Y-25317984D02*
X7577325Y-25213222D01*
X7577325Y-25213222D02*
X7567801Y-25194174D01*
X7567801Y-25194174D02*
X7548753Y-25184650D01*
X7548753Y-25184650D02*
X7520182Y-25184650D01*
X7520182Y-25184650D02*
X7501134Y-25194174D01*
X7501134Y-25194174D02*
X7491610Y-25203698D01*
X7701134Y-25317984D02*
X7682087Y-25308460D01*
X7682087Y-25308460D02*
X7672563Y-25298936D01*
X7672563Y-25298936D02*
X7663039Y-25279888D01*
X7663039Y-25279888D02*
X7663039Y-25222746D01*
X7663039Y-25222746D02*
X7672563Y-25203698D01*
X7672563Y-25203698D02*
X7682087Y-25194174D01*
X7682087Y-25194174D02*
X7701134Y-25184650D01*
X7701134Y-25184650D02*
X7729706Y-25184650D01*
X7729706Y-25184650D02*
X7748753Y-25194174D01*
X7748753Y-25194174D02*
X7758277Y-25203698D01*
X7758277Y-25203698D02*
X7767801Y-25222746D01*
X7767801Y-25222746D02*
X7767801Y-25279888D01*
X7767801Y-25279888D02*
X7758277Y-25298936D01*
X7758277Y-25298936D02*
X7748753Y-25308460D01*
X7748753Y-25308460D02*
X7729706Y-25317984D01*
X7729706Y-25317984D02*
X7701134Y-25317984D01*
X7882087Y-25317984D02*
X7863039Y-25308460D01*
X7863039Y-25308460D02*
X7853515Y-25289412D01*
X7853515Y-25289412D02*
X7853515Y-25117984D01*
X8034468Y-25308460D02*
X8015420Y-25317984D01*
X8015420Y-25317984D02*
X7977325Y-25317984D01*
X7977325Y-25317984D02*
X7958277Y-25308460D01*
X7958277Y-25308460D02*
X7948753Y-25289412D01*
X7948753Y-25289412D02*
X7948753Y-25213222D01*
X7948753Y-25213222D02*
X7958277Y-25194174D01*
X7958277Y-25194174D02*
X7977325Y-25184650D01*
X7977325Y-25184650D02*
X8015420Y-25184650D01*
X8015420Y-25184650D02*
X8034468Y-25194174D01*
X8034468Y-25194174D02*
X8043991Y-25213222D01*
X8043991Y-25213222D02*
X8043991Y-25232269D01*
X8043991Y-25232269D02*
X7948753Y-25251317D01*
X8120182Y-25308460D02*
X8139230Y-25317984D01*
X8139230Y-25317984D02*
X8177325Y-25317984D01*
X8177325Y-25317984D02*
X8196372Y-25308460D01*
X8196372Y-25308460D02*
X8205896Y-25289412D01*
X8205896Y-25289412D02*
X8205896Y-25279888D01*
X8205896Y-25279888D02*
X8196372Y-25260841D01*
X8196372Y-25260841D02*
X8177325Y-25251317D01*
X8177325Y-25251317D02*
X8148753Y-25251317D01*
X8148753Y-25251317D02*
X8129706Y-25241793D01*
X8129706Y-25241793D02*
X8120182Y-25222746D01*
X8120182Y-25222746D02*
X8120182Y-25213222D01*
X8120182Y-25213222D02*
X8129706Y-25194174D01*
X8129706Y-25194174D02*
X8148753Y-25184650D01*
X8148753Y-25184650D02*
X8177325Y-25184650D01*
X8177325Y-25184650D02*
X8196372Y-25194174D01*
X8272563Y-25394174D02*
X8282087Y-25384650D01*
X8282087Y-25384650D02*
X8301134Y-25356079D01*
X8301134Y-25356079D02*
X8310658Y-25337031D01*
X8310658Y-25337031D02*
X8320182Y-25308460D01*
X8320182Y-25308460D02*
X8329706Y-25260841D01*
X8329706Y-25260841D02*
X8329706Y-25222746D01*
X8329706Y-25222746D02*
X8320182Y-25175127D01*
X8320182Y-25175127D02*
X8310658Y-25146555D01*
X8310658Y-25146555D02*
X8301134Y-25127508D01*
X8301134Y-25127508D02*
X8282087Y-25098936D01*
X8282087Y-25098936D02*
X8272563Y-25089412D01*
M02*
