M48
; DRILL file {KiCad 8.0.6} date 2025-04-19T20:02:06-0500
; FORMAT={-:-/ absolute / inch / decimal}
; #@! TF.CreationDate,2025-04-19T20:02:06-05:00
; #@! TF.GenerationSoftware,Kicad,Pcbnew,8.0.6
; #@! TF.FileFunction,Plated,1,2,PTH
FMAT,2
INCH
; #@! TA.AperFunction,Plated,PTH,ViaDrill
T1C0.0157
; #@! TA.AperFunction,Plated,PTH,ComponentDrill
T2C0.0295
; #@! TA.AperFunction,Plated,PTH,ComponentDrill
T3C0.0315
; #@! TA.AperFunction,Plated,PTH,ComponentDrill
T4C0.0354
; #@! TA.AperFunction,Plated,PTH,ComponentDrill
T5C0.0394
; #@! TA.AperFunction,Plated,PTH,ComponentDrill
T6C0.0433
; #@! TA.AperFunction,Plated,PTH,ComponentDrill
T7C0.1260
%
G90
G05
T1
X4.2272Y-6.4884
X4.2886Y-6.5914
X4.3135Y-6.3195
X4.3832Y-6.3238
X4.4083Y-6.7335
X4.4101Y-6.4481
X4.4447Y-6.818
X4.5571Y-6.4435
X4.5584Y-6.5957
X4.5978Y-6.6743
X4.6189Y-6.4258
X4.6978Y-6.6013
X4.7288Y-6.5566
X5.1104Y-6.4046
X5.3624Y-7.0867
X5.9826Y-6.216
X6.2015Y-7.1041
X6.9458Y-7.0104
X7.1001Y-6.9778
X7.2366Y-7.2055
X7.621Y-7.2145
X8.2409Y-7.3263
X9.0021Y-6.4356
X9.0046Y-6.0771
X9.1488Y-6.7469
X10.3878Y-8.7705
X10.3879Y-8.8301
X10.4505Y-8.5235
X10.6844Y-7.5007
X10.7335Y-8.8288
X10.7679Y-8.7347
X10.8801Y-7.4958
X11.4215Y-7.917
T2
X9.492Y-6.7613
X9.542Y-6.7613
X9.592Y-6.7613
T3
X2.2516Y-6.1024
X2.5516Y-6.1024
X3.2608Y-6.4567
X3.2707Y-5.9913
X3.2707Y-6.2913
X3.3608Y-6.4567
X3.3707Y-5.9913
X3.3707Y-6.2913
X3.4608Y-6.4567
X3.4707Y-5.9913
X3.4707Y-6.2913
X3.5608Y-6.4567
X3.5707Y-5.9913
X3.5707Y-6.2913
X3.6608Y-6.4567
X3.6707Y-5.9913
X3.6707Y-6.2913
X3.7608Y-6.4567
X3.7707Y-5.9913
X3.7707Y-6.2913
X3.8608Y-6.4567
X3.8707Y-5.9913
X3.8707Y-6.2913
X3.9608Y-6.4567
X3.9707Y-5.9913
X3.9707Y-6.2913
X4.0608Y-6.4567
X4.0707Y-5.9913
X4.0707Y-6.2913
X4.1707Y-5.9913
X4.1707Y-6.2913
X7.8251Y-6.0678
X7.8251Y-6.2272
X7.8251Y-6.3867
X7.8251Y-6.5461
X8.022Y-6.5461
X8.1251Y-6.0678
X8.1251Y-6.2272
X8.1251Y-6.3867
X8.903Y-6.4371
X8.905Y-6.6441
X9.203Y-6.4371
X9.205Y-6.6441
X11.293Y-6.367
X11.293Y-6.467
X11.293Y-6.567
X11.293Y-6.667
X11.293Y-6.767
X11.293Y-6.867
X11.293Y-6.967
X11.293Y-7.067
X11.293Y-7.167
X11.293Y-7.267
X11.293Y-7.367
X11.293Y-7.467
X11.293Y-7.567
X11.293Y-7.667
X11.293Y-7.767
X11.293Y-7.867
X11.293Y-7.967
X11.293Y-8.067
X11.293Y-8.167
X11.293Y-8.267
X11.293Y-8.367
X11.293Y-8.467
X11.443Y-6.367
X11.443Y-6.467
X11.443Y-6.567
X11.443Y-6.667
X11.443Y-6.767
X11.443Y-6.867
X11.443Y-6.967
X11.443Y-7.067
X11.443Y-7.167
X11.443Y-7.267
X11.443Y-7.367
X11.443Y-7.467
X11.443Y-7.567
X11.443Y-7.667
X11.443Y-7.767
X11.443Y-7.867
X11.443Y-7.967
X11.443Y-8.067
X11.443Y-8.167
X11.443Y-8.267
X11.443Y-8.367
X11.443Y-8.467
X11.886Y-8.9381
X12.186Y-8.9381
X12.343Y-6.367
X12.343Y-6.467
X12.343Y-6.567
X12.343Y-6.667
X12.343Y-6.767
X12.343Y-6.867
X12.343Y-6.967
X12.343Y-7.067
X12.343Y-7.167
X12.343Y-7.267
X12.343Y-7.367
X12.343Y-7.467
X12.343Y-7.567
X12.343Y-7.667
X12.343Y-7.767
X12.343Y-7.867
X12.343Y-7.967
X12.343Y-8.067
X12.343Y-8.167
X12.3431Y-8.2669
X12.3431Y-8.3669
X12.3431Y-8.4669
T4
X2.0079Y-6.1024
X2.1079Y-6.1024
X5.1545Y-6.8633
X5.2545Y-6.8633
X5.5445Y-6.8633
X5.6445Y-6.8633
X5.9345Y-6.8633
X6.0345Y-6.8633
X6.3245Y-6.8633
X6.4245Y-6.8633
X6.7145Y-6.8633
X6.8145Y-6.8633
X7.1045Y-6.8634
X7.2045Y-6.8634
X7.4945Y-6.8633
X7.5945Y-6.8633
X7.8845Y-6.8633
X7.9845Y-6.8633
X8.8458Y-6.1401
X8.9458Y-6.1401
T5
X1.533Y-6.5351
X1.533Y-6.6351
X1.533Y-6.7351
X1.533Y-6.8351
X1.533Y-6.9351
X1.533Y-7.0351
X2.4165Y-6.8268
X2.5165Y-6.8268
X2.6165Y-6.8268
X2.7165Y-6.8268
X3.211Y-7.7201
X3.211Y-7.8201
X3.211Y-7.9201
X3.211Y-8.0201
X3.211Y-8.1201
X3.211Y-8.2201
X3.211Y-8.3201
X3.211Y-8.4201
X5.0539Y-6.3546
X5.0539Y-6.4546
X5.1539Y-6.3546
X5.1539Y-6.4546
X5.2539Y-6.3546
X5.2539Y-6.4546
X5.3539Y-6.3546
X5.3539Y-6.4546
X5.4539Y-6.3546
X5.4539Y-6.4546
X5.5539Y-6.3546
X5.5539Y-6.4546
X5.6539Y-6.3546
X5.6539Y-6.4546
X5.7539Y-6.3546
X5.7539Y-6.4546
X5.8539Y-6.3546
X5.8539Y-6.4546
X5.9539Y-6.3546
X5.9539Y-6.4546
X6.0539Y-6.3546
X6.0539Y-6.4546
X6.1539Y-6.3546
X6.1539Y-6.4546
X6.2539Y-6.3546
X6.2539Y-6.4546
X6.3539Y-6.3546
X6.3539Y-6.4546
X6.4539Y-6.3546
X6.4539Y-6.4546
X6.5539Y-6.3546
X6.5539Y-6.4546
X6.6539Y-6.3546
X6.6539Y-6.4546
X6.7539Y-6.3546
X6.7539Y-6.4546
X6.8539Y-6.3546
X6.8539Y-6.4546
X6.9539Y-6.3546
X6.9539Y-6.4546
X9.199Y-6.0861
X9.199Y-6.1861
X9.299Y-6.0861
X9.299Y-6.1861
X9.399Y-6.0861
X9.399Y-6.1861
X9.499Y-6.0861
X9.499Y-6.1861
X9.9864Y-6.7091
X9.9864Y-6.8091
X9.9864Y-6.9091
X9.9864Y-7.0091
X9.9864Y-7.1091
X9.9864Y-7.2075
X10.388Y-6.7075
X10.388Y-6.8075
X10.388Y-6.9075
X10.388Y-7.0075
X10.388Y-7.1075
X10.388Y-7.2075
X10.6323Y-6.7082
X10.6323Y-6.8082
X10.6323Y-6.9082
X10.6323Y-7.0082
X10.6323Y-7.1082
X10.6323Y-7.2066
X11.0339Y-6.7066
X11.0339Y-6.8066
X11.0339Y-6.9066
X11.0339Y-7.0066
X11.0339Y-7.1066
X11.0339Y-7.2066
X11.219Y-8.9451
X11.319Y-8.9451
X11.419Y-8.9451
X11.519Y-8.9451
X11.619Y-8.9451
X11.719Y-8.9451
T6
X8.387Y-6.308
X8.387Y-6.4851
X8.643Y-6.308
X8.643Y-6.4851
T7
X1.5748Y-6.1024
X1.5748Y-8.8583
X12.7953Y-6.1024
X12.7953Y-8.8583
T5
G00X3.7933Y-7.5413
M15
G01X3.8445Y-7.5413
M16
G05
G00X3.7933Y-7.7165
M15
G01X3.8445Y-7.7165
M16
G05
G00X3.7933Y-7.8917
M15
G01X3.8445Y-7.8917
M16
G05
G00X4.45Y-7.5413
M15
G01X4.5012Y-7.5413
M16
G05
G00X4.45Y-7.7165
M15
G01X4.5012Y-7.7165
M16
G05
G00X4.45Y-7.8917
M15
G01X4.5012Y-7.8917
M16
G05
G00X5.1068Y-7.5413
M15
G01X5.158Y-7.5413
M16
G05
G00X5.1068Y-7.7165
M15
G01X5.158Y-7.7165
M16
G05
G00X5.1068Y-7.8917
M15
G01X5.158Y-7.8917
M16
G05
G00X5.7635Y-7.5413
M15
G01X5.8147Y-7.5413
M16
G05
G00X5.7635Y-7.7165
M15
G01X5.8147Y-7.7165
M16
G05
G00X5.7635Y-7.8917
M15
G01X5.8147Y-7.8917
M16
G05
G00X6.4202Y-7.5413
M15
G01X6.4714Y-7.5413
M16
G05
G00X6.4202Y-7.7165
M15
G01X6.4714Y-7.7165
M16
G05
G00X6.4202Y-7.8917
M15
G01X6.4714Y-7.8917
M16
G05
G00X7.077Y-7.5413
M15
G01X7.1281Y-7.5413
M16
G05
G00X7.077Y-7.7165
M15
G01X7.1281Y-7.7165
M16
G05
G00X7.077Y-7.8917
M15
G01X7.1281Y-7.8917
M16
G05
G00X7.7337Y-7.5413
M15
G01X7.7849Y-7.5413
M16
G05
G00X7.7337Y-7.7165
M15
G01X7.7849Y-7.7165
M16
G05
G00X7.7337Y-7.8917
M15
G01X7.7849Y-7.8917
M16
G05
G00X8.3904Y-7.5413
M15
G01X8.4416Y-7.5413
M16
G05
G00X8.3904Y-7.7165
M15
G01X8.4416Y-7.7165
M16
G05
G00X8.3904Y-7.8917
M15
G01X8.4416Y-7.8917
M16
G05
G00X9.0472Y-7.5413
M15
G01X9.0983Y-7.5413
M16
G05
G00X9.0472Y-7.7165
M15
G01X9.0983Y-7.7165
M16
G05
G00X9.0472Y-7.8917
M15
G01X9.0983Y-7.8917
M16
G05
G00X9.7039Y-7.5413
M15
G01X9.7551Y-7.5413
M16
G05
G00X9.7039Y-7.7165
M15
G01X9.7551Y-7.7165
M16
G05
G00X9.7039Y-7.8917
M15
G01X9.7551Y-7.8917
M16
G05
G00X10.3606Y-7.5413
M15
G01X10.4118Y-7.5413
M16
G05
G00X10.3606Y-7.7165
M15
G01X10.4118Y-7.7165
M16
G05
G00X10.3606Y-7.8917
M15
G01X10.4118Y-7.8917
M16
G05
M30
